<ttFont>
<head>
    <!-- Most of this table will be recalculated by the compiler -->
    <tableVersion value="1.0"/>
    <fontRevision value="1.0"/>
    <checkSumAdjustment value="0x3afd5e28"/>
    <magicNumber value="0x5f0f3cf5"/>
    <flags value="00000000 00011111"/>
    <unitsPerEm value="1000"/>
    <created value="Mon Jun 29 22:52:20 2015"/>
    <modified value="Mon Jun 29 22:52:20 2015"/>
    <xMin value="-23"/>
    <yMin value="-223"/>
    <xMax value="1240"/>
    <yMax value="740"/>
    <macStyle value="00000000 00000001"/>
    <lowestRecPPEM value="8"/>
    <fontDirectionHint value="2"/>
    <indexToLocFormat value="0"/>
    <glyphDataFormat value="0"/>
  </head>
    <TTGlyph name=".notdef" xMin="50" yMin="0" xMax="200" yMax="533">
      <contour>
        <pt x="50" y="0" on="1"/>
        <pt x="50" y="533" on="1"/>
        <pt x="200" y="533" on="1"/>
        <pt x="200" y="0" on="1"/>
      </contour>
      <contour>
        <pt x="100" y="50" on="1"/>
        <pt x="150" y="50" on="1"/>
        <pt x="150" y="483" on="1"/>
        <pt x="100" y="483" on="1"/>
      </contour>
    </TTGlyph>
    <TTGlyph name="A" xMin="29" yMin="-31" xMax="827" yMax="686">
      <contour>
        <pt x="821" y="97" on="1"/>
        <pt x="822" y="97" on="0"/>
        <pt x="827" y="79" on="0"/>
        <pt x="827" y="77" on="1"/>
        <pt x="793" y="53" on="1"/>
        <pt x="676" y="-25" on="0"/>
        <pt x="670" y="-28" on="1"/>
        <pt x="667" y="-31" on="0"/>
        <pt x="656" y="-27" on="1"/>
        <pt x="620" y="48" on="1"/>
        <pt x="583" y="123" on="1"/>
        <pt x="583" y="124" on="0"/>
        <pt x="467" y="46" on="1"/>
        <pt x="352" y="-31" on="1"/>
        <pt x="341" y="-20" on="1"/>
        <pt x="300" y="23" on="0"/>
        <pt x="255" y="52" on="1"/>
        <pt x="220" y="77" on="0"/>
        <pt x="192" y="77" on="1"/>
        <pt x="185" y="77" on="0"/>
        <pt x="165" y="73" on="1"/>
        <pt x="130" y="64" on="0"/>
        <pt x="60" y="32" on="1"/>
        <pt x="49" y="40" on="1"/>
        <pt x="37" y="47" on="0"/>
        <pt x="38" y="49" on="1"/>
        <pt x="141" y="115" on="1"/>
        <pt x="266" y="194" on="0"/>
        <pt x="297" y="219" on="1"/>
        <pt x="411" y="311" on="0"/>
        <pt x="411" y="452" on="1"/>
        <pt x="411" y="474" on="0"/>
        <pt x="409" y="483" on="1"/>
        <pt x="397" y="535" on="0"/>
        <pt x="314" y="613" on="0"/>
        <pt x="262" y="622" on="1"/>
        <pt x="246" y="624" on="0"/>
        <pt x="233" y="624" on="1"/>
        <pt x="188" y="624" on="0"/>
        <pt x="133" y="584" on="0"/>
        <pt x="133" y="548" on="1"/>
        <pt x="133" y="538" on="0"/>
        <pt x="136" y="530" on="1"/>
        <pt x="145" y="508" on="0"/>
        <pt x="176" y="479" on="1"/>
        <pt x="227" y="432" on="0"/>
        <pt x="238" y="409" on="1"/>
        <pt x="241" y="403" on="0"/>
        <pt x="241" y="393" on="1"/>
        <pt x="241" y="361" on="0"/>
        <pt x="207" y="328" on="1"/>
        <pt x="167" y="289" on="0"/>
        <pt x="100" y="256" on="1"/>
        <pt x="86" y="249" on="1"/>
        <pt x="77" y="256" on="1"/>
        <pt x="68" y="263" on="0"/>
        <pt x="67" y="263" on="1"/>
        <pt x="67" y="264" on="0"/>
        <pt x="73" y="268" on="1"/>
        <pt x="119" y="294" on="0"/>
        <pt x="132" y="325" on="1"/>
        <pt x="135" y="330" on="0"/>
        <pt x="135" y="339" on="1"/>
        <pt x="135" y="347" on="0"/>
        <pt x="132" y="353" on="1"/>
        <pt x="123" y="370" on="0"/>
        <pt x="91" y="404" on="1"/>
        <pt x="56" y="442" on="0"/>
        <pt x="43" y="463" on="1"/>
        <pt x="29" y="487" on="0"/>
        <pt x="29" y="504" on="1"/>
        <pt x="29" y="566" on="0"/>
        <pt x="118" y="624" on="1"/>
        <pt x="194" y="677" on="0"/>
        <pt x="291" y="686" on="1"/>
        <pt x="309" y="686" on="1"/>
        <pt x="349" y="686" on="0"/>
        <pt x="360" y="685" on="1"/>
        <pt x="496" y="663" on="0"/>
        <pt x="528" y="564" on="1"/>
        <pt x="537" y="538" on="0"/>
        <pt x="537" y="511" on="1"/>
        <pt x="537" y="497" on="0"/>
        <pt x="536" y="490" on="1"/>
        <pt x="530" y="423" on="0"/>
        <pt x="491" y="344" on="1"/>
        <pt x="478" y="318" on="1"/>
        <pt x="455" y="299" on="1"/>
        <pt x="420" y="272" on="0"/>
        <pt x="308" y="179" on="1"/>
        <pt x="284" y="160" on="1"/>
        <pt x="294" y="158" on="1"/>
        <pt x="312" y="157" on="0"/>
        <pt x="330" y="149" on="1"/>
        <pt x="376" y="131" on="0"/>
        <pt x="426" y="89" on="1"/>
        <pt x="437" y="79" on="1"/>
        <pt x="513" y="111" on="0"/>
        <pt x="579" y="153" on="1"/>
        <pt x="579" y="175" on="1"/>
        <pt x="579" y="183" on="0"/>
        <pt x="580" y="272" on="0"/>
        <pt x="581" y="389" on="0"/>
        <pt x="582" y="503" on="0"/>
        <pt x="582" y="542" on="1"/>
        <pt x="583" y="582" on="1"/>
        <pt x="620" y="603" on="0"/>
        <pt x="664" y="630" on="1"/>
        <pt x="681" y="640" on="0"/>
        <pt x="725" y="667" on="0"/>
        <pt x="734" y="673" on="1"/>
        <pt x="744" y="679" on="1"/>
        <pt x="750" y="678" on="0"/>
        <pt x="756" y="676" on="1"/>
        <pt x="767" y="674" on="1"/>
        <pt x="743" y="647" on="0"/>
        <pt x="716" y="623" on="1"/>
        <pt x="716" y="585" on="1"/>
        <pt x="708" y="353" on="0"/>
        <pt x="708" y="289" on="1"/>
        <pt x="708" y="250" on="1"/>
        <pt x="708" y="237" on="0"/>
        <pt x="710" y="198" on="0"/>
        <pt x="710" y="195" on="1"/>
        <pt x="711" y="180" on="1"/>
        <pt x="739" y="130" on="1"/>
        <pt x="768" y="79" on="0"/>
        <pt x="771" y="79" on="1"/>
        <pt x="775" y="79" on="0"/>
        <pt x="818" y="97" on="0"/>
      </contour>
    </TTGlyph>
    <TTGlyph name="B" xMin="57" yMin="-31" xMax="965" yMax="684">
      <contour>
        <pt x="726" y="684" on="1"/>
        <pt x="738" y="684" on="1"/>
        <pt x="798" y="684" on="0"/>
        <pt x="814" y="658" on="1"/>
        <pt x="826" y="640" on="0"/>
        <pt x="840" y="587" on="1"/>
        <pt x="854" y="536" on="0"/>
        <pt x="877" y="515" on="1"/>
        <pt x="887" y="505" on="0"/>
        <pt x="906" y="505" on="1"/>
        <pt x="923" y="505" on="0"/>
        <pt x="950" y="511" on="1"/>
        <pt x="960" y="514" on="0"/>
        <pt x="963" y="514" on="1"/>
        <pt x="964" y="504" on="1"/>
        <pt x="965" y="495" on="0"/>
        <pt x="965" y="494" on="1"/>
        <pt x="965" y="492" on="0"/>
        <pt x="756" y="387" on="0"/>
        <pt x="750" y="385" on="1"/>
        <pt x="745" y="384" on="1"/>
        <pt x="751" y="384" on="1"/>
        <pt x="873" y="369" on="0"/>
        <pt x="951" y="281" on="0"/>
        <pt x="951" y="217" on="1"/>
        <pt x="951" y="183" on="0"/>
        <pt x="926" y="112" on="0"/>
        <pt x="908" y="91" on="1"/>
        <pt x="903" y="86" on="0"/>
        <pt x="820" y="34" on="1"/>
        <pt x="734" y="-21" on="1"/>
        <pt x="718" y="-24" on="1"/>
        <pt x="679" y="-31" on="0"/>
        <pt x="639" y="-31" on="1"/>
        <pt x="601" y="-31" on="0"/>
        <pt x="575" y="-27" on="1"/>
        <pt x="524" y="-20" on="0"/>
        <pt x="448" y="6" on="1"/>
        <pt x="370" y="31" on="0"/>
        <pt x="317" y="38" on="1"/>
        <pt x="305" y="40" on="0"/>
        <pt x="271" y="40" on="1"/>
        <pt x="191" y="40" on="0"/>
        <pt x="119" y="-2" on="1"/>
        <pt x="99" y="-13" on="1"/>
        <pt x="91" y="1" on="1"/>
        <pt x="84" y="15" on="1"/>
        <pt x="86" y="16" on="1"/>
        <pt x="96" y="22" on="1"/>
        <pt x="105" y="27" on="0"/>
        <pt x="145" y="50" on="0"/>
        <pt x="161" y="59" on="1"/>
        <pt x="283" y="129" on="0"/>
        <pt x="315" y="152" on="1"/>
        <pt x="356" y="183" on="0"/>
        <pt x="373" y="207" on="1"/>
        <pt x="382" y="219" on="0"/>
        <pt x="386" y="233" on="1"/>
        <pt x="388" y="240" on="0"/>
        <pt x="399" y="354" on="0"/>
        <pt x="399" y="363" on="1"/>
        <pt x="399" y="489" on="0"/>
        <pt x="353" y="551" on="1"/>
        <pt x="339" y="571" on="0"/>
        <pt x="289" y="610" on="0"/>
        <pt x="268" y="617" on="1"/>
        <pt x="253" y="622" on="0"/>
        <pt x="238" y="622" on="1"/>
        <pt x="205" y="622" on="0"/>
        <pt x="157" y="587" on="0"/>
        <pt x="157" y="557" on="1"/>
        <pt x="157" y="543" on="0"/>
        <pt x="174" y="519" on="1"/>
        <pt x="186" y="504" on="0"/>
        <pt x="222" y="469" on="1"/>
        <pt x="257" y="434" on="0"/>
        <pt x="267" y="415" on="1"/>
        <pt x="272" y="403" on="0"/>
        <pt x="272" y="396" on="1"/>
        <pt x="272" y="383" on="0"/>
        <pt x="262" y="369" on="1"/>
        <pt x="235" y="328" on="0"/>
        <pt x="145" y="273" on="1"/>
        <pt x="98" y="246" on="0"/>
        <pt x="96" y="246" on="1"/>
        <pt x="95" y="246" on="0"/>
        <pt x="74" y="258" on="0"/>
        <pt x="74" y="259" on="1"/>
        <pt x="76" y="261" on="1"/>
        <pt x="79" y="263" on="0"/>
        <pt x="89" y="269" on="0"/>
        <pt x="93" y="272" on="1"/>
        <pt x="130" y="296" on="0"/>
        <pt x="160" y="326" on="0"/>
        <pt x="160" y="345" on="1"/>
        <pt x="160" y="361" on="0"/>
        <pt x="119" y="402" on="1"/>
        <pt x="80" y="442" on="0"/>
        <pt x="66" y="472" on="1"/>
        <pt x="57" y="490" on="0"/>
        <pt x="57" y="509" on="1"/>
        <pt x="57" y="525" on="0"/>
        <pt x="69" y="554" on="0"/>
        <pt x="82" y="570" on="0"/>
        <pt x="95" y="584" on="1"/>
        <pt x="142" y="631" on="0"/>
        <pt x="268" y="684" on="0"/>
        <pt x="331" y="684" on="1"/>
        <pt x="382" y="684" on="0"/>
        <pt x="472" y="631" on="0"/>
        <pt x="500" y="585" on="1"/>
        <pt x="505" y="577" on="1"/>
        <pt x="507" y="578" on="1"/>
        <pt x="509" y="580" on="0"/>
        <pt x="517" y="586" on="0"/>
        <pt x="521" y="588" on="1"/>
        <pt x="641" y="673" on="0"/>
      </contour>
      <contour>
        <pt x="529" y="443" on="1"/>
        <pt x="525" y="346" on="1"/>
        <pt x="526" y="346" on="0"/>
        <pt x="773" y="434" on="0"/>
        <pt x="773" y="435" on="1"/>
        <pt x="748" y="452" on="0"/>
        <pt x="734" y="478" on="0"/>
        <pt x="727" y="518" on="1"/>
        <pt x="714" y="584" on="0"/>
        <pt x="682" y="616" on="0"/>
        <pt x="658" y="616" on="1"/>
        <pt x="628" y="616" on="0"/>
        <pt x="597" y="596" on="1"/>
        <pt x="555" y="569" on="0"/>
        <pt x="525" y="530" on="1"/>
        <pt x="524" y="529" on="0"/>
        <pt x="525" y="520" on="1"/>
        <pt x="529" y="490" on="0"/>
      </contour>
      <contour>
        <pt x="827" y="144" on="1"/>
        <pt x="827" y="299" on="0"/>
        <pt x="660" y="322" on="1"/>
        <pt x="652" y="323" on="0"/>
        <pt x="611" y="323" on="1"/>
        <pt x="596" y="323" on="1"/>
        <pt x="574" y="323" on="0"/>
        <pt x="535" y="316" on="1"/>
        <pt x="523" y="314" on="1"/>
        <pt x="521" y="293" on="0"/>
        <pt x="505" y="255" on="1"/>
        <pt x="500" y="241" on="1"/>
        <pt x="452" y="206" on="0"/>
        <pt x="356" y="138" on="1"/>
        <pt x="366" y="137" on="1"/>
        <pt x="464" y="129" on="0"/>
        <pt x="598" y="87" on="1"/>
        <pt x="667" y="65" on="0"/>
        <pt x="705" y="58" on="1"/>
        <pt x="735" y="54" on="0"/>
        <pt x="748" y="54" on="1"/>
        <pt x="763" y="54" on="0"/>
        <pt x="772" y="57" on="1"/>
        <pt x="778" y="57" on="0"/>
        <pt x="788" y="63" on="1"/>
        <pt x="796" y="66" on="0"/>
        <pt x="805" y="75" on="1"/>
        <pt x="827" y="98" on="0"/>
      </contour>
    </TTGlyph>
    <TTGlyph name="C" xMin="72" yMin="-32" xMax="726" yMax="676">
      <contour>
        <pt x="490" y="609" on="1"/>
        <pt x="452" y="599" on="0"/>
        <pt x="452" y="558" on="1"/>
        <pt x="452" y="545" on="0"/>
        <pt x="461" y="506" on="0"/>
        <pt x="478" y="447" on="0"/>
        <pt x="483" y="427" on="1"/>
        <pt x="486" y="413" on="0"/>
        <pt x="486" y="393" on="1"/>
        <pt x="486" y="341" on="0"/>
        <pt x="463" y="315" on="1"/>
        <pt x="434" y="280" on="0"/>
        <pt x="296" y="231" on="1"/>
        <pt x="272" y="223" on="1"/>
        <pt x="262" y="230" on="1"/>
        <pt x="253" y="237" on="1"/>
        <pt x="277" y="245" on="0"/>
        <pt x="309" y="270" on="1"/>
        <pt x="349" y="301" on="0"/>
        <pt x="351" y="338" on="1"/>
        <pt x="351" y="360" on="0"/>
        <pt x="347" y="384" on="1"/>
        <pt x="344" y="399" on="0"/>
        <pt x="328" y="464" on="1"/>
        <pt x="316" y="510" on="0"/>
        <pt x="316" y="532" on="1"/>
        <pt x="316" y="546" on="0"/>
        <pt x="319" y="552" on="1"/>
        <pt x="319" y="554" on="0"/>
        <pt x="316" y="554" on="1"/>
        <pt x="299" y="554" on="0"/>
        <pt x="275" y="542" on="1"/>
        <pt x="199" y="502" on="0"/>
        <pt x="199" y="371" on="1"/>
        <pt x="199" y="234" on="0"/>
        <pt x="280" y="151" on="1"/>
        <pt x="354" y="74" on="0"/>
        <pt x="468" y="53" on="1"/>
        <pt x="501" y="47" on="0"/>
        <pt x="541" y="47" on="1"/>
        <pt x="572" y="47" on="0"/>
        <pt x="585" y="51" on="1"/>
        <pt x="586" y="51" on="0"/>
        <pt x="710" y="107" on="0"/>
        <pt x="712" y="108" on="1"/>
        <pt x="716" y="104" on="0"/>
        <pt x="716" y="81" on="1"/>
        <pt x="706" y="74" on="1"/>
        <pt x="695" y="68" on="0"/>
        <pt x="651" y="40" on="0"/>
        <pt x="633" y="29" on="1"/>
        <pt x="550" y="-22" on="1"/>
        <pt x="540" y="-24" on="1"/>
        <pt x="492" y="-32" on="0"/>
        <pt x="460" y="-32" on="1"/>
        <pt x="241" y="-32" on="0"/>
        <pt x="145" y="93" on="1"/>
        <pt x="87" y="166" on="0"/>
        <pt x="74" y="264" on="1"/>
        <pt x="72" y="280" on="0"/>
        <pt x="72" y="303" on="1"/>
        <pt x="72" y="394" on="0"/>
        <pt x="114" y="476" on="1"/>
        <pt x="119" y="486" on="1"/>
        <pt x="133" y="494" on="1"/>
        <pt x="221" y="543" on="0"/>
        <pt x="256" y="561" on="1"/>
        <pt x="313" y="592" on="1"/>
        <pt x="322" y="584" on="0"/>
        <pt x="338" y="568" on="1"/>
        <pt x="359" y="580" on="1"/>
        <pt x="473" y="649" on="0"/>
        <pt x="584" y="671" on="1"/>
        <pt x="606" y="675" on="1"/>
        <pt x="607" y="675" on="0"/>
        <pt x="608" y="676" on="1"/>
        <pt x="610" y="676" on="1"/>
        <pt x="612" y="676" on="0"/>
        <pt x="613" y="672" on="1"/>
        <pt x="631" y="604" on="0"/>
        <pt x="660" y="578" on="1"/>
        <pt x="673" y="568" on="0"/>
        <pt x="694" y="568" on="1"/>
        <pt x="717" y="568" on="0"/>
        <pt x="721" y="570" on="1"/>
        <pt x="726" y="570" on="1"/>
        <pt x="724" y="565" on="0"/>
        <pt x="722" y="559" on="1"/>
        <pt x="717" y="549" on="1"/>
        <pt x="706" y="545" on="1"/>
        <pt x="682" y="538" on="0"/>
        <pt x="620" y="520" on="1"/>
        <pt x="592" y="513" on="0"/>
        <pt x="583" y="513" on="1"/>
        <pt x="558" y="519" on="0"/>
        <pt x="541" y="536" on="1"/>
        <pt x="532" y="545" on="0"/>
        <pt x="498" y="593" on="0"/>
      </contour>
    </TTGlyph>
    <TTGlyph name="D" xMin="31" yMin="-29" xMax="896" yMax="683">
      <contour>
        <pt x="780" y="277" on="1"/>
        <pt x="780" y="440" on="0"/>
        <pt x="568" y="596" on="0"/>
        <pt x="380" y="596" on="1"/>
        <pt x="207" y="596" on="0"/>
        <pt x="124" y="519" on="1"/>
        <pt x="61" y="462" on="0"/>
        <pt x="56" y="373" on="1"/>
        <pt x="56" y="361" on="1"/>
        <pt x="55" y="361" on="0"/>
        <pt x="43" y="366" on="1"/>
        <pt x="31" y="372" on="1"/>
        <pt x="31" y="384" on="1"/>
        <pt x="31" y="415" on="0"/>
        <pt x="40" y="451" on="1"/>
        <pt x="54" y="507" on="0"/>
        <pt x="125" y="601" on="0"/>
        <pt x="173" y="627" on="1"/>
        <pt x="272" y="683" on="0"/>
        <pt x="444" y="683" on="1"/>
        <pt x="513" y="683" on="0"/>
        <pt x="529" y="682" on="1"/>
        <pt x="765" y="662" on="0"/>
        <pt x="851" y="532" on="1"/>
        <pt x="896" y="464" on="0"/>
        <pt x="896" y="369" on="1"/>
        <pt x="896" y="346" on="0"/>
        <pt x="894" y="328" on="1"/>
        <pt x="884" y="242" on="0"/>
        <pt x="839" y="163" on="1"/>
        <pt x="835" y="155" on="0"/>
        <pt x="818" y="140" on="1"/>
        <pt x="706" y="49" on="0"/>
        <pt x="590" y="-17" on="1"/>
        <pt x="569" y="-29" on="0"/>
        <pt x="563" y="-29" on="1"/>
        <pt x="561" y="-29" on="0"/>
        <pt x="545" y="-27" on="1"/>
        <pt x="510" y="-24" on="0"/>
        <pt x="423" y="4" on="1"/>
        <pt x="293" y="47" on="0"/>
        <pt x="243" y="56" on="1"/>
        <pt x="212" y="62" on="0"/>
        <pt x="183" y="62" on="1"/>
        <pt x="135" y="62" on="0"/>
        <pt x="105" y="38" on="1"/>
        <pt x="86" y="22" on="0"/>
        <pt x="63" y="1" on="1"/>
        <pt x="48" y="-14" on="1"/>
        <pt x="40" y="-4" on="1"/>
        <pt x="31" y="5" on="1"/>
        <pt x="79" y="71" on="0"/>
        <pt x="172" y="149" on="1"/>
        <pt x="186" y="161" on="1"/>
        <pt x="199" y="161" on="1"/>
        <pt x="291" y="161" on="0"/>
        <pt x="329" y="181" on="1"/>
        <pt x="357" y="198" on="0"/>
        <pt x="357" y="231" on="1"/>
        <pt x="357" y="238" on="0"/>
        <pt x="354" y="246" on="1"/>
        <pt x="345" y="270" on="0"/>
        <pt x="302" y="315" on="1"/>
        <pt x="275" y="342" on="0"/>
        <pt x="260" y="362" on="1"/>
        <pt x="245" y="384" on="0"/>
        <pt x="245" y="396" on="1"/>
        <pt x="245" y="399" on="0"/>
        <pt x="247" y="407" on="1"/>
        <pt x="254" y="436" on="0"/>
        <pt x="294" y="470" on="1"/>
        <pt x="343" y="512" on="0"/>
        <pt x="403" y="543" on="1"/>
        <pt x="413" y="548" on="1"/>
        <pt x="425" y="545" on="1"/>
        <pt x="438" y="541" on="1"/>
        <pt x="396" y="508" on="0"/>
        <pt x="382" y="485" on="1"/>
        <pt x="373" y="472" on="0"/>
        <pt x="373" y="462" on="1"/>
        <pt x="373" y="459" on="0"/>
        <pt x="377" y="447" on="1"/>
        <pt x="387" y="427" on="0"/>
        <pt x="419" y="391" on="1"/>
        <pt x="460" y="345" on="0"/>
        <pt x="471" y="321" on="1"/>
        <pt x="480" y="303" on="0"/>
        <pt x="480" y="288" on="1"/>
        <pt x="480" y="282" on="0"/>
        <pt x="476" y="266" on="1"/>
        <pt x="469" y="242" on="0"/>
        <pt x="433" y="212" on="1"/>
        <pt x="394" y="180" on="0"/>
        <pt x="348" y="156" on="1"/>
        <pt x="334" y="148" on="1"/>
        <pt x="353" y="145" on="1"/>
        <pt x="413" y="133" on="0"/>
        <pt x="540" y="98" on="1"/>
        <pt x="622" y="76" on="0"/>
        <pt x="654" y="76" on="1"/>
        <pt x="671" y="76" on="0"/>
        <pt x="678" y="78" on="1"/>
        <pt x="780" y="112" on="0"/>
      </contour>
    </TTGlyph>
    <TTGlyph name="E" xMin="74" yMin="-29" xMax="728" yMax="686">
      <contour>
        <pt x="322" y="567" on="1"/>
        <pt x="270" y="554" on="0"/>
        <pt x="196" y="442" on="0"/>
        <pt x="196" y="370" on="1"/>
        <pt x="196" y="282" on="0"/>
        <pt x="247" y="207" on="1"/>
        <pt x="262" y="184" on="0"/>
        <pt x="287" y="157" on="1"/>
        <pt x="393" y="55" on="0"/>
        <pt x="527" y="55" on="1"/>
        <pt x="554" y="55" on="0"/>
        <pt x="563" y="56" on="1"/>
        <pt x="635" y="66" on="0"/>
        <pt x="705" y="105" on="1"/>
        <pt x="717" y="111" on="1"/>
        <pt x="717" y="85" on="1"/>
        <pt x="666" y="50" on="0"/>
        <pt x="562" y="-18" on="1"/>
        <pt x="520" y="-29" on="0"/>
        <pt x="443" y="-29" on="1"/>
        <pt x="291" y="-29" on="0"/>
        <pt x="195" y="48" on="1"/>
        <pt x="166" y="71" on="0"/>
        <pt x="146" y="98" on="1"/>
        <pt x="88" y="169" on="0"/>
        <pt x="75" y="265" on="1"/>
        <pt x="74" y="273" on="0"/>
        <pt x="74" y="307" on="1"/>
        <pt x="74" y="396" on="0"/>
        <pt x="109" y="472" on="1"/>
        <pt x="113" y="482" on="0"/>
        <pt x="118" y="485" on="1"/>
        <pt x="132" y="495" on="0"/>
        <pt x="190" y="533" on="1"/>
        <pt x="251" y="568" on="0"/>
        <pt x="295" y="591" on="1"/>
        <pt x="308" y="598" on="1"/>
        <pt x="350" y="580" on="1"/>
        <pt x="361" y="586" on="1"/>
        <pt x="445" y="637" on="0"/>
        <pt x="587" y="680" on="1"/>
        <pt x="608" y="686" on="0"/>
        <pt x="610" y="686" on="0"/>
        <pt x="610" y="685" on="1"/>
        <pt x="616" y="669" on="1"/>
        <pt x="629" y="625" on="0"/>
        <pt x="646" y="601" on="1"/>
        <pt x="661" y="581" on="0"/>
        <pt x="674" y="574" on="1"/>
        <pt x="679" y="572" on="0"/>
        <pt x="692" y="572" on="1"/>
        <pt x="713" y="572" on="0"/>
        <pt x="726" y="576" on="1"/>
        <pt x="728" y="576" on="1"/>
        <pt x="725" y="565" on="1"/>
        <pt x="723" y="554" on="1"/>
        <pt x="692" y="544" on="1"/>
        <pt x="660" y="535" on="0"/>
        <pt x="597" y="516" on="0"/>
        <pt x="595" y="516" on="1"/>
        <pt x="585" y="514" on="0"/>
        <pt x="574" y="519" on="1"/>
        <pt x="563" y="527" on="0"/>
        <pt x="522" y="577" on="0"/>
        <pt x="491" y="617" on="0"/>
        <pt x="490" y="617" on="1"/>
        <pt x="486" y="614" on="1"/>
        <pt x="483" y="612" on="0"/>
        <pt x="473" y="604" on="0"/>
        <pt x="470" y="601" on="1"/>
        <pt x="462" y="593" on="0"/>
        <pt x="456" y="579" on="1"/>
        <pt x="456" y="564" on="1"/>
        <pt x="456" y="539" on="0"/>
        <pt x="474" y="468" on="1"/>
        <pt x="490" y="412" on="0"/>
        <pt x="492" y="393" on="1"/>
        <pt x="494" y="381" on="1"/>
        <pt x="553" y="421" on="1"/>
        <pt x="613" y="460" on="1"/>
        <pt x="619" y="450" on="1"/>
        <pt x="651" y="400" on="0"/>
        <pt x="696" y="371" on="1"/>
        <pt x="703" y="365" on="1"/>
        <pt x="688" y="356" on="0"/>
        <pt x="629" y="321" on="0"/>
        <pt x="614" y="312" on="1"/>
        <pt x="596" y="312" on="1"/>
        <pt x="580" y="322" on="1"/>
        <pt x="571" y="327" on="0"/>
        <pt x="547" y="343" on="1"/>
        <pt x="542" y="346" on="0"/>
        <pt x="531" y="354" on="0"/>
        <pt x="526" y="357" on="0"/>
        <pt x="516" y="360" on="0"/>
        <pt x="510" y="360" on="1"/>
        <pt x="491" y="357" on="0"/>
        <pt x="485" y="346" on="1"/>
        <pt x="471" y="322" on="0"/>
        <pt x="435" y="297" on="1"/>
        <pt x="399" y="271" on="0"/>
        <pt x="342" y="248" on="1"/>
        <pt x="288" y="227" on="0"/>
        <pt x="277" y="227" on="1"/>
        <pt x="275" y="227" on="0"/>
        <pt x="266" y="234" on="1"/>
        <pt x="256" y="240" on="1"/>
        <pt x="267" y="245" on="1"/>
        <pt x="312" y="264" on="0"/>
        <pt x="337" y="294" on="1"/>
        <pt x="353" y="313" on="0"/>
        <pt x="353" y="336" on="1"/>
        <pt x="353" y="374" on="0"/>
        <pt x="323" y="489" on="1"/>
        <pt x="316" y="516" on="0"/>
        <pt x="316" y="530" on="1"/>
        <pt x="316" y="537" on="1"/>
        <pt x="316" y="554" on="0"/>
      </contour>
    </TTGlyph>
    <TTGlyph name="F" xMin="17" yMin="-146" xMax="727" yMax="684">
      <contour>
        <pt x="20" y="151" on="1"/>
        <pt x="18" y="158" on="1"/>
        <pt x="17" y="165" on="0"/>
        <pt x="17" y="169" on="0"/>
        <pt x="20" y="172" on="0"/>
        <pt x="24" y="174" on="0"/>
        <pt x="32" y="177" on="0"/>
        <pt x="35" y="179" on="1"/>
        <pt x="105" y="216" on="0"/>
        <pt x="168" y="228" on="1"/>
        <pt x="182" y="230" on="0"/>
        <pt x="195" y="230" on="1"/>
        <pt x="218" y="230" on="0"/>
        <pt x="243" y="218" on="0"/>
        <pt x="259" y="202" on="1"/>
        <pt x="270" y="190" on="0"/>
        <pt x="270" y="171" on="1"/>
        <pt x="269" y="152" on="0"/>
        <pt x="255" y="96" on="1"/>
        <pt x="236" y="25" on="0"/>
        <pt x="236" y="-16" on="1"/>
        <pt x="236" y="-60" on="0"/>
        <pt x="281" y="-107" on="0"/>
        <pt x="322" y="-107" on="1"/>
        <pt x="381" y="-107" on="0"/>
        <pt x="428" y="-68" on="1"/>
        <pt x="467" y="-35" on="0"/>
        <pt x="467" y="30" on="1"/>
        <pt x="467" y="46" on="0"/>
        <pt x="464" y="55" on="1"/>
        <pt x="451" y="94" on="0"/>
        <pt x="375" y="180" on="1"/>
        <pt x="332" y="230" on="0"/>
        <pt x="316" y="251" on="1"/>
        <pt x="273" y="309" on="0"/>
        <pt x="263" y="338" on="1"/>
        <pt x="261" y="345" on="0"/>
        <pt x="261" y="359" on="1"/>
        <pt x="261" y="384" on="0"/>
        <pt x="284" y="418" on="1"/>
        <pt x="323" y="470" on="0"/>
        <pt x="424" y="522" on="1"/>
        <pt x="410" y="529" on="0"/>
        <pt x="392" y="537" on="1"/>
        <pt x="260" y="596" on="0"/>
        <pt x="208" y="596" on="1"/>
        <pt x="173" y="596" on="0"/>
        <pt x="146" y="576" on="1"/>
        <pt x="109" y="545" on="0"/>
        <pt x="89" y="474" on="1"/>
        <pt x="86" y="465" on="0"/>
        <pt x="86" y="463" on="1"/>
        <pt x="80" y="467" on="0"/>
        <pt x="72" y="472" on="1"/>
        <pt x="59" y="481" on="1"/>
        <pt x="63" y="494" on="1"/>
        <pt x="87" y="578" on="0"/>
        <pt x="137" y="627" on="1"/>
        <pt x="191" y="684" on="0"/>
        <pt x="285" y="684" on="1"/>
        <pt x="330" y="684" on="0"/>
        <pt x="395" y="662" on="1"/>
        <pt x="434" y="649" on="0"/>
        <pt x="519" y="614" on="1"/>
        <pt x="582" y="587" on="0"/>
        <pt x="608" y="583" on="1"/>
        <pt x="618" y="581" on="0"/>
        <pt x="621" y="581" on="1"/>
        <pt x="631" y="581" on="0"/>
        <pt x="645" y="588" on="1"/>
        <pt x="669" y="600" on="0"/>
        <pt x="706" y="629" on="1"/>
        <pt x="721" y="640" on="1"/>
        <pt x="722" y="640" on="0"/>
        <pt x="725" y="630" on="1"/>
        <pt x="727" y="620" on="1"/>
        <pt x="638" y="528" on="0"/>
        <pt x="582" y="486" on="1"/>
        <pt x="569" y="487" on="1"/>
        <pt x="533" y="490" on="0"/>
        <pt x="485" y="504" on="1"/>
        <pt x="468" y="508" on="1"/>
        <pt x="413" y="492" on="0"/>
        <pt x="385" y="464" on="1"/>
        <pt x="365" y="444" on="0"/>
        <pt x="365" y="422" on="1"/>
        <pt x="365" y="420" on="0"/>
        <pt x="366" y="414" on="0"/>
        <pt x="366" y="412" on="1"/>
        <pt x="373" y="365" on="0"/>
        <pt x="439" y="299" on="1"/>
        <pt x="453" y="310" on="1"/>
        <pt x="473" y="325" on="0"/>
        <pt x="528" y="370" on="1"/>
        <pt x="588" y="418" on="1"/>
        <pt x="632" y="385" on="0"/>
        <pt x="665" y="340" on="1"/>
        <pt x="669" y="334" on="0"/>
        <pt x="668" y="331" on="1"/>
        <pt x="667" y="331" on="0"/>
        <pt x="628" y="296" on="1"/>
        <pt x="590" y="262" on="1"/>
        <pt x="582" y="274" on="1"/>
        <pt x="557" y="311" on="0"/>
        <pt x="526" y="311" on="1"/>
        <pt x="519" y="311" on="0"/>
        <pt x="462" y="289" on="0"/>
        <pt x="462" y="278" on="1"/>
        <pt x="462" y="276" on="0"/>
        <pt x="501" y="234" on="0"/>
        <pt x="554" y="166" on="0"/>
        <pt x="568" y="136" on="1"/>
        <pt x="581" y="110" on="0"/>
        <pt x="581" y="88" on="1"/>
        <pt x="581" y="32" on="0"/>
        <pt x="527" y="-44" on="0"/>
        <pt x="478" y="-76" on="1"/>
        <pt x="406" y="-126" on="0"/>
        <pt x="333" y="-140" on="1"/>
        <pt x="304" y="-146" on="0"/>
        <pt x="270" y="-146" on="1"/>
        <pt x="196" y="-146" on="0"/>
        <pt x="124" y="-84" on="0"/>
        <pt x="124" y="-15" on="1"/>
        <pt x="124" y="8" on="0"/>
        <pt x="130" y="45" on="1"/>
        <pt x="132" y="61" on="0"/>
        <pt x="132" y="96" on="1"/>
        <pt x="132" y="130" on="0"/>
        <pt x="130" y="137" on="1"/>
        <pt x="120" y="169" on="0"/>
        <pt x="85" y="169" on="1"/>
        <pt x="66" y="169" on="0"/>
        <pt x="34" y="156" on="1"/>
        <pt x="22" y="151" on="0"/>
      </contour>
    </TTGlyph>
    <TTGlyph name="G" xMin="74" yMin="-29" xMax="844" yMax="687">
      <contour>
        <pt x="525" y="610" on="1"/>
        <pt x="626" y="687" on="0"/>
        <pt x="630" y="687" on="1"/>
        <pt x="631" y="687" on="0"/>
        <pt x="636" y="677" on="1"/>
        <pt x="655" y="642" on="0"/>
        <pt x="701" y="611" on="0"/>
        <pt x="742" y="611" on="1"/>
        <pt x="784" y="611" on="0"/>
        <pt x="812" y="631" on="1"/>
        <pt x="812" y="611" on="1"/>
        <pt x="808" y="608" on="1"/>
        <pt x="723" y="549" on="0"/>
        <pt x="629" y="476" on="1"/>
        <pt x="606" y="458" on="1"/>
        <pt x="612" y="457" on="1"/>
        <pt x="710" y="454" on="0"/>
        <pt x="767" y="419" on="1"/>
        <pt x="817" y="388" on="0"/>
        <pt x="836" y="335" on="1"/>
        <pt x="844" y="313" on="0"/>
        <pt x="844" y="289" on="1"/>
        <pt x="844" y="271" on="0"/>
        <pt x="839" y="248" on="1"/>
        <pt x="831" y="207" on="0"/>
        <pt x="779" y="129" on="0"/>
        <pt x="746" y="103" on="1"/>
        <pt x="718" y="80" on="0"/>
        <pt x="669" y="55" on="1"/>
        <pt x="592" y="15" on="0"/>
        <pt x="546" y="-18" on="1"/>
        <pt x="520" y="-21" on="1"/>
        <pt x="456" y="-29" on="0"/>
        <pt x="432" y="-29" on="1"/>
        <pt x="314" y="-29" on="0"/>
        <pt x="223" y="33" on="1"/>
        <pt x="157" y="73" on="0"/>
        <pt x="74" y="231" on="0"/>
        <pt x="74" y="320" on="1"/>
        <pt x="74" y="428" on="0"/>
        <pt x="109" y="480" on="1"/>
        <pt x="116" y="491" on="0"/>
        <pt x="138" y="504" on="0"/>
        <pt x="215" y="546" on="1"/>
        <pt x="308" y="595" on="1"/>
        <pt x="314" y="593" on="0"/>
        <pt x="337" y="585" on="0"/>
        <pt x="343" y="583" on="1"/>
        <pt x="355" y="591" on="1"/>
        <pt x="411" y="629" on="0"/>
        <pt x="473" y="655" on="1"/>
        <pt x="488" y="661" on="0"/>
        <pt x="489" y="660" on="1"/>
        <pt x="491" y="659" on="1"/>
        <pt x="493" y="658" on="0"/>
        <pt x="498" y="656" on="0"/>
        <pt x="500" y="655" on="1"/>
        <pt x="509" y="650" on="1"/>
        <pt x="500" y="645" on="1"/>
        <pt x="441" y="615" on="0"/>
        <pt x="441" y="552" on="1"/>
        <pt x="441" y="538" on="0"/>
        <pt x="453" y="464" on="0"/>
        <pt x="465" y="404" on="0"/>
        <pt x="466" y="405" on="1"/>
        <pt x="507" y="433" on="0"/>
        <pt x="625" y="513" on="1"/>
        <pt x="643" y="526" on="1"/>
        <pt x="637" y="527" on="1"/>
        <pt x="558" y="550" on="0"/>
        <pt x="535" y="586" on="1"/>
        <pt x="525" y="606" on="0"/>
      </contour>
      <contour>
        <pt x="466" y="376" on="1"/>
        <pt x="469" y="364" on="0"/>
        <pt x="469" y="334" on="0"/>
        <pt x="467" y="320" on="1"/>
        <pt x="459" y="282" on="0"/>
        <pt x="408" y="258" on="1"/>
        <pt x="366" y="236" on="0"/>
        <pt x="308" y="219" on="1"/>
        <pt x="288" y="213" on="1"/>
        <pt x="279" y="220" on="1"/>
        <pt x="270" y="227" on="1"/>
        <pt x="302" y="238" on="0"/>
        <pt x="317" y="249" on="1"/>
        <pt x="321" y="252" on="0"/>
        <pt x="336" y="281" on="1"/>
        <pt x="349" y="310" on="0"/>
        <pt x="349" y="313" on="1"/>
        <pt x="349" y="339" on="0"/>
        <pt x="316" y="455" on="1"/>
        <pt x="305" y="497" on="0"/>
        <pt x="305" y="510" on="1"/>
        <pt x="305" y="516" on="1"/>
        <pt x="305" y="525" on="0"/>
        <pt x="317" y="553" on="0"/>
        <pt x="317" y="566" on="1"/>
        <pt x="317" y="567" on="0"/>
        <pt x="315" y="567" on="1"/>
        <pt x="297" y="567" on="0"/>
        <pt x="270" y="548" on="1"/>
        <pt x="228" y="521" on="0"/>
        <pt x="191" y="449" on="0"/>
        <pt x="191" y="392" on="1"/>
        <pt x="191" y="273" on="0"/>
        <pt x="264" y="178" on="1"/>
        <pt x="292" y="146" on="0"/>
        <pt x="316" y="128" on="1"/>
        <pt x="392" y="65" on="0"/>
        <pt x="497" y="53" on="1"/>
        <pt x="507" y="51" on="0"/>
        <pt x="535" y="51" on="1"/>
        <pt x="617" y="51" on="0"/>
        <pt x="718" y="140" on="0"/>
        <pt x="718" y="217" on="1"/>
        <pt x="718" y="289" on="0"/>
        <pt x="670" y="337" on="1"/>
        <pt x="626" y="381" on="0"/>
        <pt x="535" y="381" on="1"/>
        <pt x="501" y="381" on="0"/>
        <pt x="477" y="377" on="1"/>
      </contour>
    </TTGlyph>
    <TTGlyph name="H" xMin="6" yMin="-126" xMax="752" yMax="683">
      <contour>
        <pt x="263" y="73" on="1"/>
        <pt x="288" y="111" on="0"/>
        <pt x="288" y="139" on="1"/>
        <pt x="288" y="144" on="0"/>
        <pt x="286" y="156" on="1"/>
        <pt x="278" y="193" on="0"/>
        <pt x="221" y="281" on="1"/>
        <pt x="162" y="371" on="0"/>
        <pt x="157" y="428" on="1"/>
        <pt x="157" y="431" on="0"/>
        <pt x="156" y="440" on="0"/>
        <pt x="156" y="442" on="1"/>
        <pt x="156" y="462" on="0"/>
        <pt x="166" y="483" on="1"/>
        <pt x="186" y="524" on="0"/>
        <pt x="242" y="579" on="1"/>
        <pt x="289" y="625" on="0"/>
        <pt x="361" y="668" on="1"/>
        <pt x="364" y="671" on="0"/>
        <pt x="373" y="676" on="0"/>
        <pt x="379" y="680" on="0"/>
        <pt x="380" y="681" on="1"/>
        <pt x="384" y="683" on="1"/>
        <pt x="386" y="683" on="0"/>
        <pt x="391" y="678" on="1"/>
        <pt x="437" y="638" on="0"/>
        <pt x="479" y="625" on="1"/>
        <pt x="494" y="619" on="0"/>
        <pt x="509" y="619" on="1"/>
        <pt x="517" y="619" on="0"/>
        <pt x="521" y="620" on="1"/>
        <pt x="554" y="626" on="0"/>
        <pt x="618" y="668" on="1"/>
        <pt x="625" y="672" on="0"/>
        <pt x="631" y="676" on="0"/>
        <pt x="631" y="675" on="1"/>
        <pt x="632" y="673" on="0"/>
        <pt x="634" y="652" on="0"/>
        <pt x="633" y="651" on="1"/>
        <pt x="629" y="647" on="0"/>
        <pt x="496" y="540" on="0"/>
        <pt x="491" y="539" on="1"/>
        <pt x="471" y="534" on="0"/>
        <pt x="442" y="534" on="1"/>
        <pt x="430" y="534" on="0"/>
        <pt x="425" y="535" on="1"/>
        <pt x="373" y="541" on="0"/>
        <pt x="304" y="581" on="1"/>
        <pt x="291" y="589" on="1"/>
        <pt x="255" y="553" on="0"/>
        <pt x="255" y="529" on="1"/>
        <pt x="255" y="522" on="1"/>
        <pt x="255" y="507" on="0"/>
        <pt x="258" y="497" on="1"/>
        <pt x="265" y="466" on="0"/>
        <pt x="293" y="411" on="1"/>
        <pt x="298" y="402" on="0"/>
        <pt x="321" y="360" on="0"/>
        <pt x="321" y="358" on="0"/>
        <pt x="323" y="358" on="0"/>
        <pt x="325" y="360" on="0"/>
        <pt x="330" y="363" on="0"/>
        <pt x="333" y="366" on="1"/>
        <pt x="386" y="409" on="0"/>
        <pt x="481" y="460" on="1"/>
        <pt x="503" y="472" on="1"/>
        <pt x="543" y="471" on="1"/>
        <pt x="586" y="471" on="0"/>
        <pt x="599" y="470" on="1"/>
        <pt x="692" y="459" on="0"/>
        <pt x="714" y="430" on="1"/>
        <pt x="727" y="414" on="0"/>
        <pt x="740" y="353" on="1"/>
        <pt x="752" y="303" on="0"/>
        <pt x="752" y="245" on="1"/>
        <pt x="752" y="131" on="0"/>
        <pt x="720" y="37" on="1"/>
        <pt x="718" y="30" on="0"/>
        <pt x="711" y="12" on="0"/>
        <pt x="704" y="-6" on="0"/>
        <pt x="703" y="-8" on="1"/>
        <pt x="701" y="-12" on="0"/>
        <pt x="621" y="-62" on="1"/>
        <pt x="542" y="-113" on="0"/>
        <pt x="518" y="-123" on="1"/>
        <pt x="508" y="-126" on="0"/>
        <pt x="493" y="-126" on="1"/>
        <pt x="438" y="-126" on="0"/>
        <pt x="398" y="-86" on="1"/>
        <pt x="427" y="-52" on="1"/>
        <pt x="456" y="-17" on="0"/>
        <pt x="457" y="-17" on="1"/>
        <pt x="460" y="-17" on="0"/>
        <pt x="465" y="-16" on="1"/>
        <pt x="473" y="-16" on="1"/>
        <pt x="478" y="-31" on="0"/>
        <pt x="507" y="-61" on="0"/>
        <pt x="521" y="-66" on="1"/>
        <pt x="528" y="-69" on="0"/>
        <pt x="539" y="-69" on="1"/>
        <pt x="573" y="-69" on="0"/>
        <pt x="599" y="-34" on="1"/>
        <pt x="615" y="-11" on="0"/>
        <pt x="621" y="48" on="1"/>
        <pt x="625" y="80" on="0"/>
        <pt x="625" y="158" on="1"/>
        <pt x="625" y="265" on="0"/>
        <pt x="593" y="358" on="0"/>
        <pt x="532" y="378" on="1"/>
        <pt x="508" y="386" on="0"/>
        <pt x="484" y="386" on="1"/>
        <pt x="433" y="386" on="0"/>
        <pt x="359" y="344" on="1"/>
        <pt x="337" y="331" on="0"/>
        <pt x="337" y="330" on="1"/>
        <pt x="341" y="322" on="0"/>
        <pt x="346" y="313" on="1"/>
        <pt x="375" y="263" on="0"/>
        <pt x="386" y="227" on="1"/>
        <pt x="389" y="215" on="0"/>
        <pt x="389" y="202" on="1"/>
        <pt x="389" y="164" on="0"/>
        <pt x="367" y="139" on="1"/>
        <pt x="362" y="133" on="0"/>
        <pt x="278" y="54" on="1"/>
        <pt x="194" y="-24" on="1"/>
        <pt x="146" y="18" on="0"/>
        <pt x="113" y="28" on="1"/>
        <pt x="103" y="30" on="0"/>
        <pt x="99" y="30" on="1"/>
        <pt x="87" y="30" on="0"/>
        <pt x="69" y="22" on="1"/>
        <pt x="49" y="14" on="0"/>
        <pt x="16" y="-10" on="1"/>
        <pt x="15" y="-11" on="0"/>
        <pt x="13" y="-7" on="0"/>
        <pt x="9" y="0" on="0"/>
        <pt x="7" y="5" on="0"/>
        <pt x="6" y="8" on="1"/>
        <pt x="32" y="35" on="1"/>
        <pt x="101" y="101" on="0"/>
        <pt x="138" y="119" on="1"/>
        <pt x="153" y="126" on="0"/>
        <pt x="169" y="126" on="1"/>
        <pt x="177" y="126" on="0"/>
        <pt x="182" y="125" on="1"/>
        <pt x="218" y="118" on="0"/>
        <pt x="252" y="84" on="1"/>
      </contour>
    </TTGlyph>
    <TTGlyph name="I" xMin="32" yMin="-25" xMax="623" yMax="681">
      <contour>
        <pt x="139" y="640" on="1"/>
        <pt x="189" y="681" on="0"/>
        <pt x="247" y="681" on="1"/>
        <pt x="275" y="681" on="0"/>
        <pt x="283" y="680" on="1"/>
        <pt x="321" y="672" on="0"/>
        <pt x="390" y="647" on="1"/>
        <pt x="466" y="620" on="0"/>
        <pt x="489" y="616" on="1"/>
        <pt x="492" y="615" on="0"/>
        <pt x="500" y="615" on="1"/>
        <pt x="537" y="615" on="0"/>
        <pt x="602" y="660" on="1"/>
        <pt x="612" y="668" on="0"/>
        <pt x="614" y="668" on="1"/>
        <pt x="616" y="665" on="1"/>
        <pt x="618" y="662" on="0"/>
        <pt x="622" y="655" on="0"/>
        <pt x="623" y="654" on="1"/>
        <pt x="607" y="642" on="1"/>
        <pt x="512" y="569" on="0"/>
        <pt x="440" y="534" on="1"/>
        <pt x="427" y="527" on="1"/>
        <pt x="413" y="529" on="1"/>
        <pt x="396" y="533" on="0"/>
        <pt x="320" y="552" on="1"/>
        <pt x="245" y="572" on="0"/>
        <pt x="209" y="572" on="1"/>
        <pt x="140" y="572" on="0"/>
        <pt x="92" y="511" on="1"/>
        <pt x="83" y="499" on="0"/>
        <pt x="60" y="465" on="1"/>
        <pt x="58" y="460" on="0"/>
        <pt x="50" y="460" on="0"/>
        <pt x="41" y="468" on="1"/>
        <pt x="32" y="477" on="1"/>
        <pt x="37" y="487" on="1"/>
        <pt x="93" y="596" on="0"/>
      </contour>
      <contour>
        <pt x="51" y="-12" on="1"/>
        <pt x="46" y="-8" on="0"/>
        <pt x="38" y="2" on="1"/>
        <pt x="55" y="18" on="1"/>
        <pt x="106" y="67" on="0"/>
        <pt x="175" y="122" on="1"/>
        <pt x="192" y="136" on="1"/>
        <pt x="202" y="130" on="0"/>
        <pt x="206" y="123" on="1"/>
        <pt x="223" y="91" on="0"/>
        <pt x="252" y="61" on="1"/>
        <pt x="267" y="46" on="0"/>
        <pt x="278" y="38" on="0"/>
        <pt x="301" y="30" on="0"/>
        <pt x="320" y="30" on="1"/>
        <pt x="359" y="30" on="0"/>
        <pt x="389" y="68" on="1"/>
        <pt x="415" y="102" on="0"/>
        <pt x="418" y="170" on="1"/>
        <pt x="418" y="187" on="0"/>
        <pt x="408" y="273" on="1"/>
        <pt x="401" y="341" on="0"/>
        <pt x="401" y="382" on="1"/>
        <pt x="403" y="418" on="0"/>
        <pt x="403" y="424" on="1"/>
        <pt x="405" y="433" on="1"/>
        <pt x="415" y="444" on="1"/>
        <pt x="482" y="515" on="0"/>
        <pt x="571" y="571" on="1"/>
        <pt x="582" y="578" on="1"/>
        <pt x="597" y="570" on="0"/>
        <pt x="607" y="568" on="1"/>
        <pt x="597" y="560" on="1"/>
        <pt x="538" y="516" on="0"/>
        <pt x="525" y="474" on="1"/>
        <pt x="522" y="465" on="0"/>
        <pt x="522" y="450" on="1"/>
        <pt x="522" y="425" on="0"/>
        <pt x="534" y="353" on="1"/>
        <pt x="545" y="288" on="0"/>
        <pt x="545" y="241" on="1"/>
        <pt x="545" y="228" on="1"/>
        <pt x="545" y="190" on="0"/>
        <pt x="534" y="157" on="1"/>
        <pt x="523" y="123" on="0"/>
        <pt x="484" y="75" on="0"/>
        <pt x="446" y="48" on="1"/>
        <pt x="343" y="-25" on="0"/>
        <pt x="238" y="-25" on="1"/>
        <pt x="179" y="-25" on="0"/>
        <pt x="118" y="15" on="1"/>
        <pt x="107" y="22" on="1"/>
        <pt x="79" y="5" on="1"/>
        <pt x="51" y="-12" on="0"/>
      </contour>
    </TTGlyph>
    <TTGlyph name="J" xMin="-7" yMin="-141" xMax="616" yMax="680">
      <contour>
        <pt x="191" y="657" on="1"/>
        <pt x="232" y="680" on="0"/>
        <pt x="274" y="680" on="1"/>
        <pt x="296" y="680" on="0"/>
        <pt x="332" y="662" on="1"/>
        <pt x="360" y="647" on="0"/>
        <pt x="388" y="629" on="1"/>
        <pt x="468" y="576" on="0"/>
        <pt x="503" y="576" on="1"/>
        <pt x="530" y="576" on="0"/>
        <pt x="596" y="600" on="1"/>
        <pt x="615" y="607" on="0"/>
        <pt x="616" y="607" on="1"/>
        <pt x="616" y="602" on="0"/>
        <pt x="615" y="596" on="1"/>
        <pt x="615" y="585" on="1"/>
        <pt x="608" y="582" on="1"/>
        <pt x="509" y="536" on="0"/>
        <pt x="418" y="509" on="1"/>
        <pt x="400" y="503" on="1"/>
        <pt x="358" y="522" on="1"/>
        <pt x="346" y="528" on="0"/>
        <pt x="302" y="550" on="0"/>
        <pt x="277" y="561" on="0"/>
        <pt x="241" y="574" on="0"/>
        <pt x="224" y="577" on="1"/>
        <pt x="220" y="578" on="0"/>
        <pt x="201" y="578" on="1"/>
        <pt x="168" y="578" on="0"/>
        <pt x="141" y="560" on="1"/>
        <pt x="115" y="539" on="0"/>
        <pt x="88" y="502" on="1"/>
        <pt x="83" y="496" on="1"/>
        <pt x="82" y="496" on="0"/>
        <pt x="65" y="509" on="0"/>
        <pt x="65" y="511" on="0"/>
        <pt x="77" y="531" on="0"/>
        <pt x="93" y="557" on="0"/>
        <pt x="97" y="563" on="1"/>
        <pt x="144" y="631" on="0"/>
      </contour>
      <contour>
        <pt x="530" y="514" on="1"/>
        <pt x="546" y="525" on="0"/>
        <pt x="547" y="525" on="1"/>
        <pt x="549" y="524" on="1"/>
        <pt x="551" y="524" on="0"/>
        <pt x="557" y="522" on="0"/>
        <pt x="560" y="521" on="1"/>
        <pt x="571" y="517" on="1"/>
        <pt x="552" y="498" on="1"/>
        <pt x="515" y="461" on="0"/>
        <pt x="499" y="430" on="1"/>
        <pt x="485" y="399" on="0"/>
        <pt x="485" y="366" on="1"/>
        <pt x="485" y="319" on="0"/>
        <pt x="503" y="262" on="1"/>
        <pt x="521" y="198" on="0"/>
        <pt x="528" y="169" on="1"/>
        <pt x="539" y="119" on="0"/>
        <pt x="539" y="84" on="1"/>
        <pt x="539" y="43" on="0"/>
        <pt x="523" y="3" on="1"/>
        <pt x="500" y="-47" on="0"/>
        <pt x="455" y="-80" on="1"/>
        <pt x="391" y="-127" on="0"/>
        <pt x="316" y="-139" on="1"/>
        <pt x="303" y="-141" on="0"/>
        <pt x="273" y="-141" on="1"/>
        <pt x="221" y="-141" on="0"/>
        <pt x="195" y="-130" on="1"/>
        <pt x="153" y="-112" on="0"/>
        <pt x="134" y="-59" on="1"/>
        <pt x="128" y="-40" on="0"/>
        <pt x="123" y="-9" on="1"/>
        <pt x="114" y="41" on="0"/>
        <pt x="105" y="55" on="1"/>
        <pt x="93" y="75" on="0"/>
        <pt x="59" y="75" on="1"/>
        <pt x="39" y="75" on="0"/>
        <pt x="15" y="65" on="1"/>
        <pt x="1" y="59" on="1"/>
        <pt x="-8" y="76" on="0"/>
        <pt x="-7" y="77" on="1"/>
        <pt x="-7" y="81" on="0"/>
        <pt x="36" y="104" on="1"/>
        <pt x="110" y="149" on="0"/>
        <pt x="170" y="149" on="1"/>
        <pt x="218" y="149" on="0"/>
        <pt x="234" y="125" on="1"/>
        <pt x="242" y="112" on="0"/>
        <pt x="242" y="43" on="1"/>
        <pt x="242" y="-13" on="0"/>
        <pt x="243" y="-18" on="1"/>
        <pt x="247" y="-54" on="0"/>
        <pt x="289" y="-105" on="0"/>
        <pt x="325" y="-105" on="1"/>
        <pt x="364" y="-105" on="0"/>
        <pt x="396" y="-75" on="1"/>
        <pt x="424" y="-47" on="0"/>
        <pt x="424" y="4" on="1"/>
        <pt x="424" y="30" on="0"/>
        <pt x="416" y="68" on="1"/>
        <pt x="408" y="104" on="0"/>
        <pt x="391" y="164" on="1"/>
        <pt x="373" y="222" on="0"/>
        <pt x="367" y="268" on="1"/>
        <pt x="365" y="280" on="0"/>
        <pt x="365" y="313" on="1"/>
        <pt x="365" y="357" on="0"/>
        <pt x="370" y="363" on="1"/>
        <pt x="373" y="369" on="0"/>
        <pt x="405" y="403" on="1"/>
        <pt x="461" y="465" on="0"/>
      </contour>
    </TTGlyph>
    <TTGlyph name="K" xMin="20" yMin="-26" xMax="806" yMax="681">
      <contour>
        <pt x="190" y="48" on="1"/>
        <pt x="211" y="48" on="0"/>
        <pt x="234" y="82" on="0"/>
        <pt x="234" y="109" on="1"/>
        <pt x="234" y="128" on="0"/>
        <pt x="233" y="134" on="1"/>
        <pt x="225" y="169" on="0"/>
        <pt x="199" y="233" on="1"/>
        <pt x="159" y="331" on="0"/>
        <pt x="154" y="388" on="1"/>
        <pt x="154" y="391" on="0"/>
        <pt x="153" y="402" on="0"/>
        <pt x="153" y="404" on="1"/>
        <pt x="153" y="445" on="0"/>
        <pt x="180" y="490" on="1"/>
        <pt x="214" y="544" on="0"/>
        <pt x="277" y="594" on="1"/>
        <pt x="372" y="670" on="0"/>
        <pt x="499" y="681" on="1"/>
        <pt x="517" y="681" on="1"/>
        <pt x="612" y="681" on="0"/>
        <pt x="661" y="658" on="1"/>
        <pt x="683" y="647" on="0"/>
        <pt x="715" y="616" on="0"/>
        <pt x="717" y="604" on="1"/>
        <pt x="700" y="490" on="0"/>
        <pt x="699" y="490" on="1"/>
        <pt x="690" y="489" on="1"/>
        <pt x="681" y="488" on="0"/>
        <pt x="679" y="488" on="1"/>
        <pt x="675" y="488" on="0"/>
        <pt x="670" y="500" on="1"/>
        <pt x="643" y="556" on="0"/>
        <pt x="526" y="620" on="0"/>
        <pt x="446" y="620" on="1"/>
        <pt x="383" y="620" on="0"/>
        <pt x="292" y="579" on="0"/>
        <pt x="275" y="544" on="1"/>
        <pt x="262" y="518" on="0"/>
        <pt x="262" y="487" on="1"/>
        <pt x="262" y="433" on="0"/>
        <pt x="283" y="370" on="1"/>
        <pt x="285" y="362" on="1"/>
        <pt x="295" y="371" on="1"/>
        <pt x="394" y="467" on="0"/>
        <pt x="488" y="494" on="1"/>
        <pt x="517" y="502" on="0"/>
        <pt x="538" y="502" on="1"/>
        <pt x="577" y="502" on="0"/>
        <pt x="615" y="466" on="0"/>
        <pt x="627" y="428" on="1"/>
        <pt x="644" y="379" on="0"/>
        <pt x="664" y="359" on="0"/>
        <pt x="682" y="360" on="1"/>
        <pt x="695" y="360" on="0"/>
        <pt x="727" y="369" on="1"/>
        <pt x="724" y="357" on="1"/>
        <pt x="724" y="354" on="0"/>
        <pt x="723" y="348" on="0"/>
        <pt x="722" y="346" on="1"/>
        <pt x="722" y="344" on="1"/>
        <pt x="559" y="289" on="0"/>
        <pt x="539" y="283" on="1"/>
        <pt x="579" y="273" on="0"/>
        <pt x="589" y="271" on="1"/>
        <pt x="615" y="265" on="1"/>
        <pt x="637" y="189" on="1"/>
        <pt x="662" y="109" on="0"/>
        <pt x="663" y="108" on="1"/>
        <pt x="668" y="97" on="0"/>
        <pt x="682" y="84" on="1"/>
        <pt x="698" y="68" on="0"/>
        <pt x="722" y="68" on="1"/>
        <pt x="730" y="68" on="1"/>
        <pt x="763" y="68" on="0"/>
        <pt x="799" y="91" on="1"/>
        <pt x="803" y="80" on="1"/>
        <pt x="806" y="70" on="1"/>
        <pt x="791" y="56" on="0"/>
        <pt x="760" y="33" on="1"/>
        <pt x="679" y="-26" on="0"/>
        <pt x="631" y="-26" on="1"/>
        <pt x="597" y="-26" on="0"/>
        <pt x="578" y="-8" on="1"/>
        <pt x="548" y="25" on="0"/>
        <pt x="536" y="92" on="1"/>
        <pt x="518" y="185" on="0"/>
        <pt x="489" y="211" on="1"/>
        <pt x="476" y="224" on="0"/>
        <pt x="428" y="224" on="1"/>
        <pt x="398" y="224" on="0"/>
        <pt x="353" y="213" on="1"/>
        <pt x="348" y="212" on="0"/>
        <pt x="337" y="209" on="0"/>
        <pt x="334" y="208" on="1"/>
        <pt x="331" y="207" on="1"/>
        <pt x="331" y="205" on="0"/>
        <pt x="331" y="196" on="0"/>
        <pt x="332" y="180" on="0"/>
        <pt x="332" y="178" on="1"/>
        <pt x="332" y="158" on="0"/>
        <pt x="325" y="116" on="1"/>
        <pt x="305" y="96" on="1"/>
        <pt x="269" y="60" on="0"/>
        <pt x="240" y="38" on="1"/>
        <pt x="200" y="4" on="0"/>
        <pt x="168" y="-11" on="1"/>
        <pt x="149" y="-21" on="0"/>
        <pt x="123" y="-21" on="1"/>
        <pt x="101" y="-21" on="0"/>
        <pt x="83" y="-14" on="1"/>
        <pt x="56" y="-5" on="0"/>
        <pt x="33" y="18" on="1"/>
        <pt x="20" y="32" on="1"/>
        <pt x="62" y="74" on="1"/>
        <pt x="96" y="107" on="0"/>
        <pt x="109" y="118" on="0"/>
        <pt x="116" y="118" on="1"/>
        <pt x="120" y="118" on="0"/>
        <pt x="122" y="113" on="1"/>
        <pt x="151" y="48" on="0"/>
      </contour>
      <contour>
        <pt x="493" y="412" on="1"/>
        <pt x="473" y="432" on="0"/>
        <pt x="450" y="432" on="1"/>
        <pt x="380" y="432" on="0"/>
        <pt x="313" y="333" on="1"/>
        <pt x="300" y="314" on="1"/>
        <pt x="304" y="299" on="1"/>
        <pt x="306" y="294" on="0"/>
        <pt x="313" y="266" on="0"/>
        <pt x="315" y="260" on="1"/>
        <pt x="321" y="235" on="1"/>
        <pt x="371" y="252" on="0"/>
        <pt x="431" y="274" on="1"/>
        <pt x="542" y="313" on="1"/>
        <pt x="531" y="324" on="0"/>
        <pt x="519" y="367" on="1"/>
        <pt x="509" y="397" on="0"/>
      </contour>
    </TTGlyph>
    <TTGlyph name="L" xMin="30" yMin="-28" xMax="764" yMax="683">
      <contour>
        <pt x="538" y="542" on="1"/>
        <pt x="536" y="583" on="0"/>
        <pt x="466" y="628" on="0"/>
        <pt x="418" y="628" on="1"/>
        <pt x="319" y="628" on="0"/>
        <pt x="297" y="550" on="1"/>
        <pt x="295" y="541" on="0"/>
        <pt x="295" y="523" on="1"/>
        <pt x="295" y="498" on="0"/>
        <pt x="303" y="470" on="1"/>
        <pt x="308" y="454" on="0"/>
        <pt x="331" y="406" on="1"/>
        <pt x="361" y="348" on="0"/>
        <pt x="369" y="309" on="1"/>
        <pt x="372" y="282" on="0"/>
        <pt x="372" y="276" on="1"/>
        <pt x="372" y="269" on="0"/>
        <pt x="371" y="267" on="1"/>
        <pt x="371" y="264" on="0"/>
        <pt x="318" y="206" on="1"/>
        <pt x="264" y="149" on="1"/>
        <pt x="264" y="148" on="0"/>
        <pt x="408" y="105" on="0"/>
        <pt x="423" y="101" on="1"/>
        <pt x="472" y="88" on="0"/>
        <pt x="520" y="85" on="1"/>
        <pt x="544" y="82" on="0"/>
        <pt x="577" y="82" on="1"/>
        <pt x="707" y="82" on="0"/>
        <pt x="741" y="198" on="1"/>
        <pt x="744" y="206" on="0"/>
        <pt x="744" y="209" on="1"/>
        <pt x="744" y="214" on="0"/>
        <pt x="764" y="199" on="1"/>
        <pt x="764" y="198" on="0"/>
        <pt x="756" y="171" on="0"/>
        <pt x="746" y="136" on="0"/>
        <pt x="744" y="129" on="1"/>
        <pt x="712" y="41" on="0"/>
        <pt x="680" y="13" on="1"/>
        <pt x="628" y="-28" on="0"/>
        <pt x="566" y="-28" on="1"/>
        <pt x="511" y="-28" on="0"/>
        <pt x="446" y="-15" on="1"/>
        <pt x="389" y="-4" on="0"/>
        <pt x="287" y="31" on="1"/>
        <pt x="194" y="61" on="0"/>
        <pt x="165" y="65" on="1"/>
        <pt x="163" y="65" on="0"/>
        <pt x="155" y="66" on="0"/>
        <pt x="153" y="66" on="1"/>
        <pt x="120" y="66" on="0"/>
        <pt x="99" y="47" on="1"/>
        <pt x="88" y="37" on="0"/>
        <pt x="61" y="2" on="1"/>
        <pt x="47" y="-16" on="1"/>
        <pt x="46" y="-17" on="0"/>
        <pt x="30" y="-5" on="1"/>
        <pt x="39" y="13" on="1"/>
        <pt x="84" y="100" on="0"/>
        <pt x="138" y="148" on="1"/>
        <pt x="147" y="156" on="1"/>
        <pt x="161" y="157" on="1"/>
        <pt x="182" y="160" on="0"/>
        <pt x="208" y="165" on="0"/>
        <pt x="242" y="175" on="0"/>
        <pt x="261" y="189" on="0"/>
        <pt x="276" y="211" on="0"/>
        <pt x="277" y="226" on="1"/>
        <pt x="277" y="236" on="0"/>
        <pt x="275" y="243" on="1"/>
        <pt x="266" y="269" on="0"/>
        <pt x="224" y="334" on="1"/>
        <pt x="205" y="362" on="0"/>
        <pt x="195" y="384" on="1"/>
        <pt x="178" y="421" on="0"/>
        <pt x="178" y="449" on="1"/>
        <pt x="178" y="458" on="0"/>
        <pt x="179" y="462" on="1"/>
        <pt x="183" y="493" on="0"/>
        <pt x="241" y="572" on="0"/>
        <pt x="284" y="607" on="1"/>
        <pt x="382" y="683" on="0"/>
        <pt x="532" y="683" on="1"/>
        <pt x="591" y="683" on="0"/>
        <pt x="628" y="666" on="1"/>
        <pt x="668" y="644" on="0"/>
        <pt x="668" y="583" on="1"/>
        <pt x="668" y="573" on="0"/>
        <pt x="663" y="520" on="0"/>
        <pt x="663" y="509" on="1"/>
        <pt x="663" y="477" on="0"/>
        <pt x="683" y="460" on="1"/>
        <pt x="691" y="452" on="0"/>
        <pt x="719" y="452" on="1"/>
        <pt x="738" y="450" on="1"/>
        <pt x="732" y="437" on="0"/>
        <pt x="729" y="437" on="1"/>
        <pt x="728" y="437" on="0"/>
        <pt x="576" y="394" on="0"/>
        <pt x="573" y="394" on="1"/>
        <pt x="553" y="394" on="0"/>
        <pt x="527" y="424" on="0"/>
        <pt x="527" y="444" on="1"/>
        <pt x="527" y="450" on="0"/>
        <pt x="530" y="469" on="1"/>
        <pt x="538" y="513" on="0"/>
      </contour>
    </TTGlyph>
    <TTGlyph name="M" xMin="27" yMin="-32" xMax="1232" yMax="683">
      <contour>
        <pt x="947" y="609" on="1"/>
        <pt x="914" y="609" on="0"/>
        <pt x="842" y="565" on="0"/>
        <pt x="820" y="537" on="1"/>
        <pt x="821" y="524" on="1"/>
        <pt x="825" y="484" on="0"/>
        <pt x="825" y="448" on="1"/>
        <pt x="825" y="269" on="0"/>
        <pt x="768" y="155" on="1"/>
        <pt x="759" y="137" on="1"/>
        <pt x="679" y="59" on="1"/>
        <pt x="604" y="-13" on="0"/>
        <pt x="589" y="-28" on="1"/>
        <pt x="579" y="-20" on="1"/>
        <pt x="558" y="-2" on="0"/>
        <pt x="538" y="8" on="1"/>
        <pt x="521" y="17" on="0"/>
        <pt x="507" y="17" on="1"/>
        <pt x="474" y="17" on="0"/>
        <pt x="449" y="-7" on="1"/>
        <pt x="436" y="-18" on="1"/>
        <pt x="434" y="-15" on="0"/>
        <pt x="426" y="-1" on="0"/>
        <pt x="424" y="2" on="1"/>
        <pt x="441" y="20" on="1"/>
        <pt x="487" y="70" on="0"/>
        <pt x="518" y="99" on="0"/>
        <pt x="535" y="107" on="1"/>
        <pt x="557" y="117" on="0"/>
        <pt x="576" y="117" on="1"/>
        <pt x="583" y="117" on="0"/>
        <pt x="586" y="116" on="1"/>
        <pt x="610" y="109" on="0"/>
        <pt x="639" y="86" on="1"/>
        <pt x="648" y="81" on="0"/>
        <pt x="648" y="81" on="1"/>
        <pt x="650" y="82" on="0"/>
        <pt x="665" y="106" on="0"/>
        <pt x="668" y="112" on="1"/>
        <pt x="711" y="200" on="0"/>
        <pt x="711" y="373" on="1"/>
        <pt x="711" y="502" on="0"/>
        <pt x="659" y="556" on="1"/>
        <pt x="632" y="583" on="0"/>
        <pt x="600" y="583" on="1"/>
        <pt x="587" y="583" on="0"/>
        <pt x="581" y="581" on="1"/>
        <pt x="550" y="571" on="0"/>
        <pt x="522" y="544" on="1"/>
        <pt x="516" y="539" on="1"/>
        <pt x="519" y="523" on="1"/>
        <pt x="527" y="485" on="0"/>
        <pt x="527" y="461" on="1"/>
        <pt x="527" y="444" on="0"/>
        <pt x="522" y="407" on="1"/>
        <pt x="506" y="266" on="0"/>
        <pt x="447" y="150" on="1"/>
        <pt x="437" y="130" on="1"/>
        <pt x="363" y="79" on="0"/>
        <pt x="217" y="-25" on="1"/>
        <pt x="208" y="-15" on="1"/>
        <pt x="165" y="28" on="0"/>
        <pt x="126" y="28" on="1"/>
        <pt x="94" y="28" on="0"/>
        <pt x="62" y="1" on="1"/>
        <pt x="59" y="-2" on="0"/>
        <pt x="53" y="-7" on="0"/>
        <pt x="49" y="-11" on="0"/>
        <pt x="47" y="-12" on="1"/>
        <pt x="45" y="-14" on="1"/>
        <pt x="44" y="-16" on="0"/>
        <pt x="36" y="-8" on="1"/>
        <pt x="28" y="0" on="1"/>
        <pt x="44" y="17" on="1"/>
        <pt x="100" y="78" on="0"/>
        <pt x="125" y="97" on="1"/>
        <pt x="147" y="112" on="0"/>
        <pt x="166" y="117" on="1"/>
        <pt x="182" y="123" on="0"/>
        <pt x="204" y="123" on="1"/>
        <pt x="239" y="123" on="0"/>
        <pt x="284" y="78" on="1"/>
        <pt x="295" y="67" on="1"/>
        <pt x="309" y="74" on="0"/>
        <pt x="337" y="102" on="1"/>
        <pt x="400" y="177" on="0"/>
        <pt x="400" y="346" on="1"/>
        <pt x="400" y="509" on="0"/>
        <pt x="325" y="571" on="1"/>
        <pt x="283" y="607" on="0"/>
        <pt x="237" y="616" on="1"/>
        <pt x="225" y="618" on="0"/>
        <pt x="208" y="618" on="1"/>
        <pt x="180" y="618" on="0"/>
        <pt x="155" y="609" on="0"/>
        <pt x="140" y="594" on="1"/>
        <pt x="124" y="578" on="0"/>
        <pt x="124" y="550" on="0"/>
        <pt x="137" y="531" on="1"/>
        <pt x="150" y="513" on="0"/>
        <pt x="179" y="483" on="1"/>
        <pt x="210" y="453" on="0"/>
        <pt x="223" y="433" on="1"/>
        <pt x="240" y="408" on="0"/>
        <pt x="240" y="396" on="1"/>
        <pt x="240" y="359" on="0"/>
        <pt x="197" y="321" on="1"/>
        <pt x="154" y="285" on="0"/>
        <pt x="94" y="252" on="1"/>
        <pt x="80" y="245" on="1"/>
        <pt x="76" y="248" on="1"/>
        <pt x="67" y="257" on="1"/>
        <pt x="61" y="262" on="1"/>
        <pt x="71" y="268" on="1"/>
        <pt x="134" y="305" on="0"/>
        <pt x="134" y="338" on="1"/>
        <pt x="134" y="341" on="0"/>
        <pt x="132" y="349" on="1"/>
        <pt x="123" y="369" on="0"/>
        <pt x="85" y="413" on="1"/>
        <pt x="48" y="453" on="0"/>
        <pt x="35" y="477" on="1"/>
        <pt x="27" y="493" on="0"/>
        <pt x="27" y="504" on="1"/>
        <pt x="27" y="516" on="0"/>
        <pt x="34" y="530" on="1"/>
        <pt x="55" y="568" on="0"/>
        <pt x="110" y="615" on="1"/>
        <pt x="189" y="683" on="0"/>
        <pt x="305" y="683" on="1"/>
        <pt x="345" y="683" on="0"/>
        <pt x="353" y="682" on="1"/>
        <pt x="452" y="666" on="0"/>
        <pt x="495" y="580" on="1"/>
        <pt x="501" y="569" on="1"/>
        <pt x="512" y="577" on="1"/>
        <pt x="595" y="637" on="0"/>
        <pt x="666" y="645" on="1"/>
        <pt x="671" y="646" on="0"/>
        <pt x="681" y="646" on="1"/>
        <pt x="758" y="646" on="0"/>
        <pt x="801" y="585" on="1"/>
        <pt x="808" y="576" on="1"/>
        <pt x="816" y="583" on="1"/>
        <pt x="890" y="645" on="0"/>
        <pt x="967" y="669" on="1"/>
        <pt x="1006" y="682" on="0"/>
        <pt x="1041" y="682" on="1"/>
        <pt x="1060" y="682" on="0"/>
        <pt x="1075" y="677" on="1"/>
        <pt x="1086" y="673" on="0"/>
        <pt x="1102" y="652" on="0"/>
        <pt x="1118" y="620" on="1"/>
        <pt x="1150" y="568" on="0"/>
        <pt x="1170" y="559" on="1"/>
        <pt x="1178" y="555" on="0"/>
        <pt x="1189" y="555" on="1"/>
        <pt x="1201" y="555" on="0"/>
        <pt x="1228" y="564" on="1"/>
        <pt x="1230" y="565" on="0"/>
        <pt x="1231" y="562" on="1"/>
        <pt x="1231" y="560" on="0"/>
        <pt x="1232" y="554" on="1"/>
        <pt x="1232" y="547" on="1"/>
        <pt x="1215" y="538" on="1"/>
        <pt x="1179" y="521" on="0"/>
        <pt x="1114" y="475" on="1"/>
        <pt x="1091" y="459" on="0"/>
        <pt x="1088" y="452" on="1"/>
        <pt x="1079" y="433" on="0"/>
        <pt x="1079" y="339" on="1"/>
        <pt x="1079" y="296" on="0"/>
        <pt x="1081" y="268" on="1"/>
        <pt x="1092" y="109" on="0"/>
        <pt x="1145" y="81" on="1"/>
        <pt x="1152" y="77" on="0"/>
        <pt x="1166" y="77" on="0"/>
        <pt x="1196" y="86" on="1"/>
        <pt x="1199" y="87" on="0"/>
        <pt x="1206" y="90" on="0"/>
        <pt x="1212" y="92" on="0"/>
        <pt x="1216" y="93" on="0"/>
        <pt x="1218" y="94" on="1"/>
        <pt x="1219" y="94" on="1"/>
        <pt x="1220" y="94" on="0"/>
        <pt x="1223" y="77" on="0"/>
        <pt x="1222" y="76" on="1"/>
        <pt x="1045" y="-32" on="1"/>
        <pt x="1044" y="-32" on="0"/>
        <pt x="1004" y="15" on="1"/>
        <pt x="964" y="64" on="1"/>
        <pt x="964" y="167" on="1"/>
        <pt x="965" y="334" on="0"/>
        <pt x="970" y="372" on="1"/>
        <pt x="970" y="378" on="1"/>
        <pt x="994" y="402" on="1"/>
        <pt x="1032" y="440" on="0"/>
        <pt x="1057" y="460" on="1"/>
        <pt x="1058" y="461" on="0"/>
        <pt x="1059" y="462" on="1"/>
        <pt x="1069" y="470" on="0"/>
        <pt x="1069" y="471" on="1"/>
        <pt x="1059" y="474" on="0"/>
        <pt x="1050" y="481" on="1"/>
        <pt x="1040" y="488" on="0"/>
        <pt x="1018" y="538" on="1"/>
        <pt x="1004" y="572" on="0"/>
        <pt x="996" y="583" on="1"/>
        <pt x="979" y="609" on="0"/>
      </contour>
    </TTGlyph>
    <TTGlyph name="N" xMin="26" yMin="-30" xMax="973" yMax="679">
      <contour>
        <pt x="241" y="128" on="1"/>
        <pt x="275" y="57" on="0"/>
        <pt x="332" y="57" on="1"/>
        <pt x="357" y="57" on="0"/>
        <pt x="391" y="80" on="1"/>
        <pt x="414" y="99" on="0"/>
        <pt x="428" y="166" on="0"/>
        <pt x="428" y="227" on="1"/>
        <pt x="428" y="447" on="0"/>
        <pt x="329" y="551" on="1"/>
        <pt x="267" y="615" on="0"/>
        <pt x="196" y="615" on="1"/>
        <pt x="138" y="615" on="0"/>
        <pt x="124" y="581" on="1"/>
        <pt x="118" y="569" on="0"/>
        <pt x="118" y="558" on="1"/>
        <pt x="118" y="541" on="0"/>
        <pt x="135" y="517" on="1"/>
        <pt x="147" y="498" on="0"/>
        <pt x="178" y="466" on="1"/>
        <pt x="232" y="411" on="0"/>
        <pt x="232" y="385" on="1"/>
        <pt x="232" y="373" on="0"/>
        <pt x="226" y="361" on="1"/>
        <pt x="220" y="347" on="0"/>
        <pt x="199" y="325" on="1"/>
        <pt x="171" y="298" on="0"/>
        <pt x="131" y="272" on="1"/>
        <pt x="89" y="243" on="0"/>
        <pt x="83" y="243" on="1"/>
        <pt x="82" y="242" on="0"/>
        <pt x="61" y="257" on="0"/>
        <pt x="61" y="258" on="1"/>
        <pt x="65" y="261" on="0"/>
        <pt x="70" y="264" on="1"/>
        <pt x="125" y="300" on="0"/>
        <pt x="125" y="333" on="1"/>
        <pt x="125" y="336" on="0"/>
        <pt x="123" y="344" on="1"/>
        <pt x="119" y="357" on="0"/>
        <pt x="90" y="388" on="1"/>
        <pt x="42" y="436" on="0"/>
        <pt x="29" y="472" on="1"/>
        <pt x="26" y="480" on="0"/>
        <pt x="26" y="492" on="1"/>
        <pt x="26" y="503" on="0"/>
        <pt x="29" y="512" on="1"/>
        <pt x="44" y="564" on="0"/>
        <pt x="113" y="619" on="1"/>
        <pt x="179" y="670" on="0"/>
        <pt x="273" y="679" on="1"/>
        <pt x="290" y="679" on="1"/>
        <pt x="326" y="679" on="0"/>
        <pt x="335" y="678" on="1"/>
        <pt x="415" y="664" on="0"/>
        <pt x="466" y="602" on="1"/>
        <pt x="485" y="578" on="0"/>
        <pt x="504" y="535" on="1"/>
        <pt x="546" y="577" on="0"/>
        <pt x="582" y="607" on="1"/>
        <pt x="671" y="678" on="0"/>
        <pt x="757" y="678" on="1"/>
        <pt x="817" y="678" on="0"/>
        <pt x="834" y="650" on="1"/>
        <pt x="840" y="638" on="0"/>
        <pt x="852" y="617" on="1"/>
        <pt x="863" y="593" on="0"/>
        <pt x="871" y="580" on="1"/>
        <pt x="885" y="558" on="0"/>
        <pt x="899" y="550" on="1"/>
        <pt x="904" y="548" on="0"/>
        <pt x="916" y="548" on="1"/>
        <pt x="936" y="548" on="0"/>
        <pt x="962" y="556" on="1"/>
        <pt x="967" y="542" on="1"/>
        <pt x="967" y="540" on="0"/>
        <pt x="947" y="531" on="1"/>
        <pt x="887" y="497" on="0"/>
        <pt x="853" y="471" on="1"/>
        <pt x="838" y="460" on="0"/>
        <pt x="838" y="458" on="1"/>
        <pt x="825" y="415" on="0"/>
        <pt x="825" y="328" on="1"/>
        <pt x="825" y="270" on="0"/>
        <pt x="828" y="237" on="1"/>
        <pt x="835" y="156" on="0"/>
        <pt x="858" y="121" on="1"/>
        <pt x="875" y="94" on="0"/>
        <pt x="892" y="77" on="1"/>
        <pt x="898" y="71" on="0"/>
        <pt x="907" y="71" on="1"/>
        <pt x="912" y="71" on="0"/>
        <pt x="944" y="82" on="0"/>
        <pt x="971" y="92" on="0"/>
        <pt x="971" y="91" on="1"/>
        <pt x="972" y="88" on="1"/>
        <pt x="972" y="84" on="0"/>
        <pt x="972" y="81" on="1"/>
        <pt x="973" y="73" on="1"/>
        <pt x="957" y="63" on="1"/>
        <pt x="891" y="21" on="0"/>
        <pt x="806" y="-23" on="1"/>
        <pt x="794" y="-30" on="1"/>
        <pt x="783" y="-14" on="1"/>
        <pt x="766" y="13" on="0"/>
        <pt x="728" y="60" on="1"/>
        <pt x="713" y="79" on="1"/>
        <pt x="713" y="372" on="1"/>
        <pt x="724" y="384" on="1"/>
        <pt x="761" y="426" on="0"/>
        <pt x="800" y="459" on="1"/>
        <pt x="813" y="470" on="0"/>
        <pt x="813" y="471" on="1"/>
        <pt x="809" y="472" on="0"/>
        <pt x="806" y="472" on="1"/>
        <pt x="790" y="477" on="0"/>
        <pt x="778" y="489" on="1"/>
        <pt x="760" y="505" on="0"/>
        <pt x="748" y="536" on="1"/>
        <pt x="732" y="571" on="0"/>
        <pt x="710" y="601" on="0"/>
        <pt x="696" y="608" on="1"/>
        <pt x="683" y="614" on="0"/>
        <pt x="672" y="614" on="1"/>
        <pt x="646" y="614" on="0"/>
        <pt x="622" y="595" on="1"/>
        <pt x="571" y="557" on="0"/>
        <pt x="529" y="502" on="1"/>
        <pt x="522" y="492" on="1"/>
        <pt x="521" y="492" on="0"/>
        <pt x="513" y="513" on="0"/>
        <pt x="512" y="513" on="1"/>
        <pt x="528" y="461" on="0"/>
        <pt x="531" y="446" on="1"/>
        <pt x="542" y="394" on="0"/>
        <pt x="542" y="333" on="1"/>
        <pt x="542" y="226" on="0"/>
        <pt x="503" y="137" on="1"/>
        <pt x="498" y="125" on="1"/>
        <pt x="396" y="53" on="1"/>
        <pt x="294" y="-18" on="0"/>
        <pt x="282" y="-23" on="1"/>
        <pt x="271" y="-27" on="0"/>
        <pt x="260" y="-27" on="1"/>
        <pt x="232" y="-27" on="0"/>
        <pt x="160" y="5" on="0"/>
        <pt x="136" y="29" on="1"/>
        <pt x="145" y="39" on="1"/>
        <pt x="162" y="56" on="0"/>
        <pt x="192" y="89" on="1"/>
        <pt x="230" y="129" on="1"/>
        <pt x="235" y="128" on="1"/>
      </contour>
    </TTGlyph>
    <TTGlyph name="O" xMin="12" yMin="-30" xMax="881" yMax="726">
      <contour>
        <pt x="403" y="725" on="1"/>
        <pt x="406" y="725" on="0"/>
        <pt x="411" y="726" on="1"/>
        <pt x="416" y="726" on="1"/>
        <pt x="417" y="726" on="0"/>
        <pt x="416" y="724" on="1"/>
        <pt x="416" y="723" on="0"/>
        <pt x="415" y="721" on="0"/>
        <pt x="414" y="719" on="1"/>
        <pt x="408" y="707" on="0"/>
        <pt x="408" y="698" on="1"/>
        <pt x="408" y="684" on="0"/>
        <pt x="423" y="679" on="1"/>
        <pt x="435" y="676" on="0"/>
        <pt x="510" y="672" on="1"/>
        <pt x="602" y="667" on="0"/>
        <pt x="663" y="655" on="1"/>
        <pt x="758" y="635" on="0"/>
        <pt x="855" y="551" on="0"/>
        <pt x="873" y="463" on="1"/>
        <pt x="881" y="421" on="0"/>
        <pt x="881" y="380" on="1"/>
        <pt x="881" y="340" on="0"/>
        <pt x="874" y="306" on="1"/>
        <pt x="859" y="223" on="0"/>
        <pt x="809" y="147" on="1"/>
        <pt x="801" y="134" on="0"/>
        <pt x="789" y="124" on="1"/>
        <pt x="681" y="38" on="0"/>
        <pt x="589" y="1" on="1"/>
        <pt x="515" y="-30" on="0"/>
        <pt x="456" y="-30" on="1"/>
        <pt x="426" y="-30" on="0"/>
        <pt x="383" y="-22" on="1"/>
        <pt x="339" y="-13" on="0"/>
        <pt x="274" y="8" on="1"/>
        <pt x="184" y="36" on="0"/>
        <pt x="147" y="36" on="1"/>
        <pt x="126" y="36" on="0"/>
        <pt x="106" y="29" on="1"/>
        <pt x="73" y="17" on="0"/>
        <pt x="36" y="-14" on="1"/>
        <pt x="32" y="-17" on="1"/>
        <pt x="22" y="-7" on="1"/>
        <pt x="12" y="4" on="1"/>
        <pt x="56" y="59" on="1"/>
        <pt x="100" y="114" on="1"/>
        <pt x="116" y="118" on="1"/>
        <pt x="192" y="136" on="0"/>
        <pt x="210" y="170" on="1"/>
        <pt x="217" y="184" on="0"/>
        <pt x="217" y="199" on="1"/>
        <pt x="217" y="217" on="0"/>
        <pt x="203" y="245" on="1"/>
        <pt x="185" y="282" on="0"/>
        <pt x="142" y="335" on="1"/>
        <pt x="108" y="377" on="0"/>
        <pt x="94" y="404" on="1"/>
        <pt x="87" y="423" on="0"/>
        <pt x="87" y="430" on="1"/>
        <pt x="87" y="432" on="0"/>
        <pt x="96" y="445" on="1"/>
        <pt x="148" y="520" on="0"/>
        <pt x="204" y="563" on="1"/>
        <pt x="237" y="586" on="0"/>
        <pt x="254" y="595" on="1"/>
        <pt x="255" y="594" on="0"/>
        <pt x="263" y="587" on="0"/>
        <pt x="269" y="582" on="0"/>
        <pt x="269" y="581" on="1"/>
        <pt x="215" y="548" on="0"/>
        <pt x="207" y="513" on="1"/>
        <pt x="205" y="505" on="0"/>
        <pt x="205" y="502" on="1"/>
        <pt x="205" y="494" on="0"/>
        <pt x="214" y="474" on="1"/>
        <pt x="231" y="437" on="0"/>
        <pt x="283" y="359" on="1"/>
        <pt x="322" y="299" on="0"/>
        <pt x="327" y="285" on="1"/>
        <pt x="328" y="283" on="0"/>
        <pt x="328" y="277" on="1"/>
        <pt x="328" y="260" on="0"/>
        <pt x="317" y="241" on="1"/>
        <pt x="294" y="202" on="0"/>
        <pt x="239" y="150" on="1"/>
        <pt x="221" y="134" on="1"/>
        <pt x="231" y="133" on="1"/>
        <pt x="266" y="130" on="0"/>
        <pt x="394" y="94" on="1"/>
        <pt x="488" y="68" on="0"/>
        <pt x="516" y="62" on="1"/>
        <pt x="567" y="50" on="0"/>
        <pt x="604" y="50" on="1"/>
        <pt x="614" y="50" on="0"/>
        <pt x="626" y="52" on="1"/>
        <pt x="669" y="64" on="0"/>
        <pt x="705" y="117" on="1"/>
        <pt x="753" y="191" on="0"/>
        <pt x="753" y="323" on="1"/>
        <pt x="753" y="454" on="0"/>
        <pt x="692" y="517" on="1"/>
        <pt x="663" y="545" on="0"/>
        <pt x="612" y="558" on="1"/>
        <pt x="572" y="569" on="0"/>
        <pt x="516" y="573" on="1"/>
        <pt x="480" y="575" on="0"/>
        <pt x="357" y="577" on="1"/>
        <pt x="308" y="577" on="1"/>
        <pt x="300" y="591" on="1"/>
        <pt x="292" y="606" on="1"/>
        <pt x="292" y="608" on="0"/>
        <pt x="342" y="665" on="1"/>
        <pt x="392" y="724" on="1"/>
      </contour>
    </TTGlyph>
    <TTGlyph name="P" xMin="33" yMin="-223" xMax="942" yMax="688">
      <contour>
        <pt x="203" y="621" on="1"/>
        <pt x="174" y="621" on="0"/>
        <pt x="127" y="580" on="0"/>
        <pt x="127" y="557" on="1"/>
        <pt x="127" y="532" on="0"/>
        <pt x="190" y="472" on="1"/>
        <pt x="247" y="419" on="0"/>
        <pt x="247" y="398" on="1"/>
        <pt x="247" y="353" on="0"/>
        <pt x="138" y="281" on="1"/>
        <pt x="87" y="247" on="0"/>
        <pt x="83" y="247" on="1"/>
        <pt x="82" y="247" on="0"/>
        <pt x="62" y="260" on="0"/>
        <pt x="61" y="261" on="1"/>
        <pt x="60" y="261" on="0"/>
        <pt x="63" y="263" on="0"/>
        <pt x="66" y="265" on="1"/>
        <pt x="127" y="306" on="0"/>
        <pt x="127" y="343" on="1"/>
        <pt x="127" y="365" on="0"/>
        <pt x="63" y="430" on="1"/>
        <pt x="42" y="451" on="0"/>
        <pt x="33" y="466" on="0"/>
        <pt x="33" y="480" on="1"/>
        <pt x="33" y="490" on="1"/>
        <pt x="33" y="507" on="0"/>
        <pt x="35" y="515" on="1"/>
        <pt x="42" y="538" on="0"/>
        <pt x="63" y="567" on="1"/>
        <pt x="123" y="647" on="0"/>
        <pt x="198" y="672" on="1"/>
        <pt x="240" y="688" on="0"/>
        <pt x="282" y="688" on="1"/>
        <pt x="339" y="688" on="0"/>
        <pt x="384" y="667" on="1"/>
        <pt x="454" y="633" on="0"/>
        <pt x="482" y="566" on="1"/>
        <pt x="483" y="565" on="0"/>
        <pt x="485" y="567" on="0"/>
        <pt x="496" y="574" on="1"/>
        <pt x="562" y="623" on="0"/>
        <pt x="630" y="653" on="1"/>
        <pt x="699" y="681" on="0"/>
        <pt x="751" y="681" on="1"/>
        <pt x="778" y="681" on="0"/>
        <pt x="797" y="673" on="1"/>
        <pt x="818" y="662" on="0"/>
        <pt x="830" y="609" on="1"/>
        <pt x="842" y="541" on="0"/>
        <pt x="880" y="526" on="1"/>
        <pt x="885" y="524" on="0"/>
        <pt x="901" y="524" on="1"/>
        <pt x="919" y="524" on="0"/>
        <pt x="932" y="528" on="1"/>
        <pt x="932" y="527" on="0"/>
        <pt x="938" y="518" on="0"/>
        <pt x="943" y="511" on="0"/>
        <pt x="942" y="511" on="1"/>
        <pt x="934" y="507" on="0"/>
        <pt x="925" y="503" on="1"/>
        <pt x="869" y="477" on="0"/>
        <pt x="836" y="454" on="1"/>
        <pt x="802" y="432" on="0"/>
        <pt x="793" y="413" on="1"/>
        <pt x="789" y="405" on="0"/>
        <pt x="789" y="395" on="1"/>
        <pt x="789" y="360" on="0"/>
        <pt x="827" y="308" on="1"/>
        <pt x="858" y="265" on="0"/>
        <pt x="880" y="221" on="0"/>
        <pt x="880" y="200" on="1"/>
        <pt x="880" y="175" on="0"/>
        <pt x="871" y="153" on="1"/>
        <pt x="862" y="132" on="0"/>
        <pt x="796" y="51" on="0"/>
        <pt x="772" y="33" on="1"/>
        <pt x="731" y="1" on="0"/>
        <pt x="696" y="-12" on="1"/>
        <pt x="672" y="-20" on="0"/>
        <pt x="647" y="-20" on="1"/>
        <pt x="583" y="-20" on="0"/>
        <pt x="499" y="21" on="1"/>
        <pt x="499" y="9" on="1"/>
        <pt x="499" y="-52" on="0"/>
        <pt x="511" y="-124" on="1"/>
        <pt x="512" y="-134" on="0"/>
        <pt x="512" y="-138" on="0"/>
        <pt x="512" y="-141" on="1"/>
        <pt x="480" y="-160" on="0"/>
        <pt x="441" y="-182" on="1"/>
        <pt x="370" y="-223" on="1"/>
        <pt x="357" y="-216" on="1"/>
        <pt x="344" y="-209" on="0"/>
        <pt x="344" y="-208" on="1"/>
        <pt x="348" y="-196" on="1"/>
        <pt x="370" y="-108" on="0"/>
        <pt x="370" y="33" on="1"/>
        <pt x="370" y="52" on="1"/>
        <pt x="355" y="58" on="1"/>
        <pt x="307" y="76" on="0"/>
        <pt x="284" y="76" on="1"/>
        <pt x="246" y="76" on="0"/>
        <pt x="199" y="42" on="1"/>
        <pt x="173" y="21" on="0"/>
        <pt x="141" y="-11" on="1"/>
        <pt x="137" y="-7" on="0"/>
        <pt x="133" y="-2" on="1"/>
        <pt x="126" y="7" on="1"/>
        <pt x="134" y="18" on="1"/>
        <pt x="189" y="99" on="0"/>
        <pt x="219" y="129" on="1"/>
        <pt x="248" y="156" on="0"/>
        <pt x="278" y="170" on="1"/>
        <pt x="304" y="179" on="0"/>
        <pt x="328" y="179" on="1"/>
        <pt x="336" y="179" on="0"/>
        <pt x="358" y="177" on="1"/>
        <pt x="370" y="175" on="1"/>
        <pt x="369" y="227" on="0"/>
        <pt x="368" y="291" on="1"/>
        <pt x="367" y="414" on="0"/>
        <pt x="362" y="441" on="1"/>
        <pt x="346" y="536" on="0"/>
        <pt x="293" y="583" on="1"/>
        <pt x="249" y="621" on="0"/>
      </contour>
      <contour>
        <pt x="744" y="64" on="1"/>
        <pt x="766" y="64" on="0"/>
        <pt x="793" y="90" on="0"/>
        <pt x="793" y="112" on="1"/>
        <pt x="793" y="117" on="0"/>
        <pt x="791" y="127" on="1"/>
        <pt x="784" y="155" on="0"/>
        <pt x="744" y="204" on="1"/>
        <pt x="694" y="267" on="0"/>
        <pt x="685" y="282" on="1"/>
        <pt x="673" y="302" on="0"/>
        <pt x="673" y="315" on="1"/>
        <pt x="673" y="324" on="0"/>
        <pt x="679" y="336" on="1"/>
        <pt x="688" y="353" on="0"/>
        <pt x="750" y="415" on="0"/>
        <pt x="786" y="442" on="1"/>
        <pt x="786" y="443" on="0"/>
        <pt x="765" y="445" on="0"/>
        <pt x="735" y="454" on="0"/>
        <pt x="727" y="462" on="1"/>
        <pt x="719" y="471" on="0"/>
        <pt x="716" y="484" on="1"/>
        <pt x="716" y="496" on="1"/>
        <pt x="715" y="507" on="0"/>
        <pt x="715" y="515" on="1"/>
        <pt x="715" y="518" on="0"/>
        <pt x="714" y="533" on="0"/>
        <pt x="714" y="538" on="0"/>
        <pt x="713" y="552" on="0"/>
        <pt x="712" y="557" on="0"/>
        <pt x="710" y="567" on="0"/>
        <pt x="708" y="573" on="0"/>
        <pt x="704" y="580" on="0"/>
        <pt x="700" y="586" on="0"/>
        <pt x="698" y="588" on="1"/>
        <pt x="680" y="611" on="0"/>
        <pt x="643" y="611" on="1"/>
        <pt x="592" y="611" on="0"/>
        <pt x="547" y="571" on="1"/>
        <pt x="534" y="558" on="0"/>
        <pt x="511" y="522" on="1"/>
        <pt x="499" y="505" on="1"/>
        <pt x="499" y="139" on="1"/>
        <pt x="543" y="123" on="1"/>
        <pt x="649" y="84" on="0"/>
        <pt x="716" y="64" on="0"/>
      </contour>
    </TTGlyph>
    <TTGlyph name="Q" xMin="12" yMin="-83" xMax="918" yMax="726">
      <contour>
        <pt x="403" y="725" on="1"/>
        <pt x="406" y="725" on="0"/>
        <pt x="411" y="726" on="1"/>
        <pt x="416" y="726" on="1"/>
        <pt x="417" y="726" on="0"/>
        <pt x="416" y="724" on="1"/>
        <pt x="416" y="723" on="0"/>
        <pt x="415" y="721" on="0"/>
        <pt x="414" y="719" on="1"/>
        <pt x="408" y="707" on="0"/>
        <pt x="408" y="698" on="1"/>
        <pt x="408" y="684" on="0"/>
        <pt x="423" y="679" on="1"/>
        <pt x="435" y="676" on="0"/>
        <pt x="510" y="672" on="1"/>
        <pt x="602" y="667" on="0"/>
        <pt x="663" y="655" on="1"/>
        <pt x="758" y="635" on="0"/>
        <pt x="855" y="551" on="0"/>
        <pt x="873" y="463" on="1"/>
        <pt x="881" y="421" on="0"/>
        <pt x="881" y="380" on="1"/>
        <pt x="881" y="340" on="0"/>
        <pt x="874" y="306" on="1"/>
        <pt x="859" y="223" on="0"/>
        <pt x="809" y="147" on="1"/>
        <pt x="802" y="134" on="0"/>
        <pt x="791" y="126" on="1"/>
        <pt x="788" y="124" on="0"/>
        <pt x="748" y="97" on="0"/>
        <pt x="715" y="73" on="0"/>
        <pt x="715" y="69" on="1"/>
        <pt x="715" y="66" on="0"/>
        <pt x="758" y="33" on="0"/>
        <pt x="774" y="23" on="1"/>
        <pt x="806" y="2" on="0"/>
        <pt x="832" y="2" on="1"/>
        <pt x="870" y="2" on="0"/>
        <pt x="910" y="15" on="1"/>
        <pt x="917" y="17" on="1"/>
        <pt x="917" y="12" on="0"/>
        <pt x="918" y="6" on="1"/>
        <pt x="918" y="-3" on="1"/>
        <pt x="882" y="-22" on="1"/>
        <pt x="806" y="-60" on="0"/>
        <pt x="778" y="-73" on="1"/>
        <pt x="755" y="-83" on="1"/>
        <pt x="748" y="-80" on="1"/>
        <pt x="660" y="-48" on="0"/>
        <pt x="596" y="-7" on="1"/>
        <pt x="586" y="0" on="1"/>
        <pt x="576" y="-4" on="1"/>
        <pt x="513" y="-30" on="0"/>
        <pt x="457" y="-30" on="1"/>
        <pt x="394" y="-30" on="0"/>
        <pt x="301" y="-1" on="1"/>
        <pt x="224" y="23" on="0"/>
        <pt x="208" y="26" on="1"/>
        <pt x="172" y="35" on="0"/>
        <pt x="149" y="35" on="1"/>
        <pt x="107" y="35" on="0"/>
        <pt x="73" y="11" on="1"/>
        <pt x="50" y="-3" on="0"/>
        <pt x="41" y="-14" on="1"/>
        <pt x="38" y="-17" on="0"/>
        <pt x="36" y="-17" on="1"/>
        <pt x="35" y="-17" on="0"/>
        <pt x="12" y="3" on="0"/>
        <pt x="12" y="4" on="1"/>
        <pt x="56" y="59" on="1"/>
        <pt x="100" y="114" on="1"/>
        <pt x="116" y="118" on="1"/>
        <pt x="192" y="136" on="0"/>
        <pt x="210" y="170" on="1"/>
        <pt x="217" y="184" on="0"/>
        <pt x="217" y="199" on="1"/>
        <pt x="217" y="217" on="0"/>
        <pt x="203" y="245" on="1"/>
        <pt x="185" y="282" on="0"/>
        <pt x="142" y="335" on="1"/>
        <pt x="108" y="377" on="0"/>
        <pt x="94" y="404" on="1"/>
        <pt x="87" y="423" on="0"/>
        <pt x="87" y="430" on="1"/>
        <pt x="87" y="432" on="0"/>
        <pt x="96" y="445" on="1"/>
        <pt x="148" y="520" on="0"/>
        <pt x="204" y="563" on="1"/>
        <pt x="237" y="586" on="0"/>
        <pt x="254" y="595" on="1"/>
        <pt x="255" y="594" on="0"/>
        <pt x="263" y="587" on="0"/>
        <pt x="269" y="582" on="0"/>
        <pt x="269" y="581" on="1"/>
        <pt x="215" y="548" on="0"/>
        <pt x="207" y="513" on="1"/>
        <pt x="205" y="505" on="0"/>
        <pt x="205" y="502" on="1"/>
        <pt x="205" y="494" on="0"/>
        <pt x="214" y="474" on="1"/>
        <pt x="231" y="437" on="0"/>
        <pt x="283" y="359" on="1"/>
        <pt x="322" y="299" on="0"/>
        <pt x="327" y="285" on="1"/>
        <pt x="328" y="283" on="0"/>
        <pt x="328" y="277" on="1"/>
        <pt x="328" y="260" on="0"/>
        <pt x="317" y="241" on="1"/>
        <pt x="294" y="202" on="0"/>
        <pt x="239" y="150" on="1"/>
        <pt x="221" y="134" on="1"/>
        <pt x="231" y="133" on="1"/>
        <pt x="266" y="130" on="0"/>
        <pt x="394" y="94" on="1"/>
        <pt x="488" y="68" on="0"/>
        <pt x="516" y="62" on="1"/>
        <pt x="567" y="50" on="0"/>
        <pt x="604" y="50" on="1"/>
        <pt x="614" y="50" on="0"/>
        <pt x="626" y="52" on="1"/>
        <pt x="669" y="64" on="0"/>
        <pt x="705" y="117" on="1"/>
        <pt x="753" y="191" on="0"/>
        <pt x="753" y="323" on="1"/>
        <pt x="753" y="454" on="0"/>
        <pt x="692" y="517" on="1"/>
        <pt x="663" y="545" on="0"/>
        <pt x="612" y="558" on="1"/>
        <pt x="572" y="569" on="0"/>
        <pt x="516" y="573" on="1"/>
        <pt x="480" y="575" on="0"/>
        <pt x="357" y="577" on="1"/>
        <pt x="308" y="577" on="1"/>
        <pt x="300" y="591" on="1"/>
        <pt x="292" y="606" on="1"/>
        <pt x="292" y="608" on="0"/>
        <pt x="342" y="665" on="1"/>
        <pt x="392" y="724" on="1"/>
      </contour>
    </TTGlyph>
    <TTGlyph name="R" xMin="31" yMin="-28" xMax="978" yMax="688">
      <contour>
        <pt x="80" y="246" on="1"/>
        <pt x="78" y="248" on="0"/>
        <pt x="64" y="259" on="0"/>
        <pt x="62" y="261" on="1"/>
        <pt x="62" y="262" on="0"/>
        <pt x="71" y="267" on="1"/>
        <pt x="89" y="280" on="0"/>
        <pt x="103" y="291" on="1"/>
        <pt x="130" y="314" on="0"/>
        <pt x="130" y="337" on="1"/>
        <pt x="130" y="344" on="0"/>
        <pt x="127" y="352" on="1"/>
        <pt x="119" y="372" on="0"/>
        <pt x="85" y="406" on="1"/>
        <pt x="52" y="438" on="0"/>
        <pt x="38" y="467" on="1"/>
        <pt x="31" y="481" on="0"/>
        <pt x="31" y="498" on="1"/>
        <pt x="34" y="544" on="0"/>
        <pt x="86" y="595" on="1"/>
        <pt x="169" y="676" on="0"/>
        <pt x="266" y="687" on="1"/>
        <pt x="271" y="688" on="0"/>
        <pt x="279" y="688" on="1"/>
        <pt x="290" y="688" on="1"/>
        <pt x="401" y="688" on="0"/>
        <pt x="468" y="621" on="1"/>
        <pt x="492" y="597" on="0"/>
        <pt x="506" y="569" on="1"/>
        <pt x="511" y="558" on="1"/>
        <pt x="526" y="572" on="1"/>
        <pt x="620" y="663" on="0"/>
        <pt x="707" y="682" on="1"/>
        <pt x="722" y="685" on="0"/>
        <pt x="737" y="685" on="1"/>
        <pt x="800" y="685" on="0"/>
        <pt x="821" y="644" on="1"/>
        <pt x="830" y="626" on="0"/>
        <pt x="835" y="586" on="1"/>
        <pt x="842" y="537" on="0"/>
        <pt x="854" y="525" on="1"/>
        <pt x="865" y="511" on="0"/>
        <pt x="897" y="511" on="1"/>
        <pt x="917" y="511" on="0"/>
        <pt x="925" y="513" on="1"/>
        <pt x="937" y="515" on="1"/>
        <pt x="938" y="515" on="0"/>
        <pt x="944" y="502" on="0"/>
        <pt x="944" y="501" on="1"/>
        <pt x="930" y="496" on="0"/>
        <pt x="915" y="489" on="1"/>
        <pt x="846" y="461" on="0"/>
        <pt x="803" y="438" on="1"/>
        <pt x="796" y="435" on="0"/>
        <pt x="781" y="428" on="0"/>
        <pt x="768" y="421" on="0"/>
        <pt x="755" y="414" on="0"/>
        <pt x="746" y="408" on="0"/>
        <pt x="738" y="404" on="0"/>
        <pt x="736" y="402" on="1"/>
        <pt x="735" y="401" on="1"/>
        <pt x="741" y="399" on="0"/>
        <pt x="749" y="397" on="1"/>
        <pt x="782" y="386" on="0"/>
        <pt x="814" y="374" on="1"/>
        <pt x="828" y="367" on="1"/>
        <pt x="829" y="307" on="1"/>
        <pt x="829" y="234" on="0"/>
        <pt x="834" y="200" on="1"/>
        <pt x="838" y="171" on="0"/>
        <pt x="852" y="144" on="1"/>
        <pt x="873" y="109" on="0"/>
        <pt x="896" y="90" on="1"/>
        <pt x="906" y="82" on="0"/>
        <pt x="950" y="82" on="0"/>
        <pt x="976" y="95" on="1"/>
        <pt x="976" y="92" on="1"/>
        <pt x="976" y="82" on="0"/>
        <pt x="978" y="72" on="1"/>
        <pt x="893" y="22" on="1"/>
        <pt x="807" y="-28" on="1"/>
        <pt x="771" y="36" on="0"/>
        <pt x="733" y="87" on="1"/>
        <pt x="718" y="108" on="1"/>
        <pt x="718" y="149" on="1"/>
        <pt x="718" y="201" on="0"/>
        <pt x="717" y="216" on="1"/>
        <pt x="716" y="254" on="0"/>
        <pt x="706" y="287" on="0"/>
        <pt x="693" y="298" on="1"/>
        <pt x="652" y="333" on="0"/>
        <pt x="580" y="333" on="1"/>
        <pt x="524" y="333" on="0"/>
        <pt x="520" y="329" on="1"/>
        <pt x="520" y="326" on="0"/>
        <pt x="517" y="314" on="1"/>
        <pt x="506" y="257" on="0"/>
        <pt x="480" y="202" on="1"/>
        <pt x="455" y="145" on="0"/>
        <pt x="443" y="133" on="1"/>
        <pt x="441" y="131" on="0"/>
        <pt x="225" y="-26" on="0"/>
        <pt x="223" y="-27" on="1"/>
        <pt x="218" y="-24" on="0"/>
        <pt x="214" y="-20" on="1"/>
        <pt x="160" y="28" on="0"/>
        <pt x="136" y="28" on="1"/>
        <pt x="132" y="28" on="0"/>
        <pt x="124" y="26" on="1"/>
        <pt x="102" y="21" on="0"/>
        <pt x="66" y="-8" on="1"/>
        <pt x="56" y="-16" on="1"/>
        <pt x="48" y="-11" on="0"/>
        <pt x="40" y="-1" on="1"/>
        <pt x="48" y="7" on="1"/>
        <pt x="152" y="111" on="0"/>
        <pt x="197" y="122" on="1"/>
        <pt x="207" y="124" on="0"/>
        <pt x="211" y="124" on="1"/>
        <pt x="218" y="124" on="0"/>
        <pt x="235" y="118" on="0"/>
        <pt x="254" y="105" on="0"/>
        <pt x="264" y="97" on="0"/>
        <pt x="285" y="78" on="0"/>
        <pt x="287" y="77" on="1"/>
        <pt x="298" y="67" on="1"/>
        <pt x="312" y="75" on="0"/>
        <pt x="337" y="97" on="1"/>
        <pt x="397" y="151" on="0"/>
        <pt x="397" y="347" on="1"/>
        <pt x="397" y="514" on="0"/>
        <pt x="303" y="584" on="1"/>
        <pt x="256" y="619" on="0"/>
        <pt x="207" y="619" on="1"/>
        <pt x="203" y="619" on="1"/>
        <pt x="168" y="616" on="0"/>
        <pt x="141" y="591" on="1"/>
        <pt x="126" y="576" on="0"/>
        <pt x="126" y="563" on="1"/>
        <pt x="126" y="555" on="0"/>
        <pt x="130" y="547" on="1"/>
        <pt x="136" y="533" on="0"/>
        <pt x="159" y="506" on="1"/>
        <pt x="163" y="501" on="0"/>
        <pt x="189" y="475" on="1"/>
        <pt x="225" y="437" on="0"/>
        <pt x="237" y="414" on="1"/>
        <pt x="244" y="402" on="0"/>
        <pt x="244" y="387" on="1"/>
        <pt x="240" y="336" on="0"/>
        <pt x="160" y="289" on="1"/>
        <pt x="144" y="278" on="0"/>
        <pt x="98" y="255" on="1"/>
      </contour>
      <contour>
        <pt x="697" y="599" on="1"/>
        <pt x="682" y="618" on="0"/>
        <pt x="657" y="618" on="1"/>
        <pt x="641" y="618" on="0"/>
        <pt x="627" y="611" on="1"/>
        <pt x="572" y="590" on="0"/>
        <pt x="532" y="515" on="1"/>
        <pt x="525" y="502" on="1"/>
        <pt x="524" y="441" on="1"/>
        <pt x="524" y="375" on="0"/>
        <pt x="523" y="369" on="1"/>
        <pt x="523" y="358" on="0"/>
        <pt x="524" y="358" on="1"/>
        <pt x="535" y="361" on="0"/>
        <pt x="547" y="365" on="1"/>
        <pt x="634" y="392" on="0"/>
        <pt x="749" y="444" on="1"/>
        <pt x="777" y="457" on="1"/>
        <pt x="777" y="459" on="0"/>
        <pt x="768" y="459" on="1"/>
        <pt x="742" y="464" on="0"/>
        <pt x="731" y="481" on="1"/>
        <pt x="722" y="496" on="0"/>
        <pt x="714" y="539" on="1"/>
        <pt x="706" y="585" on="0"/>
      </contour>
    </TTGlyph>
    <TTGlyph name="S" xMin="82" yMin="-31" xMax="905" yMax="685">
      <contour>
        <pt x="383" y="283" on="1"/>
        <pt x="331" y="283" on="0"/>
        <pt x="270" y="333" on="0"/>
        <pt x="270" y="374" on="1"/>
        <pt x="270" y="414" on="0"/>
        <pt x="342" y="489" on="0"/>
        <pt x="385" y="502" on="1"/>
        <pt x="404" y="508" on="0"/>
        <pt x="424" y="510" on="1"/>
        <pt x="431" y="510" on="1"/>
        <pt x="435" y="505" on="1"/>
        <pt x="440" y="500" on="1"/>
        <pt x="419" y="494" on="0"/>
        <pt x="393" y="464" on="1"/>
        <pt x="380" y="444" on="0"/>
        <pt x="380" y="427" on="1"/>
        <pt x="380" y="381" on="0"/>
        <pt x="431" y="373" on="1"/>
        <pt x="437" y="372" on="0"/>
        <pt x="475" y="372" on="1"/>
        <pt x="559" y="372" on="0"/>
        <pt x="643" y="391" on="1"/>
        <pt x="709" y="404" on="0"/>
        <pt x="742" y="404" on="1"/>
        <pt x="819" y="404" on="0"/>
        <pt x="905" y="330" on="0"/>
        <pt x="905" y="260" on="1"/>
        <pt x="905" y="222" on="0"/>
        <pt x="887" y="183" on="1"/>
        <pt x="867" y="144" on="0"/>
        <pt x="793" y="70" on="0"/>
        <pt x="751" y="45" on="1"/>
        <pt x="625" y="-31" on="0"/>
        <pt x="457" y="-31" on="1"/>
        <pt x="418" y="-31" on="0"/>
        <pt x="374" y="-24" on="1"/>
        <pt x="254" y="-3" on="0"/>
        <pt x="99" y="145" on="0"/>
        <pt x="84" y="262" on="1"/>
        <pt x="82" y="282" on="0"/>
        <pt x="82" y="304" on="1"/>
        <pt x="82" y="384" on="0"/>
        <pt x="120" y="455" on="1"/>
        <pt x="178" y="566" on="0"/>
        <pt x="305" y="626" on="1"/>
        <pt x="381" y="662" on="0"/>
        <pt x="479" y="682" on="1"/>
        <pt x="491" y="685" on="0"/>
        <pt x="495" y="685" on="1"/>
        <pt x="502" y="685" on="0"/>
        <pt x="578" y="650" on="1"/>
        <pt x="679" y="604" on="0"/>
        <pt x="731" y="590" on="1"/>
        <pt x="756" y="584" on="0"/>
        <pt x="800" y="584" on="0"/>
        <pt x="818" y="591" on="1"/>
        <pt x="835" y="598" on="0"/>
        <pt x="870" y="633" on="0"/>
        <pt x="879" y="652" on="1"/>
        <pt x="883" y="659" on="1"/>
        <pt x="893" y="649" on="1"/>
        <pt x="901" y="639" on="1"/>
        <pt x="888" y="600" on="0"/>
        <pt x="848" y="564" on="1"/>
        <pt x="796" y="518" on="0"/>
        <pt x="721" y="499" on="1"/>
        <pt x="687" y="490" on="0"/>
        <pt x="666" y="490" on="1"/>
        <pt x="642" y="490" on="0"/>
        <pt x="617" y="502" on="1"/>
        <pt x="527" y="547" on="1"/>
        <pt x="436" y="594" on="0"/>
        <pt x="415" y="602" on="1"/>
        <pt x="393" y="608" on="0"/>
        <pt x="374" y="608" on="1"/>
        <pt x="342" y="608" on="0"/>
        <pt x="311" y="594" on="1"/>
        <pt x="277" y="577" on="0"/>
        <pt x="221" y="501" on="0"/>
        <pt x="210" y="456" on="1"/>
        <pt x="202" y="422" on="0"/>
        <pt x="202" y="386" on="1"/>
        <pt x="202" y="310" on="0"/>
        <pt x="229" y="247" on="1"/>
        <pt x="266" y="155" on="0"/>
        <pt x="446" y="41" on="0"/>
        <pt x="568" y="41" on="1"/>
        <pt x="641" y="41" on="0"/>
        <pt x="775" y="92" on="0"/>
        <pt x="802" y="133" on="1"/>
        <pt x="822" y="163" on="0"/>
        <pt x="822" y="198" on="1"/>
        <pt x="822" y="232" on="0"/>
        <pt x="776" y="292" on="0"/>
        <pt x="739" y="306" on="1"/>
        <pt x="696" y="322" on="0"/>
        <pt x="639" y="322" on="1"/>
        <pt x="598" y="322" on="0"/>
        <pt x="503" y="303" on="1"/>
        <pt x="403" y="283" on="0"/>
      </contour>
    </TTGlyph>
    <TTGlyph name="T" xMin="31" yMin="-30" xMax="802" yMax="686">
      <contour>
        <pt x="666" y="641" on="1"/>
        <pt x="738" y="641" on="0"/>
        <pt x="794" y="686" on="1"/>
        <pt x="795" y="682" on="0"/>
        <pt x="801" y="666" on="0"/>
        <pt x="802" y="662" on="1"/>
        <pt x="796" y="655" on="0"/>
        <pt x="734" y="596" on="1"/>
        <pt x="677" y="541" on="1"/>
        <pt x="664" y="538" on="1"/>
        <pt x="630" y="528" on="0"/>
        <pt x="583" y="528" on="1"/>
        <pt x="540" y="528" on="0"/>
        <pt x="482" y="537" on="1"/>
        <pt x="461" y="541" on="1"/>
        <pt x="402" y="512" on="0"/>
        <pt x="402" y="456" on="1"/>
        <pt x="402" y="436" on="0"/>
        <pt x="419" y="411" on="1"/>
        <pt x="435" y="388" on="0"/>
        <pt x="487" y="337" on="1"/>
        <pt x="549" y="279" on="0"/>
        <pt x="549" y="253" on="1"/>
        <pt x="549" y="237" on="0"/>
        <pt x="531" y="214" on="1"/>
        <pt x="512" y="188" on="0"/>
        <pt x="455" y="139" on="1"/>
        <pt x="440" y="126" on="1"/>
        <pt x="440" y="124" on="0"/>
        <pt x="493" y="102" on="1"/>
        <pt x="537" y="83" on="0"/>
        <pt x="567" y="76" on="1"/>
        <pt x="572" y="75" on="0"/>
        <pt x="586" y="75" on="1"/>
        <pt x="604" y="75" on="0"/>
        <pt x="610" y="77" on="1"/>
        <pt x="651" y="88" on="0"/>
        <pt x="709" y="124" on="1"/>
        <pt x="719" y="130" on="1"/>
        <pt x="722" y="125" on="0"/>
        <pt x="725" y="119" on="1"/>
        <pt x="730" y="108" on="1"/>
        <pt x="725" y="102" on="1"/>
        <pt x="667" y="49" on="0"/>
        <pt x="568" y="-18" on="1"/>
        <pt x="551" y="-30" on="0"/>
        <pt x="542" y="-30" on="1"/>
        <pt x="534" y="-30" on="0"/>
        <pt x="527" y="-29" on="1"/>
        <pt x="481" y="-25" on="0"/>
        <pt x="395" y="9" on="1"/>
        <pt x="326" y="37" on="0"/>
        <pt x="292" y="41" on="1"/>
        <pt x="287" y="42" on="0"/>
        <pt x="270" y="42" on="1"/>
        <pt x="248" y="42" on="0"/>
        <pt x="236" y="40" on="1"/>
        <pt x="199" y="32" on="0"/>
        <pt x="142" y="-11" on="1"/>
        <pt x="131" y="-19" on="1"/>
        <pt x="129" y="-8" on="1"/>
        <pt x="126" y="1" on="0"/>
        <pt x="126" y="4" on="1"/>
        <pt x="218" y="84" on="0"/>
        <pt x="301" y="126" on="1"/>
        <pt x="316" y="134" on="1"/>
        <pt x="406" y="134" on="1"/>
        <pt x="413" y="142" on="1"/>
        <pt x="436" y="165" on="0"/>
        <pt x="436" y="189" on="1"/>
        <pt x="436" y="203" on="0"/>
        <pt x="417" y="226" on="1"/>
        <pt x="406" y="241" on="0"/>
        <pt x="364" y="281" on="1"/>
        <pt x="307" y="334" on="0"/>
        <pt x="283" y="381" on="1"/>
        <pt x="290" y="394" on="1"/>
        <pt x="338" y="478" on="0"/>
        <pt x="410" y="540" on="1"/>
        <pt x="419" y="549" on="0"/>
        <pt x="417" y="549" on="1"/>
        <pt x="410" y="553" on="0"/>
        <pt x="305" y="569" on="1"/>
        <pt x="225" y="584" on="0"/>
        <pt x="195" y="584" on="1"/>
        <pt x="142" y="584" on="0"/>
        <pt x="115" y="557" on="1"/>
        <pt x="100" y="542" on="0"/>
        <pt x="100" y="523" on="1"/>
        <pt x="100" y="495" on="0"/>
        <pt x="126" y="469" on="1"/>
        <pt x="136" y="458" on="0"/>
        <pt x="160" y="442" on="1"/>
        <pt x="169" y="436" on="0"/>
        <pt x="170" y="433" on="1"/>
        <pt x="170" y="429" on="0"/>
        <pt x="171" y="428" on="1"/>
        <pt x="171" y="427" on="0"/>
        <pt x="90" y="360" on="0"/>
        <pt x="88" y="359" on="1"/>
        <pt x="86" y="359" on="0"/>
        <pt x="58" y="387" on="0"/>
        <pt x="52" y="394" on="1"/>
        <pt x="31" y="426" on="0"/>
        <pt x="31" y="457" on="1"/>
        <pt x="31" y="473" on="0"/>
        <pt x="32" y="479" on="1"/>
        <pt x="48" y="556" on="0"/>
        <pt x="222" y="671" on="0"/>
        <pt x="313" y="678" on="1"/>
        <pt x="319" y="679" on="0"/>
        <pt x="332" y="679" on="1"/>
        <pt x="368" y="679" on="0"/>
        <pt x="485" y="661" on="1"/>
        <pt x="601" y="641" on="0"/>
      </contour>
    </TTGlyph>
    <TTGlyph name="U" xMin="18" yMin="-39" xMax="871" yMax="688">
      <contour>
        <pt x="871" y="73" on="1"/>
        <pt x="865" y="69" on="0"/>
        <pt x="674" y="-37" on="0"/>
        <pt x="671" y="-39" on="1"/>
        <pt x="654" y="-10" on="1"/>
        <pt x="636" y="20" on="0"/>
        <pt x="601" y="81" on="0"/>
        <pt x="600" y="83" on="1"/>
        <pt x="600" y="84" on="0"/>
        <pt x="578" y="66" on="0"/>
        <pt x="539" y="34" on="1"/>
        <pt x="478" y="-16" on="0"/>
        <pt x="475" y="-19" on="1"/>
        <pt x="468" y="-23" on="0"/>
        <pt x="427" y="-34" on="0"/>
        <pt x="414" y="-34" on="1"/>
        <pt x="410" y="-34" on="0"/>
        <pt x="394" y="-32" on="1"/>
        <pt x="356" y="-28" on="0"/>
        <pt x="282" y="-2" on="1"/>
        <pt x="273" y="1" on="0"/>
        <pt x="240" y="14" on="0"/>
        <pt x="237" y="15" on="1"/>
        <pt x="169" y="38" on="0"/>
        <pt x="126" y="38" on="1"/>
        <pt x="115" y="38" on="0"/>
        <pt x="111" y="37" on="1"/>
        <pt x="82" y="30" on="0"/>
        <pt x="44" y="-2" on="1"/>
        <pt x="38" y="-8" on="0"/>
        <pt x="36" y="-8" on="0"/>
        <pt x="18" y="7" on="0"/>
        <pt x="18" y="8" on="1"/>
        <pt x="18" y="10" on="0"/>
        <pt x="123" y="116" on="0"/>
        <pt x="124" y="116" on="1"/>
        <pt x="186" y="130" on="0"/>
        <pt x="260" y="177" on="0"/>
        <pt x="271" y="220" on="1"/>
        <pt x="273" y="226" on="0"/>
        <pt x="273" y="262" on="0"/>
        <pt x="271" y="268" on="1"/>
        <pt x="257" y="321" on="0"/>
        <pt x="211" y="388" on="1"/>
        <pt x="156" y="470" on="0"/>
        <pt x="155" y="502" on="1"/>
        <pt x="155" y="523" on="0"/>
        <pt x="165" y="536" on="1"/>
        <pt x="240" y="635" on="0"/>
        <pt x="333" y="688" on="1"/>
        <pt x="338" y="684" on="0"/>
        <pt x="345" y="680" on="1"/>
        <pt x="356" y="672" on="1"/>
        <pt x="344" y="664" on="1"/>
        <pt x="341" y="662" on="0"/>
        <pt x="320" y="647" on="1"/>
        <pt x="280" y="615" on="0"/>
        <pt x="280" y="582" on="1"/>
        <pt x="280" y="572" on="0"/>
        <pt x="281" y="567" on="1"/>
        <pt x="287" y="530" on="0"/>
        <pt x="314" y="480" on="1"/>
        <pt x="371" y="379" on="0"/>
        <pt x="371" y="300" on="1"/>
        <pt x="371" y="270" on="0"/>
        <pt x="362" y="248" on="1"/>
        <pt x="305" y="186" on="1"/>
        <pt x="247" y="123" on="1"/>
        <pt x="247" y="122" on="0"/>
        <pt x="261" y="119" on="1"/>
        <pt x="272" y="117" on="0"/>
        <pt x="358" y="92" on="1"/>
        <pt x="452" y="64" on="0"/>
        <pt x="484" y="64" on="1"/>
        <pt x="507" y="64" on="0"/>
        <pt x="523" y="72" on="1"/>
        <pt x="553" y="87" on="0"/>
        <pt x="573" y="109" on="1"/>
        <pt x="583" y="123" on="0"/>
        <pt x="585" y="137" on="1"/>
        <pt x="587" y="148" on="0"/>
        <pt x="594" y="302" on="0"/>
        <pt x="594" y="344" on="1"/>
        <pt x="594" y="446" on="0"/>
        <pt x="583" y="572" on="1"/>
        <pt x="583" y="575" on="0"/>
        <pt x="582" y="582" on="0"/>
        <pt x="582" y="588" on="0"/>
        <pt x="581" y="592" on="0"/>
        <pt x="581" y="594" on="1"/>
        <pt x="581" y="595" on="1"/>
        <pt x="588" y="597" on="0"/>
        <pt x="597" y="601" on="1"/>
        <pt x="660" y="625" on="0"/>
        <pt x="744" y="673" on="1"/>
        <pt x="747" y="675" on="0"/>
        <pt x="755" y="679" on="0"/>
        <pt x="760" y="682" on="0"/>
        <pt x="765" y="685" on="0"/>
        <pt x="766" y="686" on="1"/>
        <pt x="768" y="686" on="1"/>
        <pt x="770" y="686" on="0"/>
        <pt x="784" y="673" on="1"/>
        <pt x="782" y="670" on="1"/>
        <pt x="781" y="668" on="0"/>
        <pt x="773" y="660" on="0"/>
        <pt x="768" y="655" on="1"/>
        <pt x="748" y="636" on="0"/>
        <pt x="739" y="617" on="1"/>
        <pt x="724" y="586" on="0"/>
        <pt x="719" y="520" on="1"/>
        <pt x="714" y="465" on="0"/>
        <pt x="714" y="359" on="1"/>
        <pt x="714" y="205" on="0"/>
        <pt x="723" y="176" on="1"/>
        <pt x="727" y="164" on="0"/>
        <pt x="761" y="101" on="0"/>
        <pt x="771" y="89" on="1"/>
        <pt x="780" y="75" on="0"/>
        <pt x="804" y="75" on="1"/>
        <pt x="814" y="75" on="0"/>
        <pt x="853" y="87" on="1"/>
        <pt x="867" y="92" on="1"/>
        <pt x="868" y="88" on="1"/>
        <pt x="869" y="84" on="0"/>
        <pt x="871" y="74" on="0"/>
      </contour>
    </TTGlyph>
    <TTGlyph name="V" xMin="25" yMin="-29" xMax="966" yMax="685">
      <contour>
        <pt x="912" y="616" on="1"/>
        <pt x="965" y="622" on="1"/>
        <pt x="966" y="621" on="0"/>
        <pt x="966" y="612" on="1"/>
        <pt x="966" y="604" on="1"/>
        <pt x="952" y="595" on="1"/>
        <pt x="924" y="576" on="0"/>
        <pt x="895" y="549" on="1"/>
        <pt x="859" y="511" on="0"/>
        <pt x="849" y="477" on="1"/>
        <pt x="847" y="469" on="0"/>
        <pt x="847" y="434" on="1"/>
        <pt x="847" y="415" on="0"/>
        <pt x="847" y="397" on="0"/>
        <pt x="849" y="377" on="0"/>
        <pt x="851" y="368" on="0"/>
        <pt x="856" y="338" on="0"/>
        <pt x="859" y="323" on="1"/>
        <pt x="874" y="244" on="0"/>
        <pt x="874" y="212" on="1"/>
        <pt x="874" y="142" on="0"/>
        <pt x="830" y="96" on="1"/>
        <pt x="796" y="62" on="0"/>
        <pt x="724" y="14" on="1"/>
        <pt x="660" y="-29" on="0"/>
        <pt x="603" y="-29" on="1"/>
        <pt x="574" y="-29" on="0"/>
        <pt x="519" y="-11" on="1"/>
        <pt x="476" y="4" on="0"/>
        <pt x="414" y="31" on="1"/>
        <pt x="288" y="86" on="0"/>
        <pt x="242" y="86" on="1"/>
        <pt x="183" y="86" on="0"/>
        <pt x="110" y="31" on="1"/>
        <pt x="105" y="28" on="0"/>
        <pt x="99" y="24" on="0"/>
        <pt x="99" y="25" on="1"/>
        <pt x="88" y="36" on="0"/>
        <pt x="88" y="42" on="1"/>
        <pt x="91" y="48" on="0"/>
        <pt x="145" y="87" on="1"/>
        <pt x="168" y="104" on="0"/>
        <pt x="222" y="142" on="1"/>
        <pt x="252" y="163" on="0"/>
        <pt x="262" y="165" on="1"/>
        <pt x="319" y="183" on="0"/>
        <pt x="344" y="218" on="1"/>
        <pt x="378" y="266" on="0"/>
        <pt x="378" y="488" on="0"/>
        <pt x="334" y="553" on="1"/>
        <pt x="317" y="581" on="0"/>
        <pt x="246" y="623" on="0"/>
        <pt x="212" y="623" on="1"/>
        <pt x="162" y="623" on="0"/>
        <pt x="135" y="579" on="1"/>
        <pt x="131" y="569" on="0"/>
        <pt x="131" y="562" on="1"/>
        <pt x="131" y="546" on="0"/>
        <pt x="146" y="523" on="1"/>
        <pt x="161" y="502" on="0"/>
        <pt x="182" y="483" on="1"/>
        <pt x="236" y="431" on="0"/>
        <pt x="243" y="416" on="1"/>
        <pt x="246" y="409" on="0"/>
        <pt x="246" y="399" on="1"/>
        <pt x="246" y="367" on="0"/>
        <pt x="212" y="337" on="1"/>
        <pt x="171" y="302" on="0"/>
        <pt x="94" y="259" on="1"/>
        <pt x="79" y="251" on="1"/>
        <pt x="74" y="254" on="0"/>
        <pt x="60" y="269" on="0"/>
        <pt x="61" y="270" on="1"/>
        <pt x="65" y="273" on="0"/>
        <pt x="70" y="277" on="1"/>
        <pt x="131" y="314" on="0"/>
        <pt x="133" y="343" on="1"/>
        <pt x="133" y="349" on="0"/>
        <pt x="130" y="354" on="1"/>
        <pt x="122" y="372" on="0"/>
        <pt x="82" y="414" on="1"/>
        <pt x="43" y="454" on="0"/>
        <pt x="34" y="470" on="1"/>
        <pt x="25" y="483" on="0"/>
        <pt x="25" y="496" on="1"/>
        <pt x="25" y="505" on="0"/>
        <pt x="30" y="520" on="1"/>
        <pt x="36" y="535" on="0"/>
        <pt x="64" y="569" on="1"/>
        <pt x="142" y="672" on="0"/>
        <pt x="276" y="685" on="1"/>
        <pt x="293" y="685" on="1"/>
        <pt x="331" y="685" on="0"/>
        <pt x="339" y="684" on="1"/>
        <pt x="455" y="664" on="0"/>
        <pt x="489" y="558" on="1"/>
        <pt x="493" y="546" on="1"/>
        <pt x="587" y="627" on="0"/>
        <pt x="665" y="667" on="1"/>
        <pt x="699" y="684" on="0"/>
        <pt x="725" y="684" on="1"/>
        <pt x="769" y="684" on="0"/>
        <pt x="842" y="642" on="1"/>
        <pt x="879" y="622" on="0"/>
        <pt x="889" y="618" on="1"/>
        <pt x="895" y="616" on="0"/>
      </contour>
      <contour>
        <pt x="708" y="56" on="1"/>
        <pt x="736" y="56" on="0"/>
        <pt x="756" y="86" on="0"/>
        <pt x="756" y="118" on="1"/>
        <pt x="756" y="135" on="0"/>
        <pt x="741" y="219" on="1"/>
        <pt x="738" y="238" on="0"/>
        <pt x="730" y="281" on="0"/>
        <pt x="727" y="296" on="0"/>
        <pt x="725" y="324" on="0"/>
        <pt x="725" y="344" on="1"/>
        <pt x="725" y="378" on="1"/>
        <pt x="725" y="417" on="0"/>
        <pt x="736" y="431" on="1"/>
        <pt x="748" y="450" on="0"/>
        <pt x="815" y="510" on="1"/>
        <pt x="832" y="526" on="1"/>
        <pt x="822" y="526" on="1"/>
        <pt x="801" y="528" on="0"/>
        <pt x="765" y="539" on="0"/>
        <pt x="740" y="552" on="0"/>
        <pt x="716" y="566" on="1"/>
        <pt x="672" y="591" on="0"/>
        <pt x="649" y="595" on="1"/>
        <pt x="635" y="597" on="0"/>
        <pt x="628" y="597" on="1"/>
        <pt x="609" y="597" on="0"/>
        <pt x="579" y="574" on="1"/>
        <pt x="543" y="543" on="0"/>
        <pt x="513" y="506" on="1"/>
        <pt x="505" y="495" on="1"/>
        <pt x="506" y="473" on="1"/>
        <pt x="506" y="469" on="0"/>
        <pt x="507" y="453" on="0"/>
        <pt x="507" y="449" on="1"/>
        <pt x="507" y="348" on="0"/>
        <pt x="467" y="271" on="1"/>
        <pt x="462" y="261" on="1"/>
        <pt x="404" y="218" on="1"/>
        <pt x="348" y="174" on="1"/>
        <pt x="349" y="173" on="0"/>
        <pt x="356" y="173" on="1"/>
        <pt x="384" y="169" on="0"/>
        <pt x="450" y="144" on="1"/>
        <pt x="488" y="129" on="0"/>
        <pt x="546" y="105" on="1"/>
        <pt x="624" y="72" on="0"/>
        <pt x="659" y="63" on="1"/>
        <pt x="692" y="56" on="0"/>
      </contour>
    </TTGlyph>
    <TTGlyph name="W" xMin="26" yMin="-30" xMax="1240" yMax="683">
      <contour>
        <pt x="677" y="665" on="1"/>
        <pt x="707" y="683" on="1"/>
        <pt x="725" y="657" on="1"/>
        <pt x="749" y="620" on="0"/>
        <pt x="790" y="561" on="1"/>
        <pt x="796" y="566" on="0"/>
        <pt x="803" y="572" on="1"/>
        <pt x="910" y="662" on="0"/>
        <pt x="972" y="678" on="1"/>
        <pt x="992" y="682" on="0"/>
        <pt x="1001" y="682" on="1"/>
        <pt x="1036" y="682" on="0"/>
        <pt x="1089" y="655" on="1"/>
        <pt x="1160" y="618" on="0"/>
        <pt x="1193" y="616" on="1"/>
        <pt x="1211" y="616" on="0"/>
        <pt x="1230" y="621" on="1"/>
        <pt x="1236" y="623" on="0"/>
        <pt x="1239" y="621" on="0"/>
        <pt x="1239" y="611" on="0"/>
        <pt x="1240" y="609" on="1"/>
        <pt x="1240" y="607" on="0"/>
        <pt x="1222" y="591" on="1"/>
        <pt x="1125" y="508" on="0"/>
        <pt x="1107" y="452" on="1"/>
        <pt x="1104" y="442" on="0"/>
        <pt x="1104" y="430" on="1"/>
        <pt x="1104" y="408" on="0"/>
        <pt x="1124" y="325" on="1"/>
        <pt x="1142" y="253" on="0"/>
        <pt x="1142" y="208" on="1"/>
        <pt x="1142" y="181" on="0"/>
        <pt x="1136" y="147" on="1"/>
        <pt x="1127" y="118" on="0"/>
        <pt x="1117" y="106" on="1"/>
        <pt x="1114" y="103" on="0"/>
        <pt x="947" y="-7" on="0"/>
        <pt x="935" y="-14" on="1"/>
        <pt x="916" y="-27" on="0"/>
        <pt x="862" y="-27" on="1"/>
        <pt x="852" y="-27" on="0"/>
        <pt x="834" y="-26" on="0"/>
        <pt x="821" y="-24" on="0"/>
        <pt x="804" y="-20" on="0"/>
        <pt x="794" y="-17" on="0"/>
        <pt x="770" y="-9" on="0"/>
        <pt x="763" y="-7" on="1"/>
        <pt x="693" y="16" on="0"/>
        <pt x="647" y="26" on="1"/>
        <pt x="597" y="38" on="0"/>
        <pt x="578" y="38" on="1"/>
        <pt x="571" y="38" on="0"/>
        <pt x="546" y="26" on="1"/>
        <pt x="493" y="-1" on="0"/>
        <pt x="469" y="-16" on="1"/>
        <pt x="452" y="-26" on="1"/>
        <pt x="439" y="-28" on="1"/>
        <pt x="423" y="-30" on="0"/>
        <pt x="399" y="-30" on="0"/>
        <pt x="383" y="-28" on="1"/>
        <pt x="336" y="-21" on="0"/>
        <pt x="275" y="10" on="1"/>
        <pt x="228" y="32" on="0"/>
        <pt x="190" y="45" on="0"/>
        <pt x="169" y="45" on="1"/>
        <pt x="125" y="45" on="0"/>
        <pt x="58" y="-5" on="1"/>
        <pt x="47" y="-14" on="1"/>
        <pt x="41" y="-4" on="1"/>
        <pt x="35" y="8" on="1"/>
        <pt x="35" y="11" on="0"/>
        <pt x="70" y="40" on="1"/>
        <pt x="117" y="81" on="0"/>
        <pt x="181" y="125" on="1"/>
        <pt x="200" y="139" on="1"/>
        <pt x="217" y="139" on="1"/>
        <pt x="290" y="144" on="0"/>
        <pt x="335" y="193" on="1"/>
        <pt x="394" y="257" on="0"/>
        <pt x="394" y="393" on="1"/>
        <pt x="394" y="477" on="0"/>
        <pt x="327" y="590" on="0"/>
        <pt x="266" y="609" on="1"/>
        <pt x="243" y="617" on="0"/>
        <pt x="213" y="617" on="1"/>
        <pt x="137" y="617" on="0"/>
        <pt x="120" y="569" on="1"/>
        <pt x="119" y="566" on="0"/>
        <pt x="119" y="560" on="1"/>
        <pt x="119" y="546" on="0"/>
        <pt x="134" y="526" on="1"/>
        <pt x="149" y="507" on="0"/>
        <pt x="176" y="479" on="1"/>
        <pt x="210" y="447" on="0"/>
        <pt x="223" y="426" on="1"/>
        <pt x="236" y="408" on="0"/>
        <pt x="236" y="393" on="1"/>
        <pt x="236" y="370" on="0"/>
        <pt x="222" y="346" on="1"/>
        <pt x="211" y="328" on="0"/>
        <pt x="140" y="273" on="0"/>
        <pt x="98" y="251" on="1"/>
        <pt x="89" y="246" on="1"/>
        <pt x="76" y="253" on="1"/>
        <pt x="63" y="261" on="1"/>
        <pt x="74" y="266" on="0"/>
        <pt x="107" y="291" on="1"/>
        <pt x="133" y="314" on="0"/>
        <pt x="133" y="338" on="1"/>
        <pt x="133" y="365" on="0"/>
        <pt x="90" y="402" on="1"/>
        <pt x="69" y="421" on="0"/>
        <pt x="26" y="476" on="0"/>
        <pt x="26" y="496" on="1"/>
        <pt x="26" y="532" on="0"/>
        <pt x="83" y="591" on="1"/>
        <pt x="141" y="647" on="0"/>
        <pt x="202" y="666" on="1"/>
        <pt x="252" y="682" on="0"/>
        <pt x="304" y="682" on="1"/>
        <pt x="424" y="682" on="0"/>
        <pt x="485" y="600" on="1"/>
        <pt x="499" y="583" on="0"/>
        <pt x="506" y="564" on="1"/>
        <pt x="510" y="557" on="1"/>
        <pt x="513" y="557" on="0"/>
        <pt x="534" y="573" on="1"/>
        <pt x="597" y="616" on="0"/>
      </contour>
      <contour>
        <pt x="936" y="583" on="1"/>
        <pt x="922" y="586" on="0"/>
        <pt x="909" y="586" on="1"/>
        <pt x="902" y="586" on="0"/>
        <pt x="892" y="584" on="1"/>
        <pt x="852" y="575" on="0"/>
        <pt x="816" y="539" on="1"/>
        <pt x="802" y="526" on="1"/>
        <pt x="804" y="514" on="1"/>
        <pt x="814" y="461" on="0"/>
        <pt x="814" y="411" on="1"/>
        <pt x="814" y="319" on="0"/>
        <pt x="781" y="238" on="1"/>
        <pt x="773" y="217" on="0"/>
        <pt x="764" y="204" on="0"/>
        <pt x="740" y="177" on="1"/>
        <pt x="707" y="142" on="0"/>
        <pt x="702" y="136" on="1"/>
        <pt x="715" y="133" on="1"/>
        <pt x="757" y="122" on="0"/>
        <pt x="846" y="90" on="1"/>
        <pt x="912" y="66" on="0"/>
        <pt x="922" y="64" on="1"/>
        <pt x="954" y="57" on="0"/>
        <pt x="973" y="57" on="1"/>
        <pt x="1006" y="57" on="0"/>
        <pt x="1017" y="80" on="1"/>
        <pt x="1022" y="93" on="0"/>
        <pt x="1022" y="116" on="1"/>
        <pt x="1022" y="153" on="0"/>
        <pt x="1001" y="249" on="1"/>
        <pt x="989" y="308" on="0"/>
        <pt x="985" y="337" on="1"/>
        <pt x="983" y="350" on="0"/>
        <pt x="983" y="377" on="1"/>
        <pt x="983" y="403" on="0"/>
        <pt x="984" y="406" on="1"/>
        <pt x="985" y="411" on="0"/>
        <pt x="1002" y="429" on="1"/>
        <pt x="1050" y="488" on="0"/>
        <pt x="1101" y="523" on="1"/>
        <pt x="1103" y="524" on="0"/>
        <pt x="1105" y="526" on="1"/>
        <pt x="1107" y="528" on="1"/>
        <pt x="1104" y="527" on="0"/>
        <pt x="1100" y="527" on="0"/>
        <pt x="1091" y="526" on="0"/>
        <pt x="1088" y="526" on="1"/>
        <pt x="1078" y="526" on="0"/>
        <pt x="1070" y="528" on="1"/>
        <pt x="1065" y="529" on="0"/>
        <pt x="1014" y="552" on="1"/>
        <pt x="956" y="578" on="0"/>
      </contour>
      <contour>
        <pt x="605" y="575" on="1"/>
        <pt x="593" y="582" on="1"/>
        <pt x="587" y="578" on="0"/>
        <pt x="580" y="572" on="1"/>
        <pt x="542" y="544" on="0"/>
        <pt x="524" y="512" on="1"/>
        <pt x="523" y="510" on="0"/>
        <pt x="523" y="477" on="1"/>
        <pt x="523" y="315" on="0"/>
        <pt x="444" y="218" on="1"/>
        <pt x="435" y="207" on="1"/>
        <pt x="368" y="169" on="1"/>
        <pt x="301" y="132" on="0"/>
        <pt x="301" y="131" on="1"/>
        <pt x="307" y="128" on="0"/>
        <pt x="315" y="125" on="1"/>
        <pt x="350" y="110" on="0"/>
        <pt x="377" y="99" on="1"/>
        <pt x="467" y="61" on="0"/>
        <pt x="500" y="58" on="1"/>
        <pt x="506" y="57" on="0"/>
        <pt x="515" y="57" on="1"/>
        <pt x="530" y="57" on="0"/>
        <pt x="569" y="76" on="1"/>
        <pt x="602" y="91" on="0"/>
        <pt x="608" y="94" on="1"/>
        <pt x="627" y="102" on="1"/>
        <pt x="636" y="111" on="1"/>
        <pt x="699" y="185" on="0"/>
        <pt x="699" y="358" on="1"/>
        <pt x="699" y="458" on="0"/>
        <pt x="670" y="514" on="1"/>
        <pt x="654" y="548" on="0"/>
      </contour>
    </TTGlyph>
    <TTGlyph name="X" xMin="32" yMin="-35" xMax="835" yMax="681">
      <contour>
        <pt x="801" y="89" on="1"/>
        <pt x="798" y="77" on="0"/>
        <pt x="798" y="66" on="1"/>
        <pt x="793" y="64" on="0"/>
        <pt x="787" y="60" on="1"/>
        <pt x="755" y="41" on="0"/>
        <pt x="685" y="-10" on="1"/>
        <pt x="665" y="-25" on="1"/>
        <pt x="634" y="-30" on="1"/>
        <pt x="596" y="-35" on="0"/>
        <pt x="594" y="-35" on="1"/>
        <pt x="587" y="-35" on="0"/>
        <pt x="582" y="-34" on="1"/>
        <pt x="518" y="-26" on="0"/>
        <pt x="450" y="48" on="0"/>
        <pt x="417" y="121" on="1"/>
        <pt x="410" y="138" on="0"/>
        <pt x="409" y="138" on="1"/>
        <pt x="401" y="132" on="0"/>
        <pt x="393" y="124" on="1"/>
        <pt x="302" y="43" on="0"/>
        <pt x="232" y="3" on="1"/>
        <pt x="195" y="-19" on="0"/>
        <pt x="171" y="-28" on="1"/>
        <pt x="162" y="-31" on="0"/>
        <pt x="151" y="-31" on="1"/>
        <pt x="135" y="-31" on="0"/>
        <pt x="114" y="-22" on="1"/>
        <pt x="66" y="-3" on="0"/>
        <pt x="32" y="22" on="1"/>
        <pt x="72" y="61" on="1"/>
        <pt x="113" y="101" on="1"/>
        <pt x="115" y="101" on="0"/>
        <pt x="120" y="96" on="1"/>
        <pt x="157" y="65" on="0"/>
        <pt x="198" y="53" on="1"/>
        <pt x="206" y="51" on="0"/>
        <pt x="221" y="51" on="1"/>
        <pt x="235" y="51" on="0"/>
        <pt x="244" y="54" on="1"/>
        <pt x="272" y="63" on="0"/>
        <pt x="305" y="90" on="1"/>
        <pt x="342" y="120" on="0"/>
        <pt x="360" y="180" on="1"/>
        <pt x="376" y="238" on="0"/>
        <pt x="376" y="301" on="1"/>
        <pt x="376" y="315" on="1"/>
        <pt x="293" y="315" on="1"/>
        <pt x="276" y="315" on="0"/>
        <pt x="225" y="314" on="0"/>
        <pt x="195" y="313" on="0"/>
        <pt x="190" y="313" on="1"/>
        <pt x="168" y="312" on="1"/>
        <pt x="168" y="313" on="0"/>
        <pt x="200" y="340" on="1"/>
        <pt x="231" y="368" on="1"/>
        <pt x="238" y="367" on="1"/>
        <pt x="275" y="367" on="0"/>
        <pt x="311" y="366" on="1"/>
        <pt x="378" y="366" on="1"/>
        <pt x="378" y="387" on="1"/>
        <pt x="375" y="488" on="0"/>
        <pt x="344" y="532" on="1"/>
        <pt x="309" y="579" on="0"/>
        <pt x="252" y="579" on="1"/>
        <pt x="219" y="579" on="0"/>
        <pt x="192" y="566" on="1"/>
        <pt x="171" y="557" on="0"/>
        <pt x="138" y="527" on="1"/>
        <pt x="119" y="508" on="0"/>
        <pt x="117" y="508" on="1"/>
        <pt x="112" y="512" on="0"/>
        <pt x="108" y="518" on="1"/>
        <pt x="99" y="527" on="1"/>
        <pt x="117" y="545" on="1"/>
        <pt x="177" y="604" on="0"/>
        <pt x="255" y="665" on="1"/>
        <pt x="273" y="679" on="1"/>
        <pt x="278" y="678" on="1"/>
        <pt x="373" y="670" on="0"/>
        <pt x="426" y="617" on="1"/>
        <pt x="463" y="580" on="0"/>
        <pt x="477" y="525" on="1"/>
        <pt x="484" y="533" on="1"/>
        <pt x="496" y="548" on="0"/>
        <pt x="552" y="601" on="0"/>
        <pt x="571" y="615" on="1"/>
        <pt x="616" y="650" on="0"/>
        <pt x="681" y="675" on="1"/>
        <pt x="699" y="681" on="0"/>
        <pt x="699" y="681" on="1"/>
        <pt x="702" y="675" on="0"/>
        <pt x="706" y="668" on="1"/>
        <pt x="723" y="632" on="0"/>
        <pt x="747" y="607" on="1"/>
        <pt x="759" y="596" on="0"/>
        <pt x="775" y="590" on="0"/>
        <pt x="794" y="590" on="1"/>
        <pt x="819" y="590" on="0"/>
        <pt x="834" y="594" on="1"/>
        <pt x="834" y="585" on="1"/>
        <pt x="835" y="577" on="1"/>
        <pt x="747" y="535" on="0"/>
        <pt x="704" y="513" on="1"/>
        <pt x="693" y="518" on="1"/>
        <pt x="651" y="536" on="0"/>
        <pt x="618" y="572" on="1"/>
        <pt x="598" y="597" on="0"/>
        <pt x="596" y="601" on="0"/>
        <pt x="581" y="584" on="1"/>
        <pt x="495" y="490" on="0"/>
        <pt x="489" y="379" on="1"/>
        <pt x="489" y="366" on="1"/>
        <pt x="562" y="366" on="1"/>
        <pt x="589" y="366" on="0"/>
        <pt x="664" y="369" on="0"/>
        <pt x="681" y="369" on="1"/>
        <pt x="682" y="369" on="0"/>
        <pt x="675" y="362" on="0"/>
        <pt x="660" y="348" on="0"/>
        <pt x="651" y="341" on="1"/>
        <pt x="620" y="314" on="1"/>
        <pt x="485" y="314" on="1"/>
        <pt x="485" y="295" on="1"/>
        <pt x="489" y="201" on="0"/>
        <pt x="578" y="74" on="0"/>
        <pt x="658" y="62" on="1"/>
        <pt x="672" y="60" on="0"/>
        <pt x="700" y="60" on="0"/>
        <pt x="710" y="62" on="1"/>
        <pt x="740" y="68" on="0"/>
        <pt x="789" y="88" on="1"/>
        <pt x="801" y="93" on="1"/>
      </contour>
    </TTGlyph>
    <TTGlyph name="Y" xMin="34" yMin="-214" xMax="878" yMax="688">
      <contour>
        <pt x="508" y="493" on="1"/>
        <pt x="508" y="492" on="0"/>
        <pt x="510" y="453" on="0"/>
        <pt x="510" y="445" on="1"/>
        <pt x="510" y="319" on="0"/>
        <pt x="458" y="236" on="1"/>
        <pt x="451" y="225" on="1"/>
        <pt x="436" y="216" on="1"/>
        <pt x="394" y="191" on="0"/>
        <pt x="339" y="150" on="1"/>
        <pt x="318" y="134" on="1"/>
        <pt x="332" y="127" on="1"/>
        <pt x="335" y="126" on="0"/>
        <pt x="388" y="107" on="1"/>
        <pt x="458" y="80" on="0"/>
        <pt x="489" y="80" on="1"/>
        <pt x="504" y="80" on="0"/>
        <pt x="513" y="83" on="1"/>
        <pt x="547" y="95" on="0"/>
        <pt x="593" y="129" on="1"/>
        <pt x="604" y="137" on="1"/>
        <pt x="607" y="127" on="1"/>
        <pt x="610" y="119" on="0"/>
        <pt x="610" y="116" on="1"/>
        <pt x="610" y="111" on="0"/>
        <pt x="559" y="60" on="1"/>
        <pt x="521" y="22" on="0"/>
        <pt x="484" y="-4" on="1"/>
        <pt x="450" y="-27" on="0"/>
        <pt x="446" y="-27" on="1"/>
        <pt x="441" y="-27" on="0"/>
        <pt x="402" y="-18" on="1"/>
        <pt x="362" y="-8" on="0"/>
        <pt x="285" y="22" on="1"/>
        <pt x="238" y="41" on="0"/>
        <pt x="209" y="50" on="0"/>
        <pt x="188" y="50" on="1"/>
        <pt x="134" y="50" on="0"/>
        <pt x="64" y="-7" on="1"/>
        <pt x="52" y="-17" on="1"/>
        <pt x="43" y="-7" on="1"/>
        <pt x="34" y="2" on="1"/>
        <pt x="51" y="19" on="1"/>
        <pt x="118" y="87" on="0"/>
        <pt x="177" y="132" on="1"/>
        <pt x="192" y="143" on="1"/>
        <pt x="215" y="143" on="1"/>
        <pt x="298" y="147" on="0"/>
        <pt x="338" y="187" on="1"/>
        <pt x="357" y="207" on="0"/>
        <pt x="366" y="245" on="1"/>
        <pt x="382" y="306" on="0"/>
        <pt x="382" y="388" on="1"/>
        <pt x="382" y="426" on="0"/>
        <pt x="381" y="436" on="1"/>
        <pt x="367" y="529" on="0"/>
        <pt x="306" y="582" on="1"/>
        <pt x="261" y="621" on="0"/>
        <pt x="214" y="621" on="1"/>
        <pt x="176" y="621" on="0"/>
        <pt x="156" y="601" on="1"/>
        <pt x="137" y="582" on="0"/>
        <pt x="137" y="562" on="1"/>
        <pt x="137" y="541" on="0"/>
        <pt x="163" y="508" on="1"/>
        <pt x="228" y="442" on="0"/>
        <pt x="239" y="429" on="1"/>
        <pt x="253" y="408" on="0"/>
        <pt x="253" y="398" on="1"/>
        <pt x="253" y="373" on="0"/>
        <pt x="225" y="347" on="1"/>
        <pt x="160" y="289" on="0"/>
        <pt x="99" y="253" on="1"/>
        <pt x="89" y="247" on="1"/>
        <pt x="77" y="256" on="1"/>
        <pt x="65" y="266" on="1"/>
        <pt x="70" y="269" on="0"/>
        <pt x="76" y="273" on="1"/>
        <pt x="125" y="301" on="0"/>
        <pt x="134" y="329" on="1"/>
        <pt x="140" y="346" on="0"/>
        <pt x="128" y="368" on="0"/>
        <pt x="95" y="403" on="1"/>
        <pt x="64" y="434" on="0"/>
        <pt x="49" y="455" on="1"/>
        <pt x="34" y="479" on="0"/>
        <pt x="34" y="496" on="1"/>
        <pt x="34" y="505" on="0"/>
        <pt x="37" y="515" on="1"/>
        <pt x="51" y="564" on="0"/>
        <pt x="120" y="620" on="1"/>
        <pt x="198" y="682" on="0"/>
        <pt x="310" y="682" on="1"/>
        <pt x="360" y="682" on="0"/>
        <pt x="439" y="643" on="0"/>
        <pt x="460" y="611" on="1"/>
        <pt x="476" y="586" on="0"/>
        <pt x="488" y="555" on="1"/>
        <pt x="493" y="542" on="0"/>
        <pt x="495" y="542" on="1"/>
        <pt x="517" y="559" on="1"/>
        <pt x="594" y="616" on="0"/>
        <pt x="663" y="657" on="1"/>
        <pt x="715" y="683" on="0"/>
        <pt x="724" y="688" on="1"/>
        <pt x="727" y="685" on="0"/>
        <pt x="735" y="676" on="0"/>
        <pt x="744" y="667" on="0"/>
        <pt x="749" y="663" on="1"/>
        <pt x="780" y="635" on="0"/>
        <pt x="856" y="592" on="1"/>
        <pt x="858" y="576" on="0"/>
        <pt x="860" y="558" on="1"/>
        <pt x="878" y="426" on="0"/>
        <pt x="878" y="340" on="1"/>
        <pt x="878" y="280" on="0"/>
        <pt x="874" y="247" on="1"/>
        <pt x="859" y="113" on="0"/>
        <pt x="805" y="-3" on="1"/>
        <pt x="798" y="-20" on="1"/>
        <pt x="779" y="-40" on="1"/>
        <pt x="655" y="-164" on="0"/>
        <pt x="514" y="-202" on="1"/>
        <pt x="467" y="-214" on="0"/>
        <pt x="421" y="-214" on="1"/>
        <pt x="372" y="-214" on="0"/>
        <pt x="281" y="-185" on="0"/>
        <pt x="256" y="-160" on="1"/>
        <pt x="290" y="-96" on="0"/>
        <pt x="306" y="-63" on="1"/>
        <pt x="313" y="-64" on="1"/>
        <pt x="320" y="-66" on="1"/>
        <pt x="326" y="-79" on="1"/>
        <pt x="346" y="-124" on="0"/>
        <pt x="412" y="-166" on="0"/>
        <pt x="470" y="-166" on="1"/>
        <pt x="576" y="-166" on="0"/>
        <pt x="644" y="-101" on="1"/>
        <pt x="750" y="8" on="0"/>
        <pt x="750" y="292" on="1"/>
        <pt x="750" y="397" on="0"/>
        <pt x="731" y="469" on="1"/>
        <pt x="713" y="543" on="0"/>
        <pt x="642" y="563" on="1"/>
        <pt x="634" y="565" on="0"/>
        <pt x="600" y="565" on="0"/>
        <pt x="593" y="563" on="1"/>
        <pt x="552" y="553" on="0"/>
        <pt x="513" y="509" on="1"/>
        <pt x="506" y="501" on="1"/>
      </contour>
    </TTGlyph>
    <TTGlyph name="Z" xMin="-4" yMin="-148" xMax="624" yMax="677">
      <contour>
        <pt x="208" y="291" on="1"/>
        <pt x="251" y="359" on="1"/>
        <pt x="250" y="360" on="0"/>
        <pt x="248" y="360" on="1"/>
        <pt x="239" y="360" on="0"/>
        <pt x="248" y="371" on="1"/>
        <pt x="256" y="381" on="1"/>
        <pt x="273" y="381" on="1"/>
        <pt x="345" y="385" on="0"/>
        <pt x="413" y="432" on="0"/>
        <pt x="413" y="495" on="1"/>
        <pt x="413" y="517" on="0"/>
        <pt x="411" y="523" on="1"/>
        <pt x="401" y="561" on="0"/>
        <pt x="331" y="601" on="0"/>
        <pt x="278" y="601" on="1"/>
        <pt x="263" y="601" on="0"/>
        <pt x="234" y="597" on="0"/>
        <pt x="214" y="593" on="0"/>
        <pt x="187" y="580" on="0"/>
        <pt x="176" y="576" on="0"/>
        <pt x="148" y="555" on="0"/>
        <pt x="143" y="552" on="0"/>
        <pt x="112" y="526" on="0"/>
        <pt x="111" y="525" on="1"/>
        <pt x="99" y="541" on="0"/>
        <pt x="93" y="550" on="1"/>
        <pt x="98" y="554" on="1"/>
        <pt x="125" y="580" on="0"/>
        <pt x="235" y="665" on="0"/>
        <pt x="244" y="667" on="1"/>
        <pt x="287" y="677" on="0"/>
        <pt x="356" y="677" on="1"/>
        <pt x="441" y="677" on="0"/>
        <pt x="549" y="619" on="0"/>
        <pt x="549" y="555" on="1"/>
        <pt x="549" y="479" on="0"/>
        <pt x="486" y="427" on="1"/>
        <pt x="429" y="382" on="0"/>
        <pt x="377" y="372" on="1"/>
        <pt x="365" y="370" on="0"/>
        <pt x="365" y="367" on="1"/>
        <pt x="365" y="365" on="0"/>
        <pt x="410" y="364" on="0"/>
        <pt x="489" y="352" on="0"/>
        <pt x="521" y="337" on="1"/>
        <pt x="624" y="289" on="0"/>
        <pt x="624" y="161" on="1"/>
        <pt x="624" y="20" on="0"/>
        <pt x="524" y="-60" on="1"/>
        <pt x="441" y="-126" on="0"/>
        <pt x="344" y="-143" on="1"/>
        <pt x="311" y="-148" on="0"/>
        <pt x="285" y="-148" on="1"/>
        <pt x="242" y="-148" on="0"/>
        <pt x="213" y="-139" on="1"/>
        <pt x="181" y="-131" on="0"/>
        <pt x="159" y="-109" on="1"/>
        <pt x="125" y="-77" on="0"/>
        <pt x="116" y="-4" on="1"/>
        <pt x="111" y="38" on="0"/>
        <pt x="91" y="69" on="0"/>
        <pt x="57" y="69" on="1"/>
        <pt x="38" y="69" on="0"/>
        <pt x="1" y="53" on="1"/>
        <pt x="-4" y="76" on="1"/>
        <pt x="-3" y="77" on="0"/>
        <pt x="12" y="86" on="0"/>
        <pt x="32" y="98" on="0"/>
        <pt x="38" y="101" on="1"/>
        <pt x="97" y="134" on="0"/>
        <pt x="138" y="142" on="1"/>
        <pt x="150" y="144" on="0"/>
        <pt x="162" y="144" on="1"/>
        <pt x="215" y="144" on="0"/>
        <pt x="228" y="120" on="1"/>
        <pt x="242" y="100" on="0"/>
        <pt x="242" y="31" on="1"/>
        <pt x="242" y="-36" on="0"/>
        <pt x="287" y="-102" on="0"/>
        <pt x="345" y="-102" on="1"/>
        <pt x="392" y="-102" on="0"/>
        <pt x="438" y="-58" on="1"/>
        <pt x="491" y="-5" on="0"/>
        <pt x="491" y="107" on="1"/>
        <pt x="491" y="161" on="0"/>
        <pt x="458" y="247" on="0"/>
        <pt x="428" y="265" on="1"/>
        <pt x="392" y="288" on="0"/>
        <pt x="306" y="288" on="1"/>
        <pt x="269" y="288" on="0"/>
        <pt x="233" y="284" on="1"/>
        <pt x="218" y="282" on="1"/>
        <pt x="217" y="283" on="0"/>
        <pt x="212" y="287" on="0"/>
        <pt x="208" y="290" on="0"/>
      </contour>
    </TTGlyph>
    <TTGlyph name="a" xMin="80" yMin="-31" xMax="586" yMax="472">
      <contour>
        <pt x="80" y="129" on="1"/>
        <pt x="80" y="245" on="0"/>
        <pt x="99" y="363" on="1"/>
        <pt x="99" y="367" on="0"/>
        <pt x="114" y="373" on="1"/>
        <pt x="194" y="409" on="0"/>
        <pt x="285" y="465" on="1"/>
        <pt x="297" y="472" on="1"/>
        <pt x="339" y="456" on="0"/>
        <pt x="405" y="443" on="1"/>
        <pt x="423" y="440" on="1"/>
        <pt x="455" y="453" on="1"/>
        <pt x="486" y="467" on="0"/>
        <pt x="489" y="467" on="1"/>
        <pt x="491" y="466" on="1"/>
        <pt x="493" y="464" on="0"/>
        <pt x="496" y="461" on="0"/>
        <pt x="497" y="461" on="1"/>
        <pt x="494" y="451" on="1"/>
        <pt x="480" y="390" on="0"/>
        <pt x="480" y="283" on="1"/>
        <pt x="480" y="207" on="0"/>
        <pt x="483" y="155" on="1"/>
        <pt x="484" y="143" on="1"/>
        <pt x="535" y="80" on="1"/>
        <pt x="558" y="90" on="1"/>
        <pt x="582" y="99" on="1"/>
        <pt x="586" y="95" on="0"/>
        <pt x="586" y="83" on="1"/>
        <pt x="586" y="81" on="0"/>
        <pt x="513" y="25" on="1"/>
        <pt x="443" y="-29" on="1"/>
        <pt x="403" y="23" on="0"/>
        <pt x="386" y="40" on="1"/>
        <pt x="371" y="55" on="1"/>
        <pt x="371" y="61" on="1"/>
        <pt x="371" y="63" on="0"/>
        <pt x="370" y="72" on="0"/>
        <pt x="370" y="74" on="1"/>
        <pt x="370" y="80" on="1"/>
        <pt x="278" y="25" on="1"/>
        <pt x="186" y="-29" on="0"/>
        <pt x="184" y="-31" on="1"/>
        <pt x="179" y="-33" on="0"/>
        <pt x="87" y="60" on="0"/>
        <pt x="80" y="75" on="1"/>
      </contour>
      <contour>
        <pt x="241" y="383" on="1"/>
        <pt x="224" y="388" on="0"/>
        <pt x="221" y="388" on="1"/>
        <pt x="219" y="388" on="0"/>
        <pt x="210" y="367" on="1"/>
        <pt x="194" y="325" on="0"/>
        <pt x="194" y="228" on="1"/>
        <pt x="194" y="191" on="0"/>
        <pt x="197" y="152" on="1"/>
        <pt x="198" y="139" on="1"/>
        <pt x="217" y="120" on="1"/>
        <pt x="245" y="92" on="0"/>
        <pt x="269" y="74" on="1"/>
        <pt x="279" y="66" on="1"/>
        <pt x="304" y="78" on="1"/>
        <pt x="338" y="95" on="0"/>
        <pt x="349" y="100" on="1"/>
        <pt x="369" y="110" on="1"/>
        <pt x="369" y="152" on="1"/>
        <pt x="368" y="164" on="0"/>
        <pt x="367" y="256" on="0"/>
        <pt x="367" y="275" on="1"/>
        <pt x="367" y="358" on="0"/>
        <pt x="366" y="361" on="1"/>
        <pt x="366" y="366" on="1"/>
        <pt x="359" y="366" on="1"/>
        <pt x="314" y="366" on="0"/>
      </contour>
    </TTGlyph>
    <TTGlyph name="ampersand" xMin="44" yMin="-16" xMax="839" yMax="696">
      <contour>
        <pt x="833" y="351" on="1"/>
        <pt x="801" y="352" on="1"/>
        <pt x="769" y="352" on="0"/>
        <pt x="701" y="354" on="0"/>
        <pt x="696" y="354" on="1"/>
        <pt x="680" y="354" on="0"/>
        <pt x="680" y="353" on="1"/>
        <pt x="685" y="313" on="0"/>
        <pt x="685" y="306" on="1"/>
        <pt x="685" y="205" on="0"/>
        <pt x="606" y="114" on="1"/>
        <pt x="602" y="110" on="0"/>
        <pt x="602" y="109" on="1"/>
        <pt x="610" y="101" on="0"/>
        <pt x="647" y="85" on="1"/>
        <pt x="680" y="71" on="0"/>
        <pt x="707" y="71" on="1"/>
        <pt x="730" y="71" on="0"/>
        <pt x="747" y="82" on="1"/>
        <pt x="780" y="102" on="0"/>
        <pt x="811" y="174" on="1"/>
        <pt x="815" y="183" on="1"/>
        <pt x="815" y="184" on="0"/>
        <pt x="827" y="181" on="0"/>
        <pt x="839" y="178" on="0"/>
        <pt x="839" y="177" on="1"/>
        <pt x="839" y="169" on="0"/>
        <pt x="828" y="140" on="1"/>
        <pt x="815" y="104" on="0"/>
        <pt x="794" y="69" on="1"/>
        <pt x="737" y="-16" on="0"/>
        <pt x="648" y="-16" on="1"/>
        <pt x="569" y="-16" on="0"/>
        <pt x="499" y="35" on="1"/>
        <pt x="497" y="37" on="0"/>
        <pt x="489" y="33" on="1"/>
        <pt x="445" y="13" on="0"/>
        <pt x="392" y="0" on="1"/>
        <pt x="339" y="-14" on="0"/>
        <pt x="290" y="-14" on="1"/>
        <pt x="200" y="-14" on="0"/>
        <pt x="67" y="72" on="0"/>
        <pt x="49" y="140" on="1"/>
        <pt x="44" y="158" on="0"/>
        <pt x="44" y="185" on="1"/>
        <pt x="44" y="257" on="0"/>
        <pt x="92" y="305" on="1"/>
        <pt x="117" y="330" on="0"/>
        <pt x="189" y="371" on="1"/>
        <pt x="216" y="387" on="0"/>
        <pt x="216" y="388" on="1"/>
        <pt x="185" y="459" on="0"/>
        <pt x="185" y="510" on="1"/>
        <pt x="185" y="603" on="0"/>
        <pt x="246" y="647" on="1"/>
        <pt x="310" y="696" on="0"/>
        <pt x="405" y="696" on="1"/>
        <pt x="531" y="696" on="0"/>
        <pt x="531" y="603" on="1"/>
        <pt x="531" y="570" on="0"/>
        <pt x="517" y="545" on="1"/>
        <pt x="500" y="511" on="0"/>
        <pt x="450" y="476" on="1"/>
        <pt x="423" y="459" on="0"/>
        <pt x="370" y="432" on="1"/>
        <pt x="334" y="413" on="1"/>
        <pt x="354" y="384" on="1"/>
        <pt x="424" y="284" on="0"/>
        <pt x="478" y="222" on="1"/>
        <pt x="523" y="171" on="0"/>
        <pt x="560" y="139" on="1"/>
        <pt x="563" y="137" on="1"/>
        <pt x="611" y="185" on="0"/>
        <pt x="611" y="250" on="1"/>
        <pt x="611" y="295" on="0"/>
        <pt x="577" y="329" on="1"/>
        <pt x="549" y="356" on="0"/>
        <pt x="496" y="357" on="1"/>
        <pt x="439" y="357" on="0"/>
        <pt x="433" y="354" on="1"/>
        <pt x="432" y="354" on="0"/>
        <pt x="432" y="379" on="1"/>
        <pt x="432" y="403" on="1"/>
        <pt x="437" y="402" on="1"/>
        <pt x="452" y="402" on="0"/>
        <pt x="536" y="400" on="0"/>
        <pt x="557" y="400" on="1"/>
        <pt x="658" y="400" on="0"/>
        <pt x="791" y="406" on="1"/>
        <pt x="809" y="407" on="0"/>
        <pt x="831" y="407" on="1"/>
        <pt x="836" y="407" on="1"/>
        <pt x="833" y="352" on="0"/>
      </contour>
      <contour>
        <pt x="418" y="592" on="1"/>
        <pt x="418" y="618" on="0"/>
        <pt x="377" y="661" on="0"/>
        <pt x="352" y="661" on="1"/>
        <pt x="316" y="661" on="0"/>
        <pt x="278" y="613" on="0"/>
        <pt x="278" y="574" on="1"/>
        <pt x="278" y="524" on="0"/>
        <pt x="302" y="475" on="1"/>
        <pt x="316" y="447" on="0"/>
        <pt x="319" y="444" on="1"/>
        <pt x="346" y="459" on="0"/>
        <pt x="356" y="466" on="1"/>
        <pt x="418" y="503" on="0"/>
        <pt x="418" y="584" on="1"/>
      </contour>
      <contour>
        <pt x="159" y="239" on="1"/>
        <pt x="159" y="160" on="0"/>
        <pt x="282" y="38" on="0"/>
        <pt x="364" y="38" on="1"/>
        <pt x="386" y="38" on="0"/>
        <pt x="447" y="57" on="1"/>
        <pt x="469" y="63" on="1"/>
        <pt x="434" y="98" on="1"/>
        <pt x="346" y="188" on="0"/>
        <pt x="286" y="275" on="1"/>
        <pt x="248" y="330" on="0"/>
        <pt x="235" y="350" on="1"/>
        <pt x="234" y="353" on="0"/>
        <pt x="232" y="353" on="1"/>
        <pt x="226" y="350" on="0"/>
        <pt x="220" y="346" on="1"/>
        <pt x="188" y="328" on="0"/>
        <pt x="172" y="299" on="1"/>
        <pt x="159" y="272" on="0"/>
      </contour>
    </TTGlyph>
    <TTGlyph name="asciicircum" xMin="1" yMin="452" xMax="584" yMax="734">
      <contour>
        <pt x="293" y="672" on="1"/>
        <pt x="292" y="672" on="0"/>
        <pt x="28" y="453" on="0"/>
        <pt x="28" y="452" on="1"/>
        <pt x="27" y="452" on="0"/>
        <pt x="1" y="463" on="0"/>
        <pt x="1" y="465" on="0"/>
        <pt x="295" y="734" on="0"/>
        <pt x="296" y="734" on="1"/>
        <pt x="584" y="486" on="0"/>
        <pt x="584" y="485" on="1"/>
        <pt x="573" y="479" on="0"/>
        <pt x="561" y="472" on="1"/>
        <pt x="538" y="459" on="0"/>
        <pt x="537" y="461" on="1"/>
        <pt x="296" y="672" on="0"/>
      </contour>
    </TTGlyph>
    <TTGlyph name="asterisk" xMin="40" yMin="449" xMax="277" yMax="692">
      <contour>
        <pt x="53" y="495" on="1"/>
        <pt x="40" y="516" on="1"/>
        <pt x="44" y="518" on="1"/>
        <pt x="47" y="520" on="0"/>
        <pt x="61" y="528" on="0"/>
        <pt x="66" y="531" on="1"/>
        <pt x="123" y="561" on="0"/>
        <pt x="140" y="574" on="1"/>
        <pt x="126" y="582" on="1"/>
        <pt x="113" y="590" on="0"/>
        <pt x="40" y="629" on="1"/>
        <pt x="50" y="639" on="0"/>
        <pt x="57" y="645" on="1"/>
        <pt x="65" y="652" on="1"/>
        <pt x="78" y="642" on="1"/>
        <pt x="106" y="620" on="0"/>
        <pt x="132" y="603" on="1"/>
        <pt x="152" y="589" on="1"/>
        <pt x="152" y="595" on="1"/>
        <pt x="152" y="630" on="0"/>
        <pt x="149" y="681" on="1"/>
        <pt x="149" y="692" on="1"/>
        <pt x="179" y="692" on="1"/>
        <pt x="179" y="689" on="1"/>
        <pt x="178" y="681" on="0"/>
        <pt x="170" y="594" on="0"/>
        <pt x="171" y="593" on="1"/>
        <pt x="173" y="593" on="0"/>
        <pt x="240" y="639" on="1"/>
        <pt x="258" y="652" on="1"/>
        <pt x="260" y="652" on="0"/>
        <pt x="267" y="643" on="1"/>
        <pt x="276" y="633" on="1"/>
        <pt x="260" y="625" on="1"/>
        <pt x="190" y="587" on="0"/>
        <pt x="175" y="576" on="1"/>
        <pt x="173" y="575" on="0"/>
        <pt x="180" y="570" on="1"/>
        <pt x="183" y="569" on="0"/>
        <pt x="186" y="567" on="1"/>
        <pt x="213" y="549" on="0"/>
        <pt x="256" y="527" on="1"/>
        <pt x="277" y="515" on="1"/>
        <pt x="270" y="509" on="0"/>
        <pt x="256" y="495" on="1"/>
        <pt x="247" y="501" on="0"/>
        <pt x="177" y="550" on="0"/>
        <pt x="170" y="554" on="1"/>
        <pt x="170" y="543" on="1"/>
        <pt x="170" y="486" on="0"/>
        <pt x="178" y="449" on="1"/>
        <pt x="148" y="449" on="1"/>
        <pt x="148" y="456" on="1"/>
        <pt x="152" y="492" on="0"/>
        <pt x="152" y="550" on="1"/>
        <pt x="151" y="562" on="1"/>
        <pt x="147" y="562" on="0"/>
        <pt x="72" y="508" on="1"/>
      </contour>
    </TTGlyph>
    <TTGlyph name="b" xMin="86" yMin="-32" xMax="504" yMax="690">
      <contour>
        <pt x="131" y="596" on="1"/>
        <pt x="214" y="649" on="0"/>
        <pt x="273" y="678" on="1"/>
        <pt x="295" y="690" on="0"/>
        <pt x="298" y="690" on="1"/>
        <pt x="317" y="679" on="1"/>
        <pt x="315" y="678" on="0"/>
        <pt x="303" y="670" on="0"/>
        <pt x="293" y="662" on="0"/>
        <pt x="289" y="659" on="1"/>
        <pt x="263" y="639" on="0"/>
        <pt x="240" y="612" on="1"/>
        <pt x="210" y="569" on="0"/>
        <pt x="210" y="459" on="1"/>
        <pt x="210" y="450" on="0"/>
        <pt x="211" y="414" on="0"/>
        <pt x="211" y="406" on="1"/>
        <pt x="212" y="378" on="1"/>
        <pt x="285" y="425" on="1"/>
        <pt x="301" y="435" on="0"/>
        <pt x="341" y="460" on="0"/>
        <pt x="350" y="466" on="1"/>
        <pt x="360" y="472" on="1"/>
        <pt x="362" y="474" on="0"/>
        <pt x="380" y="465" on="1"/>
        <pt x="401" y="455" on="0"/>
        <pt x="465" y="429" on="1"/>
        <pt x="501" y="414" on="1"/>
        <pt x="501" y="408" on="1"/>
        <pt x="504" y="386" on="0"/>
        <pt x="504" y="309" on="1"/>
        <pt x="504" y="225" on="0"/>
        <pt x="494" y="154" on="1"/>
        <pt x="488" y="102" on="0"/>
        <pt x="485" y="97" on="1"/>
        <pt x="485" y="93" on="0"/>
        <pt x="385" y="42" on="1"/>
        <pt x="300" y="0" on="0"/>
        <pt x="237" y="-24" on="1"/>
        <pt x="214" y="-32" on="1"/>
        <pt x="199" y="-23" on="0"/>
        <pt x="135" y="27" on="0"/>
        <pt x="85" y="71" on="0"/>
        <pt x="87" y="73" on="1"/>
        <pt x="99" y="170" on="0"/>
        <pt x="99" y="398" on="1"/>
        <pt x="99" y="476" on="0"/>
        <pt x="97" y="524" on="1"/>
        <pt x="93" y="632" on="0"/>
        <pt x="86" y="662" on="1"/>
        <pt x="86" y="663" on="0"/>
        <pt x="104" y="674" on="0"/>
        <pt x="106" y="674" on="1"/>
        <pt x="108" y="669" on="1"/>
        <pt x="109" y="664" on="0"/>
        <pt x="116" y="643" on="0"/>
        <pt x="119" y="635" on="1"/>
        <pt x="122" y="626" on="0"/>
        <pt x="128" y="606" on="0"/>
        <pt x="130" y="601" on="1"/>
      </contour>
      <contour>
        <pt x="386" y="251" on="1"/>
        <pt x="386" y="311" on="0"/>
        <pt x="380" y="347" on="1"/>
        <pt x="380" y="350" on="1"/>
        <pt x="354" y="358" on="1"/>
        <pt x="346" y="361" on="0"/>
        <pt x="311" y="372" on="0"/>
        <pt x="305" y="374" on="1"/>
        <pt x="282" y="382" on="1"/>
        <pt x="270" y="376" on="0"/>
        <pt x="226" y="354" on="0"/>
        <pt x="214" y="348" on="1"/>
        <pt x="213" y="274" on="1"/>
        <pt x="213" y="184" on="0"/>
        <pt x="214" y="165" on="1"/>
        <pt x="214" y="131" on="1"/>
        <pt x="230" y="119" on="1"/>
        <pt x="299" y="69" on="0"/>
        <pt x="341" y="57" on="1"/>
        <pt x="349" y="54" on="1"/>
        <pt x="363" y="88" on="0"/>
        <pt x="367" y="101" on="1"/>
        <pt x="386" y="164" on="0"/>
      </contour>
    </TTGlyph>
    <TTGlyph name="bracketleft" xMin="36" yMin="-130" xMax="226" yMax="740">
      <contour>
        <pt x="226" y="711" on="0"/>
        <pt x="224" y="711" on="0"/>
        <pt x="86" y="699" on="1"/>
        <pt x="86" y="-93" on="1"/>
        <pt x="89" y="-93" on="1"/>
        <pt x="94" y="-93" on="0"/>
        <pt x="221" y="-99" on="0"/>
        <pt x="223" y="-100" on="1"/>
        <pt x="226" y="-100" on="1"/>
        <pt x="226" y="-119" on="1"/>
        <pt x="223" y="-119" on="1"/>
        <pt x="134" y="-119" on="0"/>
        <pt x="42" y="-130" on="1"/>
        <pt x="36" y="-130" on="1"/>
        <pt x="36" y="740" on="1"/>
        <pt x="42" y="740" on="1"/>
        <pt x="61" y="738" on="0"/>
        <pt x="156" y="736" on="1"/>
        <pt x="226" y="736" on="1"/>
        <pt x="226" y="723" on="1"/>
      </contour>
    </TTGlyph>
    <TTGlyph name="bracketright" xMin="14" yMin="-132" xMax="208" yMax="738">
      <contour>
        <pt x="151" y="699" on="1"/>
        <pt x="149" y="699" on="0"/>
        <pt x="21" y="707" on="0"/>
        <pt x="18" y="708" on="1"/>
        <pt x="14" y="708" on="1"/>
        <pt x="14" y="732" on="1"/>
        <pt x="69" y="732" on="1"/>
        <pt x="157" y="734" on="0"/>
        <pt x="188" y="736" on="1"/>
        <pt x="191" y="736" on="0"/>
        <pt x="198" y="737" on="1"/>
        <pt x="205" y="738" on="0"/>
        <pt x="206" y="738" on="1"/>
        <pt x="208" y="738" on="1"/>
        <pt x="208" y="-132" on="1"/>
        <pt x="185" y="-128" on="0"/>
        <pt x="66" y="-124" on="1"/>
        <pt x="14" y="-124" on="1"/>
        <pt x="14" y="-103" on="1"/>
        <pt x="19" y="-103" on="1"/>
        <pt x="21" y="-103" on="0"/>
        <pt x="150" y="-93" on="0"/>
        <pt x="152" y="-92" on="1"/>
        <pt x="158" y="-92" on="1"/>
        <pt x="158" y="699" on="1"/>
      </contour>
    </TTGlyph>
    <TTGlyph name="c" xMin="87" yMin="-26" xMax="424" yMax="473">
      <contour>
        <pt x="198" y="419" on="1"/>
        <pt x="295" y="473" on="1"/>
        <pt x="311" y="470" on="1"/>
        <pt x="352" y="461" on="0"/>
        <pt x="385" y="448" on="1"/>
        <pt x="424" y="430" on="0"/>
        <pt x="424" y="429" on="1"/>
        <pt x="407" y="407" on="0"/>
        <pt x="386" y="381" on="1"/>
        <pt x="347" y="334" on="1"/>
        <pt x="342" y="333" on="1"/>
        <pt x="337" y="333" on="1"/>
        <pt x="325" y="342" on="1"/>
        <pt x="284" y="375" on="0"/>
        <pt x="243" y="390" on="1"/>
        <pt x="234" y="393" on="0"/>
        <pt x="228" y="393" on="1"/>
        <pt x="216" y="393" on="0"/>
        <pt x="211" y="354" on="1"/>
        <pt x="205" y="316" on="0"/>
        <pt x="205" y="269" on="1"/>
        <pt x="205" y="225" on="0"/>
        <pt x="209" y="180" on="1"/>
        <pt x="211" y="155" on="0"/>
        <pt x="213" y="153" on="1"/>
        <pt x="216" y="149" on="0"/>
        <pt x="259" y="112" on="1"/>
        <pt x="262" y="110" on="0"/>
        <pt x="312" y="72" on="1"/>
        <pt x="365" y="92" on="1"/>
        <pt x="414" y="113" on="0"/>
        <pt x="418" y="113" on="1"/>
        <pt x="418" y="93" on="1"/>
        <pt x="365" y="60" on="1"/>
        <pt x="251" y="-10" on="0"/>
        <pt x="221" y="-26" on="1"/>
        <pt x="211" y="-18" on="1"/>
        <pt x="158" y="21" on="0"/>
        <pt x="91" y="88" on="1"/>
        <pt x="90" y="107" on="1"/>
        <pt x="87" y="167" on="0"/>
        <pt x="87" y="225" on="1"/>
        <pt x="87" y="258" on="0"/>
        <pt x="89" y="288" on="1"/>
        <pt x="94" y="363" on="0"/>
        <pt x="100" y="366" on="1"/>
        <pt x="144" y="390" on="0"/>
      </contour>
    </TTGlyph>
    <TTGlyph name="colon" xMin="57" yMin="-12" xMax="197" yMax="457">
      <contour>
        <pt x="57" y="398" on="1"/>
        <pt x="57" y="423" on="0"/>
        <pt x="91" y="457" on="0"/>
        <pt x="117" y="457" on="1"/>
        <pt x="148" y="457" on="0"/>
        <pt x="194" y="424" on="0"/>
        <pt x="194" y="398" on="1"/>
        <pt x="194" y="374" on="0"/>
        <pt x="149" y="343" on="0"/>
        <pt x="119" y="343" on="1"/>
        <pt x="91" y="343" on="0"/>
        <pt x="57" y="375" on="0"/>
      </contour>
      <contour>
        <pt x="62" y="19" on="0"/>
        <pt x="62" y="67" on="0"/>
        <pt x="92" y="104" on="0"/>
        <pt x="115" y="104" on="1"/>
        <pt x="169" y="104" on="0"/>
        <pt x="189" y="70" on="1"/>
        <pt x="197" y="59" on="0"/>
        <pt x="197" y="42" on="1"/>
        <pt x="197" y="16" on="0"/>
        <pt x="151" y="-12" on="0"/>
        <pt x="119" y="-12" on="1"/>
        <pt x="95" y="-12" on="0"/>
      </contour>
    </TTGlyph>
    <TTGlyph name="comma" xMin="118" yMin="-191" xMax="253" yMax="107">
      <contour>
        <pt x="118" y="61" on="1"/>
        <pt x="118" y="79" on="0"/>
        <pt x="150" y="107" on="0"/>
        <pt x="169" y="107" on="1"/>
        <pt x="180" y="107" on="0"/>
        <pt x="185" y="103" on="1"/>
        <pt x="195" y="98" on="0"/>
        <pt x="214" y="73" on="1"/>
        <pt x="245" y="32" on="0"/>
        <pt x="251" y="2" on="1"/>
        <pt x="253" y="-10" on="0"/>
        <pt x="253" y="-23" on="1"/>
        <pt x="253" y="-26" on="0"/>
        <pt x="252" y="-37" on="0"/>
        <pt x="252" y="-39" on="1"/>
        <pt x="247" y="-75" on="0"/>
        <pt x="198" y="-133" on="1"/>
        <pt x="148" y="-191" on="0"/>
        <pt x="144" y="-191" on="1"/>
        <pt x="143" y="-191" on="0"/>
        <pt x="131" y="-173" on="0"/>
        <pt x="132" y="-172" on="1"/>
        <pt x="146" y="-158" on="0"/>
        <pt x="178" y="-100" on="0"/>
        <pt x="183" y="-83" on="1"/>
        <pt x="185" y="-77" on="0"/>
        <pt x="185" y="-62" on="1"/>
        <pt x="185" y="-39" on="0"/>
        <pt x="176" y="-26" on="1"/>
        <pt x="174" y="-23" on="0"/>
        <pt x="124" y="37" on="0"/>
        <pt x="124" y="38" on="1"/>
        <pt x="118" y="50" on="0"/>
      </contour>
    </TTGlyph>
    <TTGlyph name="d" xMin="-1" yMin="-28" xMax="511" yMax="632">
      <contour>
        <pt x="24" y="569" on="1"/>
        <pt x="89" y="601" on="0"/>
        <pt x="177" y="632" on="1"/>
        <pt x="182" y="631" on="0"/>
        <pt x="187" y="629" on="1"/>
        <pt x="319" y="596" on="0"/>
        <pt x="484" y="488" on="1"/>
        <pt x="504" y="475" on="0"/>
        <pt x="504" y="472" on="1"/>
        <pt x="507" y="463" on="0"/>
        <pt x="510" y="411" on="1"/>
        <pt x="510" y="406" on="0"/>
        <pt x="511" y="374" on="0"/>
        <pt x="511" y="365" on="1"/>
        <pt x="511" y="243" on="0"/>
        <pt x="474" y="129" on="1"/>
        <pt x="468" y="108" on="1"/>
        <pt x="451" y="96" on="1"/>
        <pt x="427" y="77" on="0"/>
        <pt x="370" y="41" on="1"/>
        <pt x="270" y="-22" on="0"/>
        <pt x="254" y="-28" on="1"/>
        <pt x="249" y="-26" on="1"/>
        <pt x="159" y="25" on="0"/>
        <pt x="93" y="82" on="1"/>
        <pt x="89" y="86" on="1"/>
        <pt x="88" y="117" on="1"/>
        <pt x="88" y="191" on="0"/>
        <pt x="91" y="239" on="1"/>
        <pt x="96" y="324" on="0"/>
        <pt x="102" y="341" on="1"/>
        <pt x="102" y="343" on="0"/>
        <pt x="116" y="355" on="1"/>
        <pt x="166" y="398" on="0"/>
        <pt x="239" y="447" on="1"/>
        <pt x="257" y="459" on="1"/>
        <pt x="268" y="454" on="1"/>
        <pt x="278" y="449" on="1"/>
        <pt x="245" y="419" on="0"/>
        <pt x="238" y="412" on="1"/>
        <pt x="219" y="394" on="1"/>
        <pt x="218" y="387" on="1"/>
        <pt x="203" y="328" on="0"/>
        <pt x="203" y="249" on="1"/>
        <pt x="203" y="211" on="0"/>
        <pt x="206" y="166" on="1"/>
        <pt x="208" y="148" on="1"/>
        <pt x="224" y="132" on="0"/>
        <pt x="256" y="112" on="1"/>
        <pt x="292" y="87" on="0"/>
        <pt x="333" y="70" on="1"/>
        <pt x="341" y="66" on="0"/>
        <pt x="344" y="68" on="0"/>
        <pt x="350" y="79" on="1"/>
        <pt x="393" y="160" on="0"/>
        <pt x="393" y="302" on="1"/>
        <pt x="393" y="368" on="0"/>
        <pt x="388" y="406" on="1"/>
        <pt x="388" y="411" on="1"/>
        <pt x="371" y="424" on="1"/>
        <pt x="227" y="536" on="0"/>
        <pt x="139" y="554" on="1"/>
        <pt x="115" y="558" on="0"/>
        <pt x="101" y="558" on="1"/>
        <pt x="69" y="558" on="0"/>
        <pt x="28" y="545" on="1"/>
        <pt x="18" y="542" on="1"/>
        <pt x="8" y="549" on="1"/>
        <pt x="-1" y="557" on="1"/>
      </contour>
    </TTGlyph>
    <TTGlyph name="e" xMin="81" yMin="-27" xMax="428" yMax="471">
      <contour>
        <pt x="116" y="381" on="1"/>
        <pt x="219" y="437" on="0"/>
        <pt x="286" y="471" on="1"/>
        <pt x="380" y="394" on="0"/>
        <pt x="414" y="372" on="1"/>
        <pt x="428" y="362" on="1"/>
        <pt x="428" y="360" on="0"/>
        <pt x="375" y="318" on="1"/>
        <pt x="290" y="254" on="0"/>
        <pt x="216" y="201" on="1"/>
        <pt x="188" y="181" on="1"/>
        <pt x="188" y="170" on="1"/>
        <pt x="188" y="156" on="0"/>
        <pt x="189" y="153" on="1"/>
        <pt x="189" y="148" on="1"/>
        <pt x="203" y="138" on="1"/>
        <pt x="228" y="119" on="0"/>
        <pt x="305" y="69" on="0"/>
        <pt x="309" y="69" on="1"/>
        <pt x="310" y="69" on="0"/>
        <pt x="326" y="75" on="0"/>
        <pt x="354" y="85" on="0"/>
        <pt x="365" y="89" on="1"/>
        <pt x="386" y="96" on="0"/>
        <pt x="416" y="108" on="1"/>
        <pt x="417" y="107" on="0"/>
        <pt x="426" y="93" on="0"/>
        <pt x="425" y="92" on="1"/>
        <pt x="419" y="86" on="0"/>
        <pt x="338" y="37" on="1"/>
        <pt x="234" y="-27" on="0"/>
        <pt x="229" y="-27" on="1"/>
        <pt x="225" y="-27" on="0"/>
        <pt x="183" y="4" on="1"/>
        <pt x="128" y="47" on="0"/>
        <pt x="97" y="76" on="1"/>
        <pt x="85" y="87" on="1"/>
        <pt x="84" y="106" on="1"/>
        <pt x="81" y="152" on="0"/>
        <pt x="81" y="194" on="1"/>
        <pt x="81" y="294" on="0"/>
        <pt x="93" y="359" on="1"/>
        <pt x="95" y="369" on="1"/>
      </contour>
      <contour>
        <pt x="246" y="366" on="1"/>
        <pt x="229" y="376" on="0"/>
        <pt x="217" y="385" on="1"/>
        <pt x="212" y="390" on="0"/>
        <pt x="210" y="390" on="1"/>
        <pt x="209" y="390" on="0"/>
        <pt x="209" y="388" on="0"/>
        <pt x="207" y="379" on="0"/>
        <pt x="204" y="364" on="0"/>
        <pt x="202" y="357" on="1"/>
        <pt x="188" y="288" on="0"/>
        <pt x="187" y="244" on="1"/>
        <pt x="187" y="225" on="0"/>
        <pt x="189" y="225" on="0"/>
        <pt x="201" y="233" on="1"/>
        <pt x="242" y="258" on="1"/>
        <pt x="283" y="284" on="0"/>
        <pt x="291" y="291" on="1"/>
        <pt x="324" y="313" on="0"/>
        <pt x="324" y="316" on="1"/>
        <pt x="311" y="324" on="0"/>
        <pt x="296" y="334" on="1"/>
        <pt x="283" y="341" on="0"/>
      </contour>
    </TTGlyph>
    <TTGlyph name="eight" xMin="45" yMin="-5" xMax="542" yMax="714">
      <contour>
        <pt x="298" y="712" on="1"/>
        <pt x="306" y="714" on="0"/>
        <pt x="307" y="714" on="1"/>
        <pt x="362" y="714" on="0"/>
        <pt x="462" y="683" on="0"/>
        <pt x="486" y="659" on="1"/>
        <pt x="518" y="625" on="0"/>
        <pt x="518" y="585" on="1"/>
        <pt x="518" y="556" on="0"/>
        <pt x="503" y="525" on="1"/>
        <pt x="471" y="459" on="0"/>
        <pt x="384" y="406" on="1"/>
        <pt x="371" y="398" on="1"/>
        <pt x="385" y="390" on="1"/>
        <pt x="444" y="356" on="0"/>
        <pt x="466" y="340" on="1"/>
        <pt x="497" y="316" on="0"/>
        <pt x="542" y="242" on="0"/>
        <pt x="542" y="204" on="1"/>
        <pt x="542" y="192" on="0"/>
        <pt x="541" y="186" on="1"/>
        <pt x="532" y="126" on="0"/>
        <pt x="484" y="78" on="1"/>
        <pt x="399" y="-5" on="0"/>
        <pt x="256" y="-5" on="1"/>
        <pt x="144" y="-5" on="0"/>
        <pt x="92" y="52" on="1"/>
        <pt x="45" y="96" on="0"/>
        <pt x="45" y="165" on="1"/>
        <pt x="45" y="206" on="0"/>
        <pt x="72" y="250" on="1"/>
        <pt x="104" y="298" on="0"/>
        <pt x="212" y="346" on="1"/>
        <pt x="228" y="353" on="1"/>
        <pt x="226" y="354" on="1"/>
        <pt x="225" y="356" on="0"/>
        <pt x="218" y="361" on="0"/>
        <pt x="216" y="363" on="1"/>
        <pt x="118" y="432" on="0"/>
        <pt x="94" y="500" on="1"/>
        <pt x="88" y="516" on="0"/>
        <pt x="88" y="533" on="1"/>
        <pt x="88" y="576" on="0"/>
        <pt x="132" y="622" on="1"/>
        <pt x="185" y="673" on="0"/>
      </contour>
      <contour>
        <pt x="286" y="663" on="1"/>
        <pt x="283" y="663" on="0"/>
        <pt x="277" y="664" on="0"/>
        <pt x="274" y="664" on="1"/>
        <pt x="272" y="664" on="1"/>
        <pt x="264" y="664" on="0"/>
        <pt x="246" y="652" on="1"/>
        <pt x="199" y="621" on="0"/>
        <pt x="199" y="572" on="1"/>
        <pt x="199" y="547" on="0"/>
        <pt x="238" y="507" on="1"/>
        <pt x="268" y="475" on="0"/>
        <pt x="320" y="437" on="1"/>
        <pt x="334" y="427" on="1"/>
        <pt x="369" y="445" on="0"/>
        <pt x="392" y="488" on="1"/>
        <pt x="405" y="517" on="0"/>
        <pt x="405" y="549" on="1"/>
        <pt x="405" y="557" on="1"/>
        <pt x="405" y="574" on="0"/>
        <pt x="399" y="590" on="1"/>
        <pt x="375" y="651" on="0"/>
      </contour>
      <contour>
        <pt x="304" y="42" on="1"/>
        <pt x="359" y="42" on="0"/>
        <pt x="431" y="105" on="0"/>
        <pt x="431" y="155" on="1"/>
        <pt x="431" y="169" on="0"/>
        <pt x="426" y="186" on="1"/>
        <pt x="414" y="226" on="0"/>
        <pt x="341" y="286" on="0"/>
        <pt x="283" y="318" on="1"/>
        <pt x="263" y="328" on="1"/>
        <pt x="262" y="328" on="0"/>
        <pt x="230" y="312" on="1"/>
        <pt x="190" y="290" on="0"/>
        <pt x="160" y="241" on="0"/>
        <pt x="160" y="198" on="1"/>
        <pt x="160" y="150" on="0"/>
        <pt x="208" y="74" on="0"/>
        <pt x="243" y="56" on="1"/>
        <pt x="271" y="42" on="0"/>
      </contour>
    </TTGlyph>
    <TTGlyph name="equal" xMin="22" yMin="168" xMax="559" yMax="343">
      <contour>
        <pt x="559" y="342" on="1"/>
        <pt x="558" y="339" on="0"/>
        <pt x="550" y="307" on="0"/>
        <pt x="549" y="304" on="1"/>
        <pt x="22" y="304" on="1"/>
        <pt x="27" y="319" on="1"/>
        <pt x="28" y="323" on="0"/>
        <pt x="30" y="331" on="0"/>
        <pt x="31" y="335" on="0"/>
        <pt x="32" y="341" on="0"/>
        <pt x="33" y="343" on="1"/>
        <pt x="296" y="343" on="1"/>
        <pt x="559" y="343" on="0"/>
      </contour>
      <contour>
        <pt x="559" y="206" on="1"/>
        <pt x="558" y="203" on="0"/>
        <pt x="550" y="171" on="0"/>
        <pt x="549" y="168" on="1"/>
        <pt x="22" y="168" on="1"/>
        <pt x="27" y="183" on="1"/>
        <pt x="28" y="187" on="0"/>
        <pt x="30" y="195" on="0"/>
        <pt x="31" y="199" on="0"/>
        <pt x="32" y="205" on="0"/>
        <pt x="33" y="207" on="1"/>
        <pt x="296" y="207" on="1"/>
        <pt x="559" y="207" on="0"/>
      </contour>
    </TTGlyph>
    <TTGlyph name="exclam" xMin="107" yMin="-12" xMax="241" yMax="689">
      <contour>
        <pt x="121" y="621" on="1"/>
        <pt x="121" y="659" on="0"/>
        <pt x="145" y="689" on="0"/>
        <pt x="177" y="689" on="1"/>
        <pt x="212" y="689" on="0"/>
        <pt x="221" y="663" on="1"/>
        <pt x="223" y="658" on="0"/>
        <pt x="223" y="635" on="1"/>
        <pt x="223" y="604" on="0"/>
        <pt x="222" y="595" on="1"/>
        <pt x="221" y="590" on="0"/>
        <pt x="198" y="389" on="0"/>
        <pt x="176" y="195" on="0"/>
        <pt x="175" y="190" on="1"/>
        <pt x="175" y="186" on="1"/>
        <pt x="166" y="185" on="1"/>
        <pt x="156" y="184" on="1"/>
        <pt x="156" y="190" on="0"/>
        <pt x="121" y="601" on="0"/>
      </contour>
      <contour>
        <pt x="107" y="47" on="1"/>
        <pt x="107" y="71" on="0"/>
        <pt x="148" y="104" on="0"/>
        <pt x="174" y="104" on="1"/>
        <pt x="201" y="104" on="0"/>
        <pt x="241" y="73" on="0"/>
        <pt x="241" y="23" on="0"/>
        <pt x="201" y="-12" on="0"/>
        <pt x="174" y="-12" on="1"/>
        <pt x="146" y="-12" on="0"/>
        <pt x="107" y="24" on="0"/>
      </contour>
    </TTGlyph>
    <TTGlyph name="f" xMin="35" yMin="-222" xMax="372" yMax="687">
      <contour>
        <pt x="271" y="569" on="1"/>
        <pt x="211" y="573" on="0"/>
        <pt x="173" y="586" on="1"/>
        <pt x="173" y="583" on="1"/>
        <pt x="173" y="574" on="0"/>
        <pt x="179" y="554" on="1"/>
        <pt x="188" y="526" on="0"/>
        <pt x="217" y="476" on="1"/>
        <pt x="240" y="434" on="0"/>
        <pt x="252" y="401" on="1"/>
        <pt x="253" y="399" on="0"/>
        <pt x="367" y="399" on="0"/>
        <pt x="367" y="398" on="1"/>
        <pt x="359" y="388" on="0"/>
        <pt x="349" y="376" on="1"/>
        <pt x="332" y="355" on="1"/>
        <pt x="254" y="355" on="1"/>
        <pt x="254" y="311" on="1"/>
        <pt x="251" y="160" on="0"/>
        <pt x="235" y="16" on="1"/>
        <pt x="230" y="-28" on="0"/>
        <pt x="226" y="-36" on="1"/>
        <pt x="225" y="-38" on="0"/>
        <pt x="221" y="-45" on="1"/>
        <pt x="171" y="-140" on="0"/>
        <pt x="121" y="-211" on="1"/>
        <pt x="113" y="-222" on="1"/>
        <pt x="104" y="-222" on="1"/>
        <pt x="94" y="-222" on="0"/>
        <pt x="94" y="-218" on="0"/>
        <pt x="107" y="-183" on="0"/>
        <pt x="114" y="-164" on="1"/>
        <pt x="121" y="-145" on="1"/>
        <pt x="139" y="-80" on="0"/>
        <pt x="139" y="35" on="1"/>
        <pt x="139" y="93" on="1"/>
        <pt x="139" y="222" on="0"/>
        <pt x="135" y="314" on="1"/>
        <pt x="134" y="354" on="1"/>
        <pt x="134" y="355" on="0"/>
        <pt x="84" y="355" on="1"/>
        <pt x="35" y="355" on="1"/>
        <pt x="52" y="369" on="0"/>
        <pt x="84" y="399" on="1"/>
        <pt x="106" y="399" on="1"/>
        <pt x="128" y="399" on="0"/>
        <pt x="128" y="400" on="1"/>
        <pt x="122" y="420" on="1"/>
        <pt x="102" y="489" on="0"/>
        <pt x="99" y="540" on="1"/>
        <pt x="99" y="555" on="1"/>
        <pt x="111" y="569" on="1"/>
        <pt x="162" y="629" on="0"/>
        <pt x="221" y="676" on="1"/>
        <pt x="232" y="687" on="0"/>
        <pt x="235" y="687" on="1"/>
        <pt x="236" y="687" on="1"/>
        <pt x="289" y="650" on="0"/>
        <pt x="315" y="650" on="1"/>
        <pt x="336" y="650" on="0"/>
        <pt x="362" y="666" on="1"/>
        <pt x="366" y="660" on="0"/>
        <pt x="372" y="654" on="1"/>
        <pt x="344" y="625" on="0"/>
        <pt x="286" y="569" on="1"/>
      </contour>
    </TTGlyph>
    <TTGlyph name="five" xMin="19" yMin="-190" xMax="518" yMax="481">
      <contour>
        <pt x="232" y="192" on="1"/>
        <pt x="177" y="192" on="0"/>
        <pt x="122" y="152" on="1"/>
        <pt x="117" y="153" on="0"/>
        <pt x="99" y="160" on="0"/>
        <pt x="95" y="162" on="1"/>
        <pt x="95" y="481" on="1"/>
        <pt x="306" y="481" on="1"/>
        <pt x="516" y="481" on="0"/>
        <pt x="516" y="479" on="1"/>
        <pt x="514" y="477" on="0"/>
        <pt x="501" y="433" on="1"/>
        <pt x="486" y="389" on="1"/>
        <pt x="319" y="388" on="1"/>
        <pt x="152" y="388" on="1"/>
        <pt x="152" y="386" on="1"/>
        <pt x="152" y="382" on="1"/>
        <pt x="152" y="379" on="0"/>
        <pt x="151" y="369" on="0"/>
        <pt x="151" y="365" on="1"/>
        <pt x="147" y="329" on="0"/>
        <pt x="146" y="260" on="1"/>
        <pt x="146" y="218" on="1"/>
        <pt x="149" y="218" on="1"/>
        <pt x="155" y="221" on="0"/>
        <pt x="169" y="224" on="1"/>
        <pt x="224" y="242" on="0"/>
        <pt x="284" y="242" on="1"/>
        <pt x="409" y="242" on="0"/>
        <pt x="470" y="181" on="1"/>
        <pt x="518" y="130" on="0"/>
        <pt x="518" y="55" on="1"/>
        <pt x="518" y="-51" on="0"/>
        <pt x="379" y="-173" on="0"/>
        <pt x="271" y="-188" on="1"/>
        <pt x="259" y="-190" on="0"/>
        <pt x="220" y="-190" on="1"/>
        <pt x="119" y="-190" on="0"/>
        <pt x="38" y="-148" on="1"/>
        <pt x="36" y="-147" on="0"/>
        <pt x="31" y="-145" on="0"/>
        <pt x="28" y="-143" on="0"/>
        <pt x="24" y="-141" on="0"/>
        <pt x="22" y="-140" on="0"/>
        <pt x="21" y="-140" on="1"/>
        <pt x="20" y="-139" on="1"/>
        <pt x="19" y="-139" on="0"/>
        <pt x="19" y="-138" on="1"/>
        <pt x="19" y="-136" on="0"/>
        <pt x="27" y="-125" on="1"/>
        <pt x="35" y="-112" on="1"/>
        <pt x="51" y="-120" on="1"/>
        <pt x="114" y="-152" on="0"/>
        <pt x="174" y="-152" on="1"/>
        <pt x="263" y="-152" on="0"/>
        <pt x="371" y="-43" on="0"/>
        <pt x="371" y="46" on="1"/>
        <pt x="371" y="115" on="0"/>
        <pt x="301" y="192" on="0"/>
      </contour>
    </TTGlyph>
    <TTGlyph name="four" xMin="13" yMin="-196" xMax="565" yMax="495">
      <contour>
        <pt x="362" y="479" on="1"/>
        <pt x="459" y="495" on="1"/>
        <pt x="460" y="495" on="0"/>
        <pt x="464" y="489" on="0"/>
        <pt x="469" y="483" on="0"/>
        <pt x="470" y="482" on="1"/>
        <pt x="470" y="453" on="1"/>
        <pt x="470" y="400" on="0"/>
        <pt x="463" y="134" on="1"/>
        <pt x="463" y="117" on="0"/>
        <pt x="462" y="81" on="0"/>
        <pt x="462" y="72" on="1"/>
        <pt x="461" y="62" on="1"/>
        <pt x="461" y="61" on="0"/>
        <pt x="565" y="61" on="0"/>
        <pt x="565" y="60" on="1"/>
        <pt x="555" y="29" on="1"/>
        <pt x="546" y="-1" on="1"/>
        <pt x="461" y="-1" on="1"/>
        <pt x="461" y="-15" on="1"/>
        <pt x="461" y="-34" on="0"/>
        <pt x="465" y="-140" on="0"/>
        <pt x="465" y="-154" on="1"/>
        <pt x="457" y="-157" on="1"/>
        <pt x="449" y="-160" on="0"/>
        <pt x="419" y="-170" on="0"/>
        <pt x="405" y="-175" on="1"/>
        <pt x="347" y="-196" on="0"/>
        <pt x="346" y="-196" on="1"/>
        <pt x="344" y="-196" on="0"/>
        <pt x="335" y="-187" on="1"/>
        <pt x="336" y="-148" on="1"/>
        <pt x="337" y="-127" on="0"/>
        <pt x="337" y="-55" on="1"/>
        <pt x="337" y="0" on="1"/>
        <pt x="13" y="0" on="1"/>
        <pt x="13" y="29" on="1"/>
        <pt x="187" y="253" on="1"/>
        <pt x="362" y="477" on="0"/>
      </contour>
      <contour>
        <pt x="339" y="265" on="1"/>
        <pt x="339" y="338" on="1"/>
        <pt x="339" y="362" on="0"/>
        <pt x="335" y="362" on="1"/>
        <pt x="334" y="362" on="0"/>
        <pt x="331" y="359" on="1"/>
        <pt x="330" y="357" on="0"/>
        <pt x="313" y="338" on="1"/>
        <pt x="260" y="276" on="0"/>
        <pt x="141" y="112" on="1"/>
        <pt x="110" y="69" on="0"/>
        <pt x="110" y="65" on="1"/>
        <pt x="110" y="61" on="1"/>
        <pt x="337" y="61" on="1"/>
        <pt x="337" y="117" on="1"/>
        <pt x="338" y="133" on="0"/>
        <pt x="339" y="242" on="0"/>
      </contour>
    </TTGlyph>
    <TTGlyph name="g" xMin="17" yMin="-208" xMax="541" yMax="472">
      <contour>
        <pt x="176" y="-23" on="1"/>
        <pt x="163" y="-10" on="0"/>
        <pt x="93" y="69" on="0"/>
        <pt x="92" y="71" on="1"/>
        <pt x="92" y="74" on="1"/>
        <pt x="91" y="78" on="0"/>
        <pt x="90" y="89" on="0"/>
        <pt x="90" y="95" on="1"/>
        <pt x="86" y="157" on="0"/>
        <pt x="86" y="183" on="1"/>
        <pt x="86" y="256" on="0"/>
        <pt x="98" y="319" on="1"/>
        <pt x="105" y="364" on="0"/>
        <pt x="109" y="366" on="1"/>
        <pt x="115" y="372" on="0"/>
        <pt x="176" y="405" on="1"/>
        <pt x="222" y="432" on="0"/>
        <pt x="275" y="458" on="1"/>
        <pt x="302" y="472" on="0"/>
        <pt x="305" y="472" on="1"/>
        <pt x="307" y="472" on="0"/>
        <pt x="314" y="469" on="0"/>
        <pt x="327" y="463" on="0"/>
        <pt x="331" y="461" on="1"/>
        <pt x="376" y="441" on="0"/>
        <pt x="397" y="435" on="1"/>
        <pt x="424" y="426" on="0"/>
        <pt x="431" y="426" on="1"/>
        <pt x="435" y="426" on="0"/>
        <pt x="476" y="445" on="1"/>
        <pt x="519" y="465" on="1"/>
        <pt x="525" y="463" on="1"/>
        <pt x="532" y="461" on="1"/>
        <pt x="497" y="393" on="0"/>
        <pt x="497" y="268" on="1"/>
        <pt x="496" y="255" on="0"/>
        <pt x="496" y="233" on="1"/>
        <pt x="496" y="174" on="0"/>
        <pt x="521" y="73" on="1"/>
        <pt x="536" y="6" on="0"/>
        <pt x="539" y="-10" on="1"/>
        <pt x="541" y="-22" on="1"/>
        <pt x="526" y="-38" on="1"/>
        <pt x="441" y="-126" on="0"/>
        <pt x="355" y="-194" on="1"/>
        <pt x="339" y="-206" on="1"/>
        <pt x="327" y="-207" on="1"/>
        <pt x="324" y="-207" on="0"/>
        <pt x="313" y="-208" on="0"/>
        <pt x="310" y="-208" on="1"/>
        <pt x="256" y="-208" on="0"/>
        <pt x="193" y="-187" on="1"/>
        <pt x="141" y="-170" on="0"/>
        <pt x="77" y="-134" on="1"/>
        <pt x="73" y="-131" on="1"/>
        <pt x="56" y="-141" on="1"/>
        <pt x="40" y="-150" on="0"/>
        <pt x="38" y="-150" on="1"/>
        <pt x="37" y="-150" on="0"/>
        <pt x="17" y="-138" on="0"/>
        <pt x="17" y="-136" on="0"/>
        <pt x="19" y="-136" on="0"/>
        <pt x="98" y="-79" on="1"/>
      </contour>
      <contour>
        <pt x="249" y="384" on="1"/>
        <pt x="246" y="385" on="0"/>
        <pt x="239" y="388" on="0"/>
        <pt x="233" y="390" on="0"/>
        <pt x="229" y="392" on="0"/>
        <pt x="228" y="392" on="1"/>
        <pt x="226" y="393" on="1"/>
        <pt x="225" y="393" on="0"/>
        <pt x="222" y="376" on="1"/>
        <pt x="210" y="311" on="0"/>
        <pt x="210" y="235" on="1"/>
        <pt x="210" y="182" on="0"/>
        <pt x="214" y="144" on="1"/>
        <pt x="215" y="132" on="1"/>
        <pt x="230" y="118" on="1"/>
        <pt x="250" y="100" on="0"/>
        <pt x="269" y="85" on="1"/>
        <pt x="290" y="69" on="0"/>
        <pt x="301" y="66" on="1"/>
        <pt x="304" y="66" on="0"/>
        <pt x="358" y="95" on="0"/>
        <pt x="373" y="105" on="1"/>
        <pt x="384" y="112" on="1"/>
        <pt x="383" y="165" on="1"/>
        <pt x="383" y="224" on="0"/>
        <pt x="387" y="309" on="1"/>
        <pt x="387" y="314" on="0"/>
        <pt x="387" y="325" on="0"/>
        <pt x="388" y="333" on="0"/>
        <pt x="388" y="339" on="0"/>
        <pt x="388" y="341" on="1"/>
        <pt x="388" y="343" on="1"/>
        <pt x="381" y="344" on="0"/>
        <pt x="373" y="346" on="1"/>
        <pt x="326" y="354" on="0"/>
      </contour>
      <contour>
        <pt x="365" y="-125" on="1"/>
        <pt x="395" y="-125" on="0"/>
        <pt x="414" y="-107" on="0"/>
        <pt x="414" y="-80" on="1"/>
        <pt x="414" y="-64" on="0"/>
        <pt x="411" y="-47" on="1"/>
        <pt x="404" y="4" on="0"/>
        <pt x="384" y="72" on="1"/>
        <pt x="382" y="78" on="0"/>
        <pt x="382" y="79" on="1"/>
        <pt x="381" y="79" on="0"/>
        <pt x="190" y="-50" on="0"/>
        <pt x="189" y="-52" on="1"/>
        <pt x="189" y="-53" on="0"/>
        <pt x="221" y="-70" on="0"/>
        <pt x="263" y="-91" on="0"/>
        <pt x="275" y="-97" on="1"/>
        <pt x="337" y="-125" on="0"/>
      </contour>
    </TTGlyph>
    <TTGlyph name="h" xMin="89" yMin="-207" xMax="507" yMax="687">
      <contour>
        <pt x="95" y="661" on="1"/>
        <pt x="95" y="662" on="0"/>
        <pt x="111" y="672" on="0"/>
        <pt x="113" y="672" on="1"/>
        <pt x="126" y="634" on="1"/>
        <pt x="137" y="596" on="1"/>
        <pt x="147" y="602" on="1"/>
        <pt x="235" y="656" on="0"/>
        <pt x="275" y="677" on="1"/>
        <pt x="292" y="687" on="1"/>
        <pt x="303" y="680" on="1"/>
        <pt x="305" y="679" on="0"/>
        <pt x="310" y="675" on="0"/>
        <pt x="312" y="674" on="1"/>
        <pt x="313" y="672" on="1"/>
        <pt x="307" y="669" on="0"/>
        <pt x="300" y="666" on="1"/>
        <pt x="237" y="633" on="0"/>
        <pt x="223" y="545" on="1"/>
        <pt x="221" y="526" on="0"/>
        <pt x="219" y="413" on="1"/>
        <pt x="219" y="377" on="1"/>
        <pt x="222" y="379" on="1"/>
        <pt x="251" y="393" on="0"/>
        <pt x="339" y="455" on="1"/>
        <pt x="362" y="471" on="1"/>
        <pt x="383" y="461" on="1"/>
        <pt x="425" y="440" on="0"/>
        <pt x="491" y="415" on="1"/>
        <pt x="504" y="410" on="1"/>
        <pt x="504" y="406" on="1"/>
        <pt x="504" y="405" on="0"/>
        <pt x="505" y="392" on="0"/>
        <pt x="506" y="365" on="0"/>
        <pt x="506" y="356" on="1"/>
        <pt x="507" y="326" on="0"/>
        <pt x="507" y="269" on="1"/>
        <pt x="507" y="76" on="0"/>
        <pt x="486" y="-21" on="1"/>
        <pt x="485" y="-30" on="0"/>
        <pt x="480" y="-37" on="0"/>
        <pt x="461" y="-57" on="1"/>
        <pt x="396" y="-124" on="0"/>
        <pt x="299" y="-207" on="1"/>
        <pt x="281" y="-197" on="1"/>
        <pt x="263" y="-186" on="1"/>
        <pt x="267" y="-184" on="0"/>
        <pt x="272" y="-181" on="1"/>
        <pt x="281" y="-177" on="0"/>
        <pt x="312" y="-155" on="1"/>
        <pt x="346" y="-128" on="0"/>
        <pt x="352" y="-119" on="1"/>
        <pt x="394" y="-62" on="0"/>
        <pt x="394" y="117" on="1"/>
        <pt x="394" y="172" on="0"/>
        <pt x="389" y="247" on="1"/>
        <pt x="386" y="322" on="0"/>
        <pt x="382" y="335" on="1"/>
        <pt x="382" y="337" on="0"/>
        <pt x="363" y="346" on="1"/>
        <pt x="313" y="369" on="0"/>
        <pt x="281" y="376" on="1"/>
        <pt x="250" y="362" on="1"/>
        <pt x="220" y="347" on="0"/>
        <pt x="219" y="347" on="1"/>
        <pt x="213" y="336" on="0"/>
        <pt x="213" y="232" on="1"/>
        <pt x="213" y="177" on="0"/>
        <pt x="217" y="144" on="1"/>
        <pt x="218" y="128" on="1"/>
        <pt x="224" y="119" on="1"/>
        <pt x="247" y="87" on="0"/>
        <pt x="272" y="60" on="1"/>
        <pt x="210" y="23" on="0"/>
        <pt x="157" y="-24" on="1"/>
        <pt x="156" y="-22" on="1"/>
        <pt x="154" y="-21" on="0"/>
        <pt x="150" y="-14" on="0"/>
        <pt x="148" y="-12" on="1"/>
        <pt x="128" y="18" on="0"/>
        <pt x="98" y="52" on="1"/>
        <pt x="89" y="62" on="1"/>
        <pt x="91" y="103" on="1"/>
        <pt x="104" y="289" on="0"/>
        <pt x="104" y="436" on="1"/>
        <pt x="104" y="546" on="0"/>
        <pt x="97" y="633" on="1"/>
        <pt x="97" y="638" on="0"/>
        <pt x="96" y="653" on="0"/>
        <pt x="96" y="657" on="1"/>
      </contour>
    </TTGlyph>
    <TTGlyph name="hyphen" xMin="54" yMin="236" xMax="833" yMax="275">
      <contour>
        <pt x="54" y="236" on="1"/>
        <pt x="61" y="249" on="0"/>
        <pt x="73" y="275" on="1"/>
        <pt x="453" y="275" on="1"/>
        <pt x="833" y="275" on="0"/>
        <pt x="833" y="274" on="1"/>
        <pt x="830" y="265" on="0"/>
        <pt x="825" y="255" on="1"/>
        <pt x="818" y="236" on="1"/>
      </contour>
    </TTGlyph>
    <TTGlyph name="i" xMin="3" yMin="-25" xMax="327" yMax="686">
      <contour>
        <pt x="73" y="613" on="1"/>
        <pt x="88" y="625" on="0"/>
        <pt x="149" y="674" on="0"/>
        <pt x="164" y="686" on="1"/>
        <pt x="184" y="666" on="1"/>
        <pt x="203" y="646" on="0"/>
        <pt x="231" y="623" on="1"/>
        <pt x="242" y="614" on="1"/>
        <pt x="242" y="613" on="0"/>
        <pt x="163" y="540" on="0"/>
        <pt x="162" y="540" on="1"/>
        <pt x="159" y="540" on="0"/>
        <pt x="126" y="567" on="1"/>
        <pt x="98" y="588" on="0"/>
      </contour>
      <contour>
        <pt x="258" y="83" on="1"/>
        <pt x="259" y="83" on="0"/>
        <pt x="290" y="94" on="1"/>
        <pt x="322" y="104" on="1"/>
        <pt x="326" y="90" on="0"/>
        <pt x="327" y="89" on="1"/>
        <pt x="327" y="88" on="0"/>
        <pt x="312" y="78" on="1"/>
        <pt x="274" y="54" on="0"/>
        <pt x="190" y="-7" on="1"/>
        <pt x="166" y="-25" on="0"/>
        <pt x="164" y="-25" on="1"/>
        <pt x="163" y="-25" on="0"/>
        <pt x="148" y="-7" on="0"/>
        <pt x="123" y="24" on="0"/>
        <pt x="112" y="35" on="1"/>
        <pt x="92" y="55" on="0"/>
        <pt x="92" y="58" on="1"/>
        <pt x="92" y="59" on="0"/>
        <pt x="94" y="81" on="1"/>
        <pt x="101" y="150" on="0"/>
        <pt x="101" y="318" on="0"/>
        <pt x="97" y="358" on="1"/>
        <pt x="97" y="366" on="1"/>
        <pt x="71" y="380" on="0"/>
        <pt x="59" y="387" on="1"/>
        <pt x="40" y="379" on="1"/>
        <pt x="21" y="371" on="1"/>
        <pt x="20" y="371" on="0"/>
        <pt x="3" y="381" on="0"/>
        <pt x="3" y="382" on="1"/>
        <pt x="19" y="393" on="0"/>
        <pt x="38" y="406" on="1"/>
        <pt x="78" y="431" on="0"/>
        <pt x="125" y="466" on="1"/>
        <pt x="138" y="477" on="1"/>
        <pt x="167" y="457" on="0"/>
        <pt x="186" y="444" on="1"/>
        <pt x="219" y="422" on="1"/>
        <pt x="219" y="389" on="1"/>
        <pt x="215" y="324" on="0"/>
        <pt x="215" y="247" on="1"/>
        <pt x="215" y="137" on="0"/>
        <pt x="222" y="123" on="1"/>
        <pt x="230" y="101" on="0"/>
        <pt x="250" y="86" on="1"/>
        <pt x="254" y="83" on="0"/>
      </contour>
    </TTGlyph>
    <TTGlyph name="j" xMin="-19" yMin="-203" xMax="238" yMax="682">
      <contour>
        <pt x="114" y="646" on="1"/>
        <pt x="155" y="682" on="1"/>
        <pt x="162" y="676" on="0"/>
        <pt x="197" y="646" on="0"/>
        <pt x="208" y="636" on="1"/>
        <pt x="235" y="614" on="1"/>
        <pt x="216" y="595" on="0"/>
        <pt x="191" y="574" on="1"/>
        <pt x="154" y="540" on="1"/>
        <pt x="135" y="556" on="1"/>
        <pt x="101" y="582" on="0"/>
        <pt x="84" y="601" on="1"/>
        <pt x="74" y="611" on="1"/>
      </contour>
      <contour>
        <pt x="10" y="377" on="1"/>
        <pt x="144" y="477" on="1"/>
        <pt x="148" y="475" on="0"/>
        <pt x="152" y="472" on="1"/>
        <pt x="161" y="466" on="0"/>
        <pt x="200" y="444" on="1"/>
        <pt x="205" y="441" on="0"/>
        <pt x="219" y="433" on="0"/>
        <pt x="228" y="428" on="0"/>
        <pt x="229" y="428" on="1"/>
        <pt x="233" y="425" on="1"/>
        <pt x="233" y="416" on="1"/>
        <pt x="238" y="346" on="0"/>
        <pt x="238" y="252" on="1"/>
        <pt x="238" y="95" on="0"/>
        <pt x="215" y="-16" on="1"/>
        <pt x="213" y="-30" on="1"/>
        <pt x="185" y="-57" on="1"/>
        <pt x="137" y="-102" on="0"/>
        <pt x="136" y="-103" on="1"/>
        <pt x="106" y="-131" on="0"/>
        <pt x="21" y="-203" on="0"/>
        <pt x="19" y="-203" on="1"/>
        <pt x="15" y="-202" on="0"/>
        <pt x="-17" y="-190" on="0"/>
        <pt x="-19" y="-189" on="1"/>
        <pt x="-9" y="-183" on="1"/>
        <pt x="72" y="-133" on="0"/>
        <pt x="96" y="-90" on="1"/>
        <pt x="108" y="-66" on="0"/>
        <pt x="114" y="-37" on="1"/>
        <pt x="120" y="27" on="0"/>
        <pt x="120" y="192" on="1"/>
        <pt x="120" y="311" on="0"/>
        <pt x="119" y="320" on="1"/>
        <pt x="116" y="349" on="0"/>
        <pt x="96" y="376" on="0"/>
        <pt x="72" y="380" on="1"/>
        <pt x="53" y="372" on="1"/>
        <pt x="34" y="362" on="0"/>
        <pt x="32" y="364" on="1"/>
      </contour>
    </TTGlyph>
    <TTGlyph name="k" xMin="34" yMin="-25" xMax="432" yMax="682">
      <contour>
        <pt x="279" y="672" on="1"/>
        <pt x="282" y="673" on="0"/>
        <pt x="289" y="677" on="0"/>
        <pt x="295" y="679" on="0"/>
        <pt x="299" y="681" on="0"/>
        <pt x="300" y="682" on="1"/>
        <pt x="302" y="682" on="1"/>
        <pt x="312" y="676" on="1"/>
        <pt x="321" y="670" on="1"/>
        <pt x="312" y="665" on="1"/>
        <pt x="276" y="646" on="0"/>
        <pt x="254" y="616" on="1"/>
        <pt x="237" y="591" on="0"/>
        <pt x="233" y="547" on="1"/>
        <pt x="232" y="541" on="0"/>
        <pt x="230" y="518" on="0"/>
        <pt x="230" y="502" on="0"/>
        <pt x="230" y="501" on="1"/>
        <pt x="231" y="501" on="0"/>
        <pt x="245" y="510" on="1"/>
        <pt x="270" y="526" on="0"/>
        <pt x="368" y="584" on="0"/>
        <pt x="369" y="583" on="1"/>
        <pt x="374" y="577" on="0"/>
        <pt x="380" y="570" on="1"/>
        <pt x="428" y="509" on="0"/>
        <pt x="428" y="481" on="1"/>
        <pt x="428" y="464" on="0"/>
        <pt x="413" y="444" on="1"/>
        <pt x="411" y="442" on="0"/>
        <pt x="344" y="371" on="1"/>
        <pt x="321" y="347" on="1"/>
        <pt x="365" y="346" on="1"/>
        <pt x="409" y="346" on="1"/>
        <pt x="396" y="334" on="0"/>
        <pt x="372" y="308" on="1"/>
        <pt x="227" y="308" on="1"/>
        <pt x="227" y="294" on="1"/>
        <pt x="227" y="272" on="0"/>
        <pt x="233" y="143" on="0"/>
        <pt x="234" y="138" on="1"/>
        <pt x="234" y="135" on="0"/>
        <pt x="279" y="102" on="1"/>
        <pt x="322" y="68" on="0"/>
        <pt x="324" y="68" on="1"/>
        <pt x="346" y="77" on="0"/>
        <pt x="372" y="88" on="1"/>
        <pt x="421" y="108" on="0"/>
        <pt x="423" y="108" on="0"/>
        <pt x="432" y="90" on="1"/>
        <pt x="421" y="83" on="1"/>
        <pt x="373" y="53" on="0"/>
        <pt x="270" y="-5" on="1"/>
        <pt x="234" y="-25" on="1"/>
        <pt x="204" y="-1" on="1"/>
        <pt x="172" y="25" on="0"/>
        <pt x="124" y="60" on="1"/>
        <pt x="106" y="72" on="1"/>
        <pt x="110" y="105" on="0"/>
        <pt x="111" y="207" on="1"/>
        <pt x="113" y="286" on="0"/>
        <pt x="114" y="294" on="1"/>
        <pt x="114" y="308" on="1"/>
        <pt x="74" y="308" on="1"/>
        <pt x="34" y="309" on="1"/>
        <pt x="42" y="315" on="0"/>
        <pt x="75" y="340" on="0"/>
        <pt x="83" y="346" on="1"/>
        <pt x="115" y="346" on="1"/>
        <pt x="115" y="430" on="1"/>
        <pt x="114" y="591" on="0"/>
        <pt x="106" y="652" on="1"/>
        <pt x="105" y="658" on="0"/>
        <pt x="104" y="661" on="0"/>
        <pt x="107" y="665" on="0"/>
        <pt x="108" y="666" on="0"/>
        <pt x="113" y="668" on="1"/>
        <pt x="123" y="672" on="1"/>
        <pt x="125" y="672" on="0"/>
        <pt x="139" y="635" on="1"/>
        <pt x="152" y="597" on="1"/>
        <pt x="154" y="598" on="1"/>
        <pt x="156" y="600" on="0"/>
        <pt x="164" y="605" on="0"/>
        <pt x="167" y="607" on="1"/>
        <pt x="208" y="637" on="0"/>
      </contour>
      <contour>
        <pt x="305" y="506" on="1"/>
        <pt x="297" y="514" on="1"/>
        <pt x="296" y="514" on="0"/>
        <pt x="283" y="505" on="0"/>
        <pt x="267" y="493" on="0"/>
        <pt x="264" y="490" on="1"/>
        <pt x="243" y="471" on="0"/>
        <pt x="237" y="437" on="1"/>
        <pt x="230" y="398" on="0"/>
        <pt x="230" y="358" on="1"/>
        <pt x="230" y="346" on="1"/>
        <pt x="247" y="346" on="1"/>
        <pt x="256" y="346" on="0"/>
        <pt x="269" y="348" on="0"/>
        <pt x="276" y="349" on="0"/>
        <pt x="285" y="355" on="0"/>
        <pt x="288" y="358" on="0"/>
        <pt x="300" y="370" on="0"/>
        <pt x="302" y="372" on="1"/>
        <pt x="328" y="398" on="0"/>
        <pt x="335" y="423" on="1"/>
        <pt x="335" y="424" on="0"/>
        <pt x="336" y="432" on="0"/>
        <pt x="336" y="434" on="1"/>
        <pt x="336" y="445" on="0"/>
        <pt x="333" y="454" on="1"/>
        <pt x="327" y="480" on="0"/>
      </contour>
    </TTGlyph>
    <TTGlyph name="l" xMin="100" yMin="-23" xMax="312" yMax="681">
      <contour>
        <pt x="100" y="55" on="1"/>
        <pt x="110" y="133" on="0"/>
        <pt x="111" y="275" on="1"/>
        <pt x="111" y="409" on="0"/>
        <pt x="105" y="593" on="1"/>
        <pt x="104" y="618" on="0"/>
        <pt x="104" y="650" on="1"/>
        <pt x="104" y="657" on="1"/>
        <pt x="106" y="658" on="1"/>
        <pt x="108" y="660" on="0"/>
        <pt x="112" y="663" on="0"/>
        <pt x="118" y="666" on="0"/>
        <pt x="121" y="667" on="0"/>
        <pt x="122" y="666" on="1"/>
        <pt x="133" y="629" on="1"/>
        <pt x="144" y="594" on="1"/>
        <pt x="161" y="606" on="1"/>
        <pt x="218" y="642" on="0"/>
        <pt x="272" y="670" on="1"/>
        <pt x="294" y="681" on="1"/>
        <pt x="295" y="681" on="0"/>
        <pt x="306" y="673" on="0"/>
        <pt x="306" y="672" on="1"/>
        <pt x="301" y="668" on="0"/>
        <pt x="296" y="665" on="1"/>
        <pt x="261" y="640" on="0"/>
        <pt x="234" y="591" on="0"/>
        <pt x="228" y="541" on="1"/>
        <pt x="222" y="502" on="0"/>
        <pt x="222" y="343" on="1"/>
        <pt x="222" y="226" on="0"/>
        <pt x="230" y="125" on="1"/>
        <pt x="231" y="112" on="1"/>
        <pt x="244" y="98" on="1"/>
        <pt x="258" y="83" on="1"/>
        <pt x="271" y="87" on="0"/>
        <pt x="285" y="92" on="1"/>
        <pt x="312" y="102" on="1"/>
        <pt x="312" y="84" on="1"/>
        <pt x="297" y="72" on="0"/>
        <pt x="164" y="-24" on="0"/>
        <pt x="163" y="-23" on="1"/>
        <pt x="148" y="-5" on="0"/>
        <pt x="131" y="16" on="1"/>
      </contour>
    </TTGlyph>
    <TTGlyph name="m" xMin="16" yMin="-31" xMax="900" yMax="476">
      <contour>
        <pt x="376" y="471" on="1"/>
        <pt x="474" y="425" on="0"/>
        <pt x="514" y="416" on="1"/>
        <pt x="514" y="412" on="1"/>
        <pt x="514" y="411" on="0"/>
        <pt x="513" y="397" on="0"/>
        <pt x="513" y="392" on="1"/>
        <pt x="511" y="376" on="1"/>
        <pt x="520" y="382" on="1"/>
        <pt x="529" y="387" on="0"/>
        <pt x="568" y="412" on="0"/>
        <pt x="584" y="422" on="1"/>
        <pt x="599" y="432" on="0"/>
        <pt x="638" y="457" on="0"/>
        <pt x="648" y="463" on="1"/>
        <pt x="657" y="469" on="1"/>
        <pt x="659" y="471" on="0"/>
        <pt x="681" y="461" on="1"/>
        <pt x="741" y="435" on="0"/>
        <pt x="796" y="420" on="1"/>
        <pt x="803" y="418" on="0"/>
        <pt x="803" y="416" on="1"/>
        <pt x="802" y="415" on="0"/>
        <pt x="800" y="400" on="1"/>
        <pt x="788" y="331" on="0"/>
        <pt x="788" y="247" on="1"/>
        <pt x="788" y="219" on="0"/>
        <pt x="792" y="147" on="1"/>
        <pt x="794" y="123" on="1"/>
        <pt x="797" y="118" on="0"/>
        <pt x="825" y="84" on="0"/>
        <pt x="828" y="82" on="1"/>
        <pt x="832" y="78" on="0"/>
        <pt x="835" y="78" on="1"/>
        <pt x="838" y="78" on="1"/>
        <pt x="841" y="78" on="0"/>
        <pt x="867" y="89" on="1"/>
        <pt x="895" y="101" on="1"/>
        <pt x="896" y="97" on="1"/>
        <pt x="897" y="93" on="0"/>
        <pt x="899" y="81" on="0"/>
        <pt x="900" y="78" on="1"/>
        <pt x="873" y="62" on="1"/>
        <pt x="810" y="23" on="0"/>
        <pt x="761" y="-12" on="1"/>
        <pt x="736" y="-30" on="1"/>
        <pt x="735" y="-30" on="0"/>
        <pt x="731" y="-24" on="1"/>
        <pt x="706" y="11" on="0"/>
        <pt x="671" y="48" on="1"/>
        <pt x="661" y="59" on="1"/>
        <pt x="668" y="77" on="0"/>
        <pt x="670" y="109" on="1"/>
        <pt x="674" y="140" on="0"/>
        <pt x="674" y="219" on="1"/>
        <pt x="674" y="341" on="0"/>
        <pt x="670" y="344" on="1"/>
        <pt x="655" y="353" on="0"/>
        <pt x="591" y="372" on="1"/>
        <pt x="576" y="376" on="1"/>
        <pt x="544" y="364" on="1"/>
        <pt x="511" y="351" on="0"/>
        <pt x="510" y="351" on="1"/>
        <pt x="507" y="349" on="0"/>
        <pt x="507" y="224" on="1"/>
        <pt x="507" y="132" on="1"/>
        <pt x="535" y="95" on="1"/>
        <pt x="541" y="87" on="0"/>
        <pt x="556" y="68" on="0"/>
        <pt x="560" y="63" on="1"/>
        <pt x="563" y="58" on="1"/>
        <pt x="563" y="57" on="0"/>
        <pt x="445" y="-28" on="0"/>
        <pt x="444" y="-28" on="1"/>
        <pt x="431" y="-9" on="0"/>
        <pt x="415" y="13" on="1"/>
        <pt x="385" y="53" on="1"/>
        <pt x="387" y="67" on="1"/>
        <pt x="396" y="117" on="0"/>
        <pt x="396" y="206" on="1"/>
        <pt x="396" y="289" on="0"/>
        <pt x="393" y="334" on="1"/>
        <pt x="393" y="346" on="0"/>
        <pt x="390" y="348" on="1"/>
        <pt x="369" y="358" on="0"/>
        <pt x="306" y="373" on="1"/>
        <pt x="301" y="373" on="0"/>
        <pt x="265" y="361" on="1"/>
        <pt x="228" y="349" on="1"/>
        <pt x="228" y="335" on="1"/>
        <pt x="227" y="322" on="0"/>
        <pt x="227" y="284" on="1"/>
        <pt x="227" y="206" on="0"/>
        <pt x="231" y="157" on="1"/>
        <pt x="231" y="151" on="0"/>
        <pt x="232" y="137" on="0"/>
        <pt x="232" y="133" on="1"/>
        <pt x="232" y="129" on="1"/>
        <pt x="232" y="125" on="0"/>
        <pt x="259" y="90" on="1"/>
        <pt x="286" y="56" on="0"/>
        <pt x="286" y="53" on="1"/>
        <pt x="287" y="53" on="0"/>
        <pt x="280" y="48" on="0"/>
        <pt x="266" y="37" on="0"/>
        <pt x="258" y="31" on="1"/>
        <pt x="250" y="26" on="0"/>
        <pt x="209" y="-5" on="0"/>
        <pt x="201" y="-10" on="1"/>
        <pt x="173" y="-31" on="1"/>
        <pt x="166" y="-20" on="1"/>
        <pt x="136" y="24" on="0"/>
        <pt x="108" y="57" on="1"/>
        <pt x="107" y="58" on="0"/>
        <pt x="108" y="71" on="1"/>
        <pt x="115" y="115" on="0"/>
        <pt x="115" y="203" on="1"/>
        <pt x="115" y="255" on="0"/>
        <pt x="113" y="319" on="1"/>
        <pt x="113" y="327" on="0"/>
        <pt x="112" y="345" on="0"/>
        <pt x="112" y="350" on="1"/>
        <pt x="111" y="355" on="1"/>
        <pt x="111" y="357" on="0"/>
        <pt x="93" y="370" on="1"/>
        <pt x="75" y="384" on="1"/>
        <pt x="54" y="375" on="1"/>
        <pt x="32" y="366" on="0"/>
        <pt x="31" y="365" on="1"/>
        <pt x="26" y="365" on="0"/>
        <pt x="16" y="378" on="1"/>
        <pt x="32" y="389" on="0"/>
        <pt x="89" y="430" on="1"/>
        <pt x="152" y="476" on="1"/>
        <pt x="179" y="449" on="0"/>
        <pt x="228" y="420" on="1"/>
        <pt x="229" y="420" on="0"/>
        <pt x="229" y="415" on="0"/>
        <pt x="228" y="404" on="0"/>
        <pt x="227" y="394" on="1"/>
        <pt x="225" y="369" on="1"/>
        <pt x="304" y="414" on="0"/>
        <pt x="363" y="461" on="1"/>
        <pt x="373" y="471" on="0"/>
      </contour>
    </TTGlyph>
    <TTGlyph name="n" xMin="5" yMin="-28" xMax="608" yMax="473">
      <contour>
        <pt x="512" y="407" on="1"/>
        <pt x="502" y="325" on="0"/>
        <pt x="502" y="197" on="1"/>
        <pt x="502" y="132" on="1"/>
        <pt x="523" y="109" on="1"/>
        <pt x="527" y="104" on="0"/>
        <pt x="540" y="90" on="0"/>
        <pt x="546" y="83" on="0"/>
        <pt x="547" y="83" on="1"/>
        <pt x="550" y="80" on="1"/>
        <pt x="578" y="92" on="1"/>
        <pt x="603" y="103" on="0"/>
        <pt x="604" y="103" on="1"/>
        <pt x="608" y="88" on="1"/>
        <pt x="555" y="55" on="0"/>
        <pt x="486" y="-1" on="1"/>
        <pt x="456" y="-25" on="0"/>
        <pt x="455" y="-25" on="1"/>
        <pt x="453" y="-23" on="0"/>
        <pt x="452" y="-21" on="1"/>
        <pt x="435" y="3" on="0"/>
        <pt x="389" y="53" on="1"/>
        <pt x="375" y="68" on="1"/>
        <pt x="378" y="82" on="1"/>
        <pt x="386" y="156" on="0"/>
        <pt x="386" y="221" on="1"/>
        <pt x="386" y="284" on="0"/>
        <pt x="385" y="307" on="1"/>
        <pt x="384" y="344" on="1"/>
        <pt x="353" y="360" on="0"/>
        <pt x="306" y="373" on="1"/>
        <pt x="286" y="379" on="1"/>
        <pt x="274" y="375" on="0"/>
        <pt x="225" y="358" on="0"/>
        <pt x="213" y="353" on="1"/>
        <pt x="213" y="273" on="1"/>
        <pt x="214" y="229" on="0"/>
        <pt x="214" y="161" on="1"/>
        <pt x="214" y="129" on="1"/>
        <pt x="245" y="96" on="1"/>
        <pt x="275" y="62" on="1"/>
        <pt x="249" y="41" on="0"/>
        <pt x="219" y="17" on="1"/>
        <pt x="163" y="-28" on="1"/>
        <pt x="157" y="-22" on="1"/>
        <pt x="122" y="17" on="0"/>
        <pt x="91" y="44" on="1"/>
        <pt x="86" y="48" on="0"/>
        <pt x="86" y="50" on="1"/>
        <pt x="95" y="83" on="0"/>
        <pt x="96" y="148" on="1"/>
        <pt x="96" y="224" on="0"/>
        <pt x="89" y="340" on="1"/>
        <pt x="88" y="366" on="1"/>
        <pt x="79" y="374" on="1"/>
        <pt x="69" y="384" on="0"/>
        <pt x="67" y="385" on="1"/>
        <pt x="64" y="388" on="1"/>
        <pt x="55" y="383" on="1"/>
        <pt x="52" y="382" on="0"/>
        <pt x="36" y="374" on="0"/>
        <pt x="33" y="373" on="1"/>
        <pt x="21" y="367" on="1"/>
        <pt x="13" y="374" on="1"/>
        <pt x="5" y="379" on="0"/>
        <pt x="5" y="381" on="1"/>
        <pt x="5" y="384" on="0"/>
        <pt x="69" y="428" on="1"/>
        <pt x="133" y="473" on="1"/>
        <pt x="135" y="473" on="0"/>
        <pt x="158" y="457" on="1"/>
        <pt x="198" y="431" on="0"/>
        <pt x="215" y="424" on="1"/>
        <pt x="214" y="400" on="1"/>
        <pt x="214" y="376" on="1"/>
        <pt x="278" y="409" on="0"/>
        <pt x="342" y="457" on="1"/>
        <pt x="363" y="472" on="1"/>
        <pt x="365" y="474" on="0"/>
        <pt x="385" y="464" on="1"/>
        <pt x="414" y="450" on="0"/>
        <pt x="502" y="414" on="1"/>
        <pt x="512" y="411" on="1"/>
      </contour>
    </TTGlyph>
</ttFont>
